<?xml version="1.0" encoding="utf-8"?>
<!-- Generator: Adobe Illustrator 24.3.0, SVG Export Plug-In . SVG Version: 6.00 Build 0)  -->
<svg version="1.1" id="Layer_1" xmlns="http://www.w3.org/2000/svg" xmlns:xlink="http://www.w3.org/1999/xlink" x="0px" y="0px"
	 width="12px" height="12px" viewBox="0 0 12 12" style="enable-background:new 0 0 12 12;" xml:space="preserve">
<style type="text/css">
	.st0{fill:#C1C7D0;}
</style>
<g>
	<path class="st0" d="M3.1,1.9c0.3,0,0.7,0.1,1,0.2c0.3,0.1,0.6,0.3,0.8,0.5s0.4,0.5,0.5,0.8C5.5,3.7,5.5,4,5.5,4.4v3.3v2.4H3.9V7.8
		H2v2.3H0.4V7.6V4.4c0-0.3,0.1-0.7,0.2-0.9c0.1-0.3,0.3-0.6,0.5-0.8c0.2-0.2,0.5-0.4,0.8-0.5C2.1,2,2.4,1.9,2.8,1.9H3.1L3.1,1.9z
		 M2.8,3.6c-0.2,0-0.4,0.1-0.6,0.2C2.1,4,2,4.1,2,4.4v1.9h1.9V4.4c0-0.2-0.1-0.4-0.2-0.6C3.5,3.6,3.3,3.6,3.1,3.6H2.8z"/>
	<path class="st0" d="M11.6,4.4c0,0.3-0.1,0.6-0.2,0.9C11.4,5.5,11.2,5.8,11,6c0.2,0.2,0.4,0.5,0.5,0.8c0.1,0.3,0.2,0.6,0.2,0.9
		c0,0.3-0.1,0.7-0.2,0.9c-0.1,0.3-0.3,0.6-0.5,0.8s-0.5,0.4-0.8,0.5c-0.3,0.1-0.6,0.2-1,0.2H9H7.8H6.2V1.9h1.6h1.3
		c0.3,0,0.7,0.1,1,0.2c0.3,0.1,0.6,0.3,0.8,0.5c0.2,0.2,0.4,0.5,0.5,0.8C11.6,3.7,11.6,4,11.6,4.4z M10,4.4C10,4.2,9.9,4,9.8,3.8
		C9.6,3.7,9.4,3.6,9.2,3.6H7.8v1.6h1.4c0.2,0,0.4-0.1,0.6-0.2C9.9,4.8,10,4.6,10,4.4z M10,7.6C10,7.4,9.9,7.2,9.8,7
		C9.6,6.9,9.4,6.8,9.2,6.8H9H7.8v1.6h1.4c0.2,0,0.4-0.1,0.6-0.2C9.9,8,10,7.8,10,7.6z"/>
</g>
</svg>
