<svg width="15" height="8" viewBox="0 0 15 8" fill="none" xmlns="http://www.w3.org/2000/svg">
<path d="M14.0219 0.468239C14.0219 0.519241 14.0112 0.572368 13.99 0.62762C13.9687 0.682872 13.9369 0.731749 13.8944 0.77425L7.76139 6.89447C7.67639 6.97947 7.57438 7.02197 7.45538 7.02197C7.33638 7.02197 7.23437 6.97947 7.14937 6.89447L1.10565 0.863503C1.02065 0.7785 0.978149 0.674371 0.978149 0.551117C0.978149 0.427862 1.02065 0.323733 1.10565 0.23873C1.19066 0.153727 1.29479 0.111226 1.41804 0.111226C1.54129 0.111226 1.64542 0.153727 1.73043 0.23873L7.45538 5.97644L13.2823 0.149478C13.3673 0.0644747 13.4693 0.0219732 13.5883 0.0219732C13.7074 0.0219732 13.8094 0.0644747 13.8944 0.149478C13.9369 0.191979 13.9687 0.240856 13.99 0.296108C14.0112 0.35136 14.0219 0.408737 14.0219 0.468239Z" fill="#8181A5"/>
</svg>
