<svg width="7" height="14" viewBox="0 0 7 14" fill="none" xmlns="http://www.w3.org/2000/svg">
<path d="M0.446266 0.000229836C0.497268 0.000229836 0.550395 0.0108547 0.605647 0.0321054C0.660899 0.0533562 0.709775 0.0852327 0.752277 0.127734L6.8725 6.2607C6.9575 6.34571 7 6.44771 7 6.56671C7 6.68572 6.9575 6.78772 6.8725 6.87273L0.84153 12.9164C0.756527 13.0014 0.652398 13.0439 0.529144 13.0439C0.405889 13.0439 0.301761 13.0014 0.216758 12.9164C0.131755 12.8314 0.0892532 12.7273 0.0892532 12.6041C0.0892532 12.4808 0.131755 12.3767 0.216758 12.2917L5.95446 6.56671L0.127505 0.739756C0.0425015 0.654753 0 0.55275 0 0.433745C0 0.314741 0.0425015 0.212737 0.127505 0.127734C0.170006 0.0852327 0.218883 0.0533562 0.274135 0.0321054C0.329387 0.0108547 0.386764 0.000229836 0.446266 0.000229836Z" fill="#8181A5"/>
</svg>
