<svg id="bi-person-plus" xmlns="http://www.w3.org/2000/svg" width="16" height="16" viewBox="0 0 16 16">
  <g id="Icon">
    <g id="Icon_Group" data-name="Icon Group" transform="translate(0 2)">
      <path id="Icon_Shape" data-name="Icon Shape" d="M1,12a.979.979,0,0,1-1-1c0-1,1-4,6-4s6,3,6,4a.979.979,0,0,1-1,1ZM11.5,6a.5.5,0,1,1,0-1H13V3.5a.5.5,0,1,1,1,0v2a.5.5,0,0,1-.5.5ZM3,3A3,3,0,1,1,6,6,3,3,0,0,1,3,3Z"/>
      <path id="Icon_Path" data-name="Icon Path" d="M0,.5A.5.5,0,0,1,.5,0h2a.5.5,0,0,1,0,1H1V2.5a.5.5,0,0,1-1,0Z" transform="translate(13 5)"/>
    </g>
  </g>
  <rect id="ViewBox" width="16" height="16" fill="none"/>
</svg>
