<?xml version="1.0" encoding="utf-8"?>
<svg width="27px" height="27px" viewBox="0 0 27 27" version="1.1" xmlns:xlink="http://www.w3.org/1999/xlink" xmlns="http://www.w3.org/2000/svg">
  <desc>Created with Lunacy</desc>
  <g id="Icon">
    <path d="M11.0804 4.71507L6.6011 4.71507L6.6011 0.235754C6.6011 0.106089 6.49501 0 6.36535 0L4.95083 0C4.82116 0 4.71507 0.106089 4.71507 0.235754L4.71507 4.71507L0.235754 4.71507C0.106089 4.71507 0 4.82116 0 4.95083L0 6.36535C0 6.49501 0.106089 6.6011 0.235754 6.6011L4.71507 6.6011L4.71507 11.0804C4.71507 11.2101 4.82116 11.3162 4.95083 11.3162L6.36535 11.3162C6.49501 11.3162 6.6011 11.2101 6.6011 11.0804L6.6011 6.6011L11.0804 6.6011C11.2101 6.6011 11.3162 6.49501 11.3162 6.36535L11.3162 4.95083C11.3162 4.82116 11.2101 4.71507 11.0804 4.71507Z" transform="translate(7.541992 7.544128)" id="Icon-Path" fill="#AFAFC6" stroke="none" />
    <path d="M0 13.2022C0 5.91152 5.91152 0 13.2022 0C20.4929 0 26.4044 5.91152 26.4044 13.2022C26.4044 20.4929 20.4929 26.4044 13.2022 26.4044C5.91152 26.4044 0 20.4929 0 13.2022ZM2.23926 13.2022C2.23926 19.2552 7.14883 24.1648 13.2018 24.1648C19.2548 24.1648 24.1644 19.2552 24.1644 13.2022C24.1644 7.14926 19.2548 2.23969 13.2018 2.23969C7.14883 2.23969 2.23926 7.14926 2.23926 13.2022Z" id="Icon-Shape" fill="#AFAFC6" fill-rule="evenodd" stroke="none" />
  </g>
</svg>