<?xml version="1.0" encoding="utf-8"?>
<svg width="7px" height="14px" viewBox="0 0 7 14" version="1.1" xmlns:xlink="http://www.w3.org/1999/xlink" xmlns="http://www.w3.org/2000/svg">
  <desc>Created with Lunacy</desc>
  <g id="Arrow-right---simple-line-icons-2" transform="matrix(1 2.145688E-07 2.145688E-07 -1 0 13.04395)">
    <path d="M0.446266 13.0437C0.497268 13.0437 0.550395 13.0331 0.605647 13.0118C0.660899 12.9906 0.709775 12.9587 0.752277 12.9162L0.752277 12.9162L6.8725 6.78324C6.9575 6.69824 7 6.59624 7 6.47723C7 6.35823 6.9575 6.25622 6.8725 6.17122L6.8725 6.17122L0.84153 0.127505C0.756527 0.0425015 0.652398 0 0.529144 0C0.40589 0 0.301761 0.0425015 0.216758 0.127505C0.131755 0.212508 0.0892532 0.316636 0.0892532 0.439891C0.0892532 0.563145 0.131755 0.667274 0.216758 0.752277L0.216758 0.752277L5.95446 6.47723L0.127505 12.3042C0.0425015 12.3892 0 12.4912 0 12.6102C0 12.7292 0.0425015 12.8312 0.127505 12.9162C0.170006 12.9587 0.218883 12.9906 0.274135 13.0118C0.329387 13.0331 0.386764 13.0437 0.446266 13.0437Z" id="" fill="#8181A5" stroke="none" />
  </g>
</svg>