<?xml version="1.0" encoding="utf-8"?>
<svg width="14px" height="8px" viewBox="0 0 14 8" version="1.1" xmlns:xlink="http://www.w3.org/1999/xlink" xmlns="http://www.w3.org/2000/svg">
  <desc>Created with Lunacy</desc>
  <g id="Arrow-right---simple-line-icons-2-Copy" transform="matrix(9.934766E-08 1 1 -9.934766E-08 0 0)">
    <path d="M0.510018 14C0.568306 14 0.629022 13.9886 0.692168 13.9658C0.755313 13.943 0.811172 13.9088 0.859745 13.8631L0.859745 13.8631L7.85428 7.28055C7.95143 7.18931 8 7.07983 8 6.9521C8 6.82437 7.95143 6.71489 7.85428 6.62366L7.85428 6.62366L0.961749 0.136852C0.864602 0.0456175 0.745598 0 0.604736 0C0.463874 0 0.344869 0.0456175 0.247723 0.136852C0.150577 0.228087 0.102004 0.33985 0.102004 0.472141C0.102004 0.604431 0.150577 0.716194 0.247723 0.807429L0.247723 0.807429L6.8051 6.9521L0.145719 13.2063C0.0485732 13.2975 0 13.407 0 13.5347C0 13.6624 0.0485732 13.7719 0.145719 13.8631C0.194293 13.9088 0.250152 13.943 0.313297 13.9658C0.376442 13.9886 0.442016 14 0.510018 14Z" id="" fill="#8181A5" stroke="none" />
  </g>
</svg>