<?xml version="1.0" encoding="utf-8"?>
<svg width="14px" height="25px" viewBox="0 0 14 25" version="1.1" xmlns:xlink="http://www.w3.org/1999/xlink" xmlns="http://www.w3.org/2000/svg">
  <desc>Created with Lunacy</desc>
  <g id="Icon" transform="translate(1 1)">
    <path d="M3.475 7.09152L3.475 16.0821C3.49661 17.45 4.61164 18.5476 5.97969 18.5476C7.34774 18.5476 8.46277 17.45 8.48438 16.0821L8.4925 4.29777C8.51106 2.76856 7.70587 1.34751 6.38454 0.577506C5.06322 -0.192502 3.42991 -0.192502 2.10859 0.577506C0.787263 1.34751 -0.0179258 2.76856 0.000627696 4.29777L0.000627696 16.1615C-0.0305305 18.3145 1.10024 20.3175 2.95979 21.4031C4.81933 22.4887 7.11942 22.4887 8.97897 21.4031C10.8385 20.3175 11.9693 18.3145 11.9381 16.1615L11.9381 5.07526" id="Icon-Path" fill="none" stroke="#C1C7D0" stroke-width="2" stroke-linecap="round" />
  </g>
</svg>