<?xml version="1.0" encoding="utf-8"?>
<!-- Generator: Adobe Illustrator 24.3.0, SVG Export Plug-In . SVG Version: 6.00 Build 0)  -->
<svg version="1.1" id="Icons" xmlns="http://www.w3.org/2000/svg" xmlns:xlink="http://www.w3.org/1999/xlink" x="0px" y="0px"
	 width="59px" height="40.5px" viewBox="0 0 59 40.5" style="enable-background:new 0 0 59 40.5;" xml:space="preserve">
<style type="text/css">
	.st0{fill:#989898;}
</style>
<path class="st0" d="M54.8,40.5H4.2c-2.3,0-4.2-1.9-4.2-4.2v-11h1.7v11c0,1.4,1.1,2.5,2.5,2.5h50.6c1.4,0,2.5-1.1,2.5-2.5v-32
	c0-1.4-1.1-2.5-2.5-2.5H4.2c-1.4,0-2.5,1.1-2.5,2.5V22H0V4.2C0,1.9,1.9,0,4.2,0h50.6C57.1,0,59,1.9,59,4.2v32
	C59,38.6,57.1,40.5,54.8,40.5z"/>
<path class="st0" d="M50.6,7.6h7.6v1.7h-7.6V7.6z"/>
<path class="st0" d="M0.8,7.6h46.4v1.7H0.8V7.6z"/>
<path class="st0" d="M0.8,15.2h57.3v1.7H0.8V15.2z"/>
<path class="st0" d="M5.1,34.6h17.7v1.7H5.1V34.6z"/>
<path class="st0" d="M5.1,30.3h9.3V32H5.1V30.3z"/>
</svg>
