<svg width="17" height="21" viewBox="0 0 17 21" fill="none" xmlns="http://www.w3.org/2000/svg">
<path fill-rule="evenodd" clip-rule="evenodd" d="M12.0312 20.0391C12.3698 20.0391 12.666 19.9219 12.9199 19.6875C13.1738 19.4531 13.3138 19.1667 13.3398 18.8281L14.8047 4.375H15.6641C15.8333 4.375 15.9798 4.31315 16.1035 4.18945C16.2272 4.06576 16.2891 3.91927 16.2891 3.75C16.2891 3.58073 16.2272 3.43424 16.1035 3.31055C15.9798 3.18685 15.8333 3.125 15.6641 3.125H11.2695V1.42578C11.2695 1.02214 11.1263 0.683594 10.8398 0.410156C10.5534 0.136719 10.2148 0 9.82422 0H6.46484C6.07422 0 5.73568 0.136719 5.44922 0.410156C5.16276 0.683594 5.01953 1.02214 5.01953 1.42578V3.125H0.625C0.455729 3.125 0.309245 3.18685 0.185547 3.31055C0.061849 3.43424 0 3.58073 0 3.75C0 3.91927 0.061849 4.06576 0.185547 4.18945C0.309245 4.31315 0.455729 4.375 0.625 4.375H1.48438L2.92969 18.8281C2.96875 19.1667 3.11523 19.4531 3.36914 19.6875C3.62305 19.9219 3.91927 20.0391 4.25781 20.0391H12.0312ZM10.0195 3.125H6.26953V1.42578C6.26953 1.3737 6.28906 1.32812 6.32812 1.28906C6.36719 1.25 6.41276 1.23047 6.46484 1.23047H9.82422C9.8763 1.23047 9.92188 1.25 9.96094 1.28906C10 1.32812 10.0195 1.3737 10.0195 1.42578V3.125ZM4.25781 18.7891H12.0312C12.0443 18.7891 12.0605 18.7826 12.0801 18.7695C12.0996 18.7565 12.1094 18.737 12.1094 18.7109L13.5352 4.375H2.75391L4.17969 18.7109C4.17969 18.724 4.18945 18.7402 4.20898 18.7598C4.22852 18.7793 4.24479 18.7891 4.25781 18.7891Z" fill="#1C1D21"/>
</svg>
