<svg xmlns="http://www.w3.org/2000/svg" width="18.999" height="19.075" viewBox="0 0 18.999 19.075">
  <g id="bi-pen_copy" data-name="bi-pen copy" transform="translate(-0.52 -0.405)">
    <g id="Icon">
      <g id="Icon_Group" data-name="Icon Group" transform="translate(0.521)">
        <path id="Icon_Shape" data-name="Icon Shape" d="M.4,17.325A1.354,1.354,0,0,1,.07,15.938l1.354-4.063a1.354,1.354,0,0,1,.328-.529L12.3.793a2.708,2.708,0,0,1,3.83,0l.794.794a2.709,2.709,0,0,1,0,3.83L6.375,15.969a1.36,1.36,0,0,1-.528.329L1.784,17.651A1.354,1.354,0,0,1,.4,17.325Z" transform="translate(-0.001 1.759)" fill="#73c2fb"/>
        <path id="Icon_Path" data-name="Icon Path" d="M6.574,1.551a.677.677,0,0,0-.959,0L1.157,6.013A.678.678,0,0,1,.2,5.055L4.659.6A2.031,2.031,0,0,1,7.533.6l.4.4a.677.677,0,0,1-.957.959l-.4-.4Z" transform="translate(5.416 1.082)" fill="#73c2fb"/>
        <path id="Icon_Path-2" data-name="Icon Path" d="M1.751.4A1.354,1.354,0,0,1,3.666.4l.041.041A1.354,1.354,0,0,1,3.747,2.31L2.031,4.179,0,2.147Z" transform="translate(14.896 0.405)" fill="#73c2fb"/>
      </g>
    </g>
  </g>
</svg>
