<svg width="13" height="8" viewBox="0 0 13 8" fill="none" xmlns="http://www.w3.org/2000/svg">
<path d="M6.25 7.5C6.51042 7.5 6.75781 7.38281 6.99219 7.14844L12.3047 1.05469L12.3828 0.9375C12.4609 0.859375 12.5 0.755208 12.5 0.625C12.5 0.442708 12.4349 0.292969 12.3047 0.175781C12.1745 0.0585938 12.0182 0 11.8359 0H0.664062C0.481771 0 0.325521 0.0585938 0.195312 0.175781C0.0651042 0.292969 0 0.442708 0 0.625C0 0.78125 0.0390625 0.898438 0.117188 0.976562L0.195312 1.05469L5.50781 7.14844C5.74219 7.38281 5.98958 7.5 6.25 7.5Z" fill="#8181A5"/>
</svg>
