<?xml version="1.0" encoding="utf-8"?>
<!-- Generator: Adobe Illustrator 16.0.0, SVG Export Plug-In . SVG Version: 6.00 Build 0)  -->
<!DOCTYPE svg PUBLIC "-//W3C//DTD SVG 1.1//EN" "http://www.w3.org/Graphics/SVG/1.1/DTD/svg11.dtd">
<svg version="1.1" id="Layer_1" xmlns="http://www.w3.org/2000/svg" xmlns:xlink="http://www.w3.org/1999/xlink" x="0px" y="0px"
	 width="13px" height="8px" viewBox="0 0 13 8" enable-background="new 0 0 13 8" xml:space="preserve">
<path fill="#8181A5" d="M6.25,0C5.99,0,5.742,0.117,5.508,0.352L0.195,6.445L0.117,6.563C0.039,6.641,0,6.745,0,6.875
	c0,0.183,0.064,0.332,0.195,0.449S0.482,7.5,0.664,7.5h11.172c0.183,0,0.339-0.059,0.469-0.176C12.436,7.207,12.5,7.058,12.5,6.875
	c0-0.156-0.039-0.273-0.117-0.352l-0.078-0.078L6.992,0.352C6.758,0.117,6.51,0,6.25,0z"/>
</svg>
