<svg width="18" height="18" viewBox="0 0 18 18" fill="none" xmlns="http://www.w3.org/2000/svg">
<path fill-rule="evenodd" clip-rule="evenodd" d="M15.7715 14.183C16.2001 14.183 16.5721 14.0317 16.8872 13.7292C17.2024 13.4266 17.36 13.061 17.36 12.6323V1.5885C17.36 1.15985 17.2024 0.787945 16.8872 0.472767C16.5721 0.157589 16.2001 0 15.7715 0H4.72767C4.29903 0 3.93342 0.157589 3.63085 0.472767C3.32828 0.787945 3.17699 1.15985 3.17699 1.5885V12.6323C3.17699 13.061 3.32828 13.4266 3.63085 13.7292C3.93342 14.0317 4.29903 14.183 4.72767 14.183H15.7715ZM15.7715 12.6323H4.72767V1.5885H15.7715V12.6323ZM14.183 15.7715V17.36H1.5885C1.15985 17.36 0.787945 17.2024 0.472767 16.8872C0.157589 16.5721 0 16.2001 0 15.7715V3.17699H1.5885V15.7715H14.183Z" fill="black"/>
</svg>
