<?xml version="1.0" encoding="utf-8"?>
<svg width="26px" height="25px" viewBox="0 0 26 25" version="1.1" xmlns:xlink="http://www.w3.org/1999/xlink" xmlns="http://www.w3.org/2000/svg">
  <desc>Created with Lunacy</desc>
  <g id="Icon">
    <path d="M24.75 12.5L23 12.5C22.8625 12.5 22.75 12.6125 22.75 12.75L22.75 22.75L2.25 22.75L2.25 2.25L12.25 2.25C12.3875 2.25 12.5 2.1375 12.5 2L12.5 0.25C12.5 0.1125 12.3875 0 12.25 0L1 0C0.446875 0 0 0.446875 0 1L0 24C0 24.5531 0.446875 25 1 25L24 25C24.5531 25 25 24.5531 25 24L25 12.75C25 12.6125 24.8875 12.5 24.75 12.5Z" id="Icon-Path" fill="#73c2fb" stroke="none" />
    <path d="M6.36705e-05 16.9312L0.0594387 13.2156C0.06051 13.1503 0.0861772 13.0878 0.131314 13.0406L13.1251 0.071875C13.1751 0.025 13.2376 0 13.3032 0C13.3688 0 13.4313 0.021875 13.4813 0.071875L17.3657 3.95313C17.4626 4.05 17.4626 4.20937 17.3657 4.30625L4.36881 17.275C4.32506 17.3188 4.26256 17.3438 4.20006 17.3469L0.512564 17.4375L0.500064 17.4375C0.221939 17.4375 -0.00306133 17.2094 6.36705e-05 16.9312ZM13.3032 2.71875L2.04381 13.9531L2.02194 15.4031L3.45006 15.3687L14.7157 4.12813L13.3032 2.71875Z" transform="translate(7.5625 0)" id="Icon-Shape" fill="#73c2fb" fill-rule="evenodd" stroke="none" />
  </g>
</svg>