<svg width="29" height="25" viewBox="0 0 29 25" fill="none" xmlns="http://www.w3.org/2000/svg">
<path fill-rule="evenodd" clip-rule="evenodd" d="M3.78261 0V7.5H1.26087V0H3.78261ZM5.04348 12.5C5.04348 13.8875 3.9213 15 2.52174 15C1.12902 15 0 13.8807 0 12.5C0 11.1193 1.12902 10 2.52174 10C3.91446 10 5.04348 11.1193 5.04348 12.5ZM1.26087 17.5V25H3.78261V17.5H1.26087ZM29 20C29 21.3875 27.8778 22.5 26.4783 22.5H11.3478C9.95511 22.5 8.82609 21.3807 8.82609 20V15L6.30435 12.5L8.82609 10V5C8.82609 3.61929 9.95511 2.5 11.3478 2.5H26.4783C27.8778 2.5 29 3.6125 29 5V20ZM11.3478 5H26.4783V20H11.3478V13.9625L9.87261 12.5L11.3478 11.0375V5ZM13.8696 8.75H23.9565V11.25H13.8696V8.75ZM21.4348 13.75H13.8696V16.25H21.4348V13.75Z" fill="black"/>
</svg>
