<?xml version="1.0" encoding="utf-8"?>
<!-- Generator: Adobe Illustrator 24.3.0, SVG Export Plug-In . SVG Version: 6.00 Build 0)  -->
<svg version="1.1" id="Layer_1" xmlns="http://www.w3.org/2000/svg" xmlns:xlink="http://www.w3.org/1999/xlink" x="0px" y="0px"
	 width="15px" height="14px" viewBox="0 0 15 14" style="enable-background:new 0 0 15 14;" xml:space="preserve">
<style type="text/css">
	.st0{fill:#8181A5;}
</style>
<path class="st0" d="M1.5,4H3v9.5C3,13.8,3.2,14,3.5,14h1C4.8,14,5,13.8,5,13.5V4h1.5c0.5,0,0.7-0.6,0.4-0.9l-2.5-3
	C4.3,0.1,4.1,0,4,0C3.9,0,3.7,0.1,3.6,0.1l-2.5,3C0.8,3.4,1,4,1.5,4z M14,8h-4C9.7,8,9.5,8.2,9.5,8.5v1C9.5,9.8,9.7,10,10,10h1.8
	l-1.9,2.2c-0.2,0.2-0.3,0.5-0.3,0.8v0.5c0,0.3,0.2,0.5,0.5,0.5h4c0.2,0,0.5-0.2,0.5-0.5v-1c0-0.2-0.2-0.5-0.5-0.5h-1.8l1.9-2.2
	c0.2-0.2,0.3-0.5,0.3-0.8V8.5C14.5,8.2,14.2,8,14,8z M15,5.3l-1.9-5C13,0.2,12.8,0,12.6,0h-1.3c-0.2,0-0.4,0.2-0.5,0.3L9,5.3
	c0,0.1,0,0.1,0,0.2C9,5.8,9.2,6,9.5,6h0.8c0.2,0,0.4-0.1,0.5-0.3l0.1-0.4h2.2l0.1,0.4C13.3,5.9,13.5,6,13.7,6h0.8
	C14.8,6,15,5.8,15,5.5C15,5.5,15,5.4,15,5.3z M11.5,3.5L12,2l0.5,1.5H11.5z"/>
</svg>
