<svg width="15" height="14" viewBox="0 0 15 14" fill="none" xmlns="http://www.w3.org/2000/svg">
<path opacity="0.270601" d="M6.5 10H5V0.5C5 0.25 4.75 0 4.5 0H3.5C3.21875 0 3 0.25 3 0.5V10H1.5C1.03125 10 0.8125 10.5625 1.125 10.875L3.625 13.875C3.71875 13.9375 3.875 14 4 14C4.09375 14 4.25 13.9375 4.34375 13.875L6.84375 10.875C7.15625 10.5625 6.9375 10 6.5 10ZM14 8H10C9.71875 8 9.5 8.25 9.5 8.5V9.5C9.5 9.78125 9.71875 10 10 10H11.75L9.8125 12.2188C9.625 12.375 9.5 12.7188 9.5 12.9688V13.5C9.5 13.7812 9.71875 14 10 14H14C14.25 14 14.5 13.7812 14.5 13.5V12.5C14.5 12.25 14.25 12 14 12H12.25L14.1562 9.8125C14.3438 9.65625 14.5 9.3125 14.5 9.0625V8.5C14.5 8.25 14.25 8 14 8ZM14.9688 5.34375L13.0938 0.34375C13.0312 0.15625 12.8125 0 12.625 0H11.3438C11.1562 0 10.9375 0.15625 10.875 0.34375L9 5.34375C9 5.40625 9 5.46875 9 5.5C9 5.78125 9.21875 6 9.5 6H10.25C10.4688 6 10.6875 5.875 10.75 5.65625L10.875 5.25H13.0938L13.2188 5.65625C13.2812 5.875 13.5 6 13.7188 6H14.5C14.75 6 14.9688 5.78125 14.9688 5.5C14.9688 5.46875 14.9688 5.40625 14.9688 5.34375ZM11.4688 3.5L12 2L12.5 3.5H11.4688Z" fill="#8181A5"/>
</svg>
