<?xml version="1.0" encoding="UTF-8"?>
<svg width="19px" height="16px" viewBox="0 0 19 16" version="1.1" xmlns="http://www.w3.org/2000/svg" xmlns:xlink="http://www.w3.org/1999/xlink">
    <title> 2 copy</title>
    <g id="R2S-Page-Components" stroke="none" stroke-width="1" fill="none" fill-rule="evenodd">
        <g id="Group-17" transform="translate(-30.000000, -110.000000)" fill="#8181A5" fill-rule="nonzero">
            <g id="-2-copy" transform="translate(30.000000, 110.000000)">
                <path d="M16.0714477,15.7143044 C17.4442172,15.7143044 18.5714507,14.587071 18.5714507,13.2143015 L18.5714507,5.35714924 C18.5714507,3.98437975 17.4442172,2.85714626 16.0714477,2.85714626 L8.57143879,2.85714626 L8.57143879,2.5 C8.57143879,1.12723349 7.4442053,0 6.07143581,0 L2.5,0 C1.12723349,0 0,1.12723349 0,2.5 L0,13.2143015 C0,14.587071 1.12723349,15.7143044 2.5,15.7143044 L16.0714477,15.7143044 Z M16.0714477,14.2857313 L2.50000298,14.2857313 C1.90848442,14.2857313 1.42857313,13.80582 1.42857313,13.2143015 L1.42857313,2.50000298 C1.42857313,1.90848442 1.90848442,1.42857313 2.50000298,1.42857313 L6.07143581,1.42857313 C6.66295437,1.42857313 7.14286566,1.90848442 7.14286566,2.50000298 L7.14286566,3.21428955 C7.14286566,3.80580811 7.62277694,4.28571939 8.21429551,4.28571939 L16.0714477,4.28571939 C16.6629663,4.28571939 17.1428776,4.76563068 17.1428776,5.35714924 L17.1428776,13.2143015 C17.1428776,13.80582 16.6629663,14.2857313 16.0714477,14.2857313 Z" id=""></path>
            </g>
        </g>
    </g>
</svg>