<svg width="19" height="16" viewBox="0 0 19 16" fill="none" xmlns="http://www.w3.org/2000/svg">
<path fill-rule="evenodd" clip-rule="evenodd" d="M18.5715 13.2143C18.5715 14.5871 17.4442 15.7143 16.0714 15.7143H2.5C1.12723 15.7143 0 14.5871 0 13.2143V2.5C0 1.12723 1.12723 0 2.5 0H6.07144C7.44421 0 8.57144 1.12723 8.57144 2.5V2.85715H16.0714C17.4442 2.85715 18.5715 3.98438 18.5715 5.35715V13.2143ZM2.5 14.2857H16.0714C16.663 14.2857 17.1429 13.8058 17.1429 13.2143V5.35715C17.1429 4.76563 16.663 4.28572 16.0714 4.28572H8.2143C7.62278 4.28572 7.14287 3.80581 7.14287 3.21429V2.5C7.14287 1.90848 6.66295 1.42857 6.07144 1.42857H2.5C1.90848 1.42857 1.42857 1.90848 1.42857 2.5V13.2143C1.42857 13.8058 1.90848 14.2857 2.5 14.2857Z" fill="#8181A5"/>
</svg>
