<svg width="22" height="16" viewBox="0 0 22 16" fill="none" xmlns="http://www.w3.org/2000/svg">
<path fill-rule="evenodd" clip-rule="evenodd" d="M14.6429 15.7143C15.6473 15.7143 16.8639 15.1339 17.5 14.3527L20.7924 10.3014C21.0938 9.92189 21.3058 9.45314 21.3058 8.96206C21.3058 8.69421 21.25 8.43751 21.1384 8.20313C20.8036 7.48885 20.0447 7.14287 19.2857 7.14287H17.1429V5.35715C17.1429 3.98438 16.0156 2.85715 14.6429 2.85715H8.57144V2.5C8.57144 1.12723 7.44421 0 6.07144 0H2.5C1.12723 0 0 1.12723 0 2.5V13.2143C0 14.5871 1.12723 15.7143 2.5 15.7143H14.6429ZM1.42857 12.0201V2.5C1.42857 1.90848 1.90848 1.42857 2.5 1.42857H6.07144C6.66295 1.42857 7.14287 1.90848 7.14287 2.5V3.21429C7.14287 3.80581 7.62278 4.28572 8.2143 4.28572H14.6429C15.2344 4.28572 15.7143 4.76563 15.7143 5.35715V7.14287H7.14287C6.12724 7.14287 4.93304 7.71206 4.28572 8.50447L1.42857 12.0201ZM2.5 14.2857H14.6429C15.2344 14.2857 16.0156 13.9174 16.3951 13.4487L19.6764 9.39733C19.7768 9.27456 19.8773 9.12948 19.8773 8.96206C19.8773 8.64956 19.5313 8.57144 19.2857 8.57144H7.14287C6.55135 8.57144 5.7701 8.93974 5.39063 9.39733L2.10938 13.4487C2.00893 13.5826 1.90848 13.7277 1.90848 13.8951C1.90848 14.2076 2.25447 14.2857 2.5 14.2857Z" fill="#5E81F4"/>
</svg>
