<?xml version="1.0" encoding="utf-8"?>
<!-- Generator: Adobe Illustrator 24.3.0, SVG Export Plug-In . SVG Version: 6.00 Build 0)  -->
<svg version="1.1" id="light" xmlns="http://www.w3.org/2000/svg" xmlns:xlink="http://www.w3.org/1999/xlink" x="0px" y="0px"
	 width="59px" height="44.2px" viewBox="0 0 59 44.2" style="enable-background:new 0 0 59 44.2;" xml:space="preserve">
<style type="text/css">
	.st0{fill:#989898;}
</style>
<g>
	<path class="st0" d="M52.9,44.2H6.1c-3.4,0-6.1-2.8-6.1-6.1v-32C0,2.8,2.8,0,6.1,0h46.7C56.2,0,59,2.8,59,6.1v32
		C59,41.5,56.2,44.2,52.9,44.2z M6.1,2.5c-2,0-3.7,1.7-3.7,3.7v32c0,2,1.7,3.7,3.7,3.7h46.7c2,0,3.7-1.7,3.7-3.7v-32
		c0-2-1.7-3.7-3.7-3.7H6.1z"/>
</g>
<g>
	<path class="st0" d="M18.4,22.1c-3.4,0-6.1-2.8-6.1-6.1s2.8-6.1,6.1-6.1s6.1,2.8,6.1,6.1S21.8,22.1,18.4,22.1z M18.4,12.3
		c-2,0-3.7,1.7-3.7,3.7s1.7,3.7,3.7,3.7s3.7-1.7,3.7-3.7S20.5,12.3,18.4,12.3z"/>
</g>
<g>
	<path class="st0" d="M28.3,34.4c-0.7,0-1.2-0.6-1.2-1.2v-2.5c0-2-1.7-3.7-3.7-3.7h-9.8c-2,0-3.7,1.7-3.7,3.7v2.5
		c0,0.7-0.6,1.2-1.2,1.2s-1.2-0.6-1.2-1.2v-2.5c0-3.4,2.8-6.1,6.1-6.1h9.8c3.4,0,6.1,2.8,6.1,6.1v2.5C29.5,33.9,28.9,34.4,28.3,34.4
		z"/>
</g>
<g>
	<path class="st0" d="M50.4,14.8H35.6c-0.7,0-1.2-0.6-1.2-1.2s0.6-1.2,1.2-1.2h14.8c0.7,0,1.2,0.6,1.2,1.2S51.1,14.8,50.4,14.8z"/>
</g>
<g>
	<path class="st0" d="M50.4,24.6H35.6c-0.7,0-1.2-0.6-1.2-1.2c0-0.7,0.6-1.2,1.2-1.2h14.8c0.7,0,1.2,0.6,1.2,1.2
		C51.6,24,51.1,24.6,50.4,24.6z"/>
</g>
<g>
	<path class="st0" d="M50.4,34.4H35.6c-0.7,0-1.2-0.6-1.2-1.2S35,32,35.6,32h14.8c0.7,0,1.2,0.6,1.2,1.2S51.1,34.4,50.4,34.4z"/>
</g>
</svg>
