<?xml version="1.0" encoding="utf-8"?>
<!-- Generator: Adobe Illustrator 24.3.0, SVG Export Plug-In . SVG Version: 6.00 Build 0)  -->
<svg version="1.1" id="Layer_1" xmlns="http://www.w3.org/2000/svg" xmlns:xlink="http://www.w3.org/1999/xlink" x="0px" y="0px"
	 width="24px" height="21px" viewBox="0 0 24 21" style="enable-background:new 0 0 24 21;" xml:space="preserve">
<style type="text/css">
	.st0{fill:#73C2FB;}
</style>
<g>
	<g>
		<path class="st0" d="M12,21c-0.8,0-1.6-0.1-2.3-0.3c-0.3-0.1-0.5-0.3-0.7-0.4c-0.1-0.2-0.3-0.4-0.3-0.7v-1.4
			c-0.6-0.3-1.3-0.6-1.8-1l-1.3,0.8c-0.3,0.1-0.6,0.2-0.8,0.1c-0.3-0.1-0.4-0.2-0.6-0.4c-1.1-1.1-1.9-2.5-2.3-4
			c-0.1-0.3-0.1-0.6,0-0.8c0.1-0.3,0.3-0.5,0.6-0.6l1.2-0.8c-0.1-0.7-0.1-1.4,0-2.1L2.5,8.8C2.3,8.6,2.1,8.5,2,8.2
			C2,8,1.9,7.7,2,7.4c0.5-1.5,1.3-2.9,2.3-4c0.2-0.2,0.4-0.3,0.6-0.4C5.2,3,5.5,3,5.8,3.1l1.3,0.8c0.6-0.4,1.1-0.8,1.8-1V1.5
			c0-0.3,0.1-0.5,0.3-0.7c0.2-0.3,0.4-0.4,0.6-0.4c1.6-0.3,3.1-0.3,4.6,0c0.3,0.1,0.5,0.3,0.7,0.4c0.1,0.2,0.2,0.4,0.2,0.7v1.4
			c0.6,0.3,1.3,0.6,1.8,1l1.3-0.8c0.3-0.1,0.6-0.2,0.8-0.1s0.4,0.2,0.6,0.4c1.1,1.2,1.9,2.5,2.3,4c0.1,0.3,0.1,0.6-0.1,0.8
			c-0.1,0.3-0.3,0.5-0.6,0.6l-1.2,0.8c0.1,0.7,0.1,1.4,0,2.1l1.3,0.8c0.3,0.1,0.4,0.3,0.5,0.6c0.1,0.3,0.1,0.5,0.1,0.8
			c-0.5,1.5-1.3,2.9-2.3,4c-0.2,0.2-0.4,0.3-0.6,0.4c-0.3,0.1-0.6,0.1-0.8-0.1L17,17.2c-0.6,0.4-1.1,0.8-1.8,1v1.4
			c0,0.3-0.1,0.5-0.3,0.7c-0.2,0.3-0.4,0.4-0.6,0.4C13.6,20.9,12.8,21,12,21z M10.2,19.4c1.2,0.3,2.4,0.3,3.6,0v-1.6
			c0-0.4,0.3-0.8,0.7-0.9c0.7-0.3,1.3-0.6,1.8-1.1c0.3-0.3,0.8-0.3,1.2-0.1l1.3,0.8c0.8-0.9,1.4-1.9,1.8-3.1l-1.3-0.8
			c-0.4-0.2-0.6-0.6-0.5-1c0.1-0.7,0.1-1.4,0-2.1c-0.1-0.4,0.1-0.8,0.5-1l1.3-0.8c-0.4-1.1-1-2.2-1.9-3.1l-1.3,0.8
			c-0.4,0.3-0.8,0.2-1.2-0.1c-0.5-0.4-1.1-0.8-1.8-1.1c-0.4-0.1-0.6-0.5-0.6-0.9V1.6c-1.2-0.3-2.4-0.3-3.6,0v1.6
			c0,0.4-0.3,0.8-0.7,0.9C8.9,4.4,8.3,4.8,7.8,5.2C7.4,5.4,6.9,5.5,6.6,5.3L5.3,4.5C4.4,5.4,3.8,6.4,3.4,7.7l1.9,1.1L5.3,9.3
			c-0.1,0.8-0.1,1.7,0,2.5l0.1,0.5l-1.9,1.1c0.4,1.2,1,2.3,1.9,3.1l1.3-0.8c0.4-0.3,0.8-0.2,1.2,0.1c0.6,0.4,1.2,0.8,1.8,1.1
			c0.4,0.1,0.6,0.5,0.6,0.9L10.2,19.4L10.2,19.4z M9,18.2L9,18.2L9,18.2z M15,18.2L15,18.2L15,18.2z M16.8,17L16.8,17L16.8,17z
			 M3.3,13.5L3.3,13.5C3.2,13.5,3.2,13.5,3.3,13.5z M20.8,7.6L20.8,7.6L20.8,7.6z M3.2,7.6L3.2,7.6L3.2,7.6z M7.3,4.1L7.3,4.1
			L7.3,4.1z M9,2.8L9,2.8L9,2.8z M15,2.8L15,2.8L15,2.8z M12,14.4c-1.1,0-1.9-0.4-2.7-1.1c-0.8-0.8-1.1-1.7-1.1-2.7
			c0-1.1,0.4-1.9,1.1-2.7C10.1,7.1,11,6.8,12,6.8s1.9,0.4,2.7,1.1l0,0c0.8,0.8,1.1,1.7,1.1,2.7c0,1.1-0.4,1.9-1.1,2.7
			C14,14,13.1,14.4,12,14.4z M12,8.1c-0.7,0-1.3,0.3-1.8,0.8c-0.5,0.5-0.8,1.1-0.8,1.8c0,0.7,0.3,1.3,0.8,1.8
			c0.5,0.5,1.1,0.8,1.8,0.8c0.7,0,1.3-0.3,1.8-0.8c0.5-0.5,0.8-1.1,0.8-1.8c0-0.7-0.3-1.3-0.8-1.8l0,0C13.3,8.3,12.7,8.1,12,8.1z"/>
	</g>
</g>
</svg>
