<?xml version="1.0" encoding="utf-8"?>
<svg width="42px" height="42px" viewBox="0 0 42 42" version="1.1" xmlns:xlink="http://www.w3.org/1999/xlink" xmlns="http://www.w3.org/2000/svg">
  <desc>Created with Lunacy</desc>
  <g id="Icon" transform="matrix(0.9205049 0.3907311 -0.3907311 0.9205049 12.40527 0)">
    <path d="M32 14L32 17.5909L27.6114 19.1591L26.5371 21.6364L28.64 25.75L26.0571 28.3182L21.8514 26.3182L19.3143 27.3409L17.8743 31.75L14.24 31.75L12.6629 27.3864L10.1714 26.3636L6.03429 28.4318L3.45143 25.8636L5.46286 21.6818L4.43429 19.2045L0 17.75L0 14.1364L4.38857 12.5909L5.41714 10.1136L3.33714 6L5.92 3.43182L10.1257 5.43182L12.6629 4.40909L14.1029 0L17.76 0L19.3371 4.36364L21.8286 5.38636L25.9657 3.31818L28.5486 5.88636L26.5371 10.0682L27.5657 12.5455L32 14ZM9.14286 15.8864C9.14286 19.6591 12.2057 22.7045 16 22.7045C19.7943 22.7045 22.8571 19.6591 22.8571 15.8864C22.8571 12.1136 19.7943 9.06818 16 9.06818C12.2057 9.06818 9.14286 12.1136 9.14286 15.8864Z" id="Icon-Shape" fill="#73c2fb" fill-rule="evenodd" stroke="none" />
  </g>
</svg>