<?xml version="1.0" encoding="utf-8"?>
<!-- Generator: Adobe Illustrator 24.3.0, SVG Export Plug-In . SVG Version: 6.00 Build 0)  -->
<svg version="1.1" id="Layer_1" xmlns="http://www.w3.org/2000/svg" xmlns:xlink="http://www.w3.org/1999/xlink" x="0px" y="0px"
	 width="42px" height="42px" viewBox="0 0 42 42" style="enable-background:new 0 0 42 42;" xml:space="preserve">
<style type="text/css">
	.st0{fill-rule:evenodd;clip-rule:evenodd;fill:#c1c7d0;}
</style>
<path class="st0" d="M32.9,22.3l0-2.7l3.5-3.1L35,13.2l-4.6,0.3l-1.9-1.9l0.3-4.6l-3.4-1.4l-3,3.5l-2.7,0l-3.1-3.5l-3.4,1.4l0.3,4.6
	l-1.9,1.9L6.9,13l-1.4,3.3L9,19.4l0,2.7l-3.5,3.1l1.4,3.4l4.6-0.3l1.9,1.9l-0.3,4.6l3.3,1.4l3-3.5l2.7,0l3.1,3.5l3.4-1.4l-0.3-4.6
	l2-1.9l4.7,0.3l1.4-3.3L32.9,22.3z M20.9,31.1c-5.6,0-10.2-4.6-10.2-10.2s4.6-10.2,10.2-10.2s10.2,4.6,10.2,10.2
	S26.6,31.1,20.9,31.1z"/>
</svg>
