<?xml version="1.0" encoding="UTF-8"?>
<svg width="12px" height="12px" viewBox="0 0 12 12" version="1.1" xmlns="http://www.w3.org/2000/svg" xmlns:xlink="http://www.w3.org/1999/xlink">
    <title>Google</title>
    <g id="R2S-Page-Components" stroke="none" stroke-width="1" fill="none" fill-rule="evenodd">
        <g id="Sign-Up" transform="translate(-316.000000, -761.000000)" fill="#8181A5" fill-rule="nonzero">
            <g id="Social" transform="translate(247.000000, 744.000000)">
                <g id="Icon" transform="translate(52.000000, 0.000000)">
                    <path d="M22.9601752,21.8118812 L22.9601752,24.1881188 C22.9601752,24.1881188 25.2500627,24.1850296 26.1824465,24.1850296 C25.6775429,25.7254851 24.8924522,26.5643563 22.9601752,26.5643563 C21.0047066,26.5643563 19.4784886,24.9685346 19.4784886,23 C19.4784886,21.0314654 21.0047066,19.4356437 22.9601752,19.4356437 C23.9940589,19.4356437 24.6617757,19.8014654 25.2742574,20.3113466 C25.764526,19.817802 25.7235719,19.7474654 26.9709009,18.5616633 C25.9120552,17.5914455 24.5047456,17 22.9601752,17 C19.6684471,17 17,19.6862771 17,23 C17,26.3136633 19.6684471,29 22.9601752,29 C27.8803882,29 29.0829864,24.6871287 28.6843038,21.8118812 L22.9601752,21.8118812 L22.9601752,21.8118812 Z" id="Google"></path>
                </g>
            </g>
        </g>
    </g>
</svg>