<?xml version="1.0" encoding="utf-8"?>
<!-- Generator: Adobe Illustrator 24.3.0, SVG Export Plug-In . SVG Version: 6.00 Build 0)  -->
<svg version="1.1" id="Layer_1" xmlns="http://www.w3.org/2000/svg" xmlns:xlink="http://www.w3.org/1999/xlink" x="0px" y="0px"
	 width="15px" height="15px" viewBox="0 0 15 15" style="enable-background:new 0 0 15 15;" xml:space="preserve">
<style type="text/css">
	.st0{fill:#C1C7D0;}
</style>
<path class="st0" d="M8,9.5c-0.3,0.1-0.7,0.1-1.1,0c0,0,0-0.1,0-0.1C7.3,9.5,7.7,9.5,8,9.5C8.1,9.4,8.1,9.5,8,9.5L8,9.5z M10.6,4.1
	c-0.3-0.5-0.8-0.9-1.4-1c0.1-0.1,0.1-0.2,0-0.3C8.1,2.3,6.5,2.2,5.5,3.2C4.8,3.9,4.7,5,4.7,5.4c0,0.9,0,0.9,0,0.9
	c0,0.1,0.2,0.1,0.2,0V5.5C4.9,4.7,5.6,4,6.4,4h2.2c0.8,0,1.5,0.7,1.5,1.5v0.8c0,0.1,0.2,0.1,0.2,0c0,0,0,0.1,0-1.2
	c0-0.3,0.1-0.6,0.3-0.8c0,0,0-0.1,0-0.1C10.7,4.2,10.6,4.2,10.6,4.1L10.6,4.1z M10.9,11.4v1c0,0.1-0.1,0.2-0.2,0.2H4.2
	c-0.1,0-0.2-0.1-0.2-0.2v-1c0-1,0.8-1.7,1.7-1.7c0.1,0,0.3,0,0.4-0.1c0.1,0,0.1,0,0.2,0c0.6,0.5,1.5,0.5,2.2,0c0.1,0,0.1-0.1,0.2,0
	C8.9,9.6,9,9.7,9.2,9.7C10.1,9.7,10.9,10.4,10.9,11.4z M9.4,11.9c0-0.1-0.1-0.2-0.2-0.2H8.7c-0.1,0-0.2,0.1-0.2,0.2
	C8.5,12,8.6,12,8.7,12h0.5C9.3,12,9.4,12,9.4,11.9z M8.6,4.3H6.4c-0.7,0-1.2,0.5-1.2,1.2v1.4c0,1.2,1,2.2,2.3,2.2
	c1.2,0,2.2-1,2.3-2.2V5.5C9.8,4.8,9.2,4.3,8.6,4.3L8.6,4.3z"/>
<g>
	<path class="st0" d="M7.5,1C11.1,1,14,3.9,14,7.5c0,3.6-2.9,6.5-6.5,6.5C3.9,14,1,11.1,1,7.5C1,3.9,3.9,1,7.5,1 M7.5,0L7.5,0
		C3.4,0,0,3.4,0,7.5v0C0,11.6,3.4,15,7.5,15h0c4.1,0,7.5-3.4,7.5-7.5v0C15,3.4,11.6,0,7.5,0L7.5,0z"/>
</g>
</svg>
