<?xml version="1.0" encoding="utf-8"?>
<svg width="13px" height="13px" viewBox="0 0 13 13" version="1.1" xmlns:xlink="http://www.w3.org/1999/xlink" xmlns="http://www.w3.org/2000/svg">
  <desc>Created with Lunacy</desc>
  <path d="M0 6.25C0 2.80375 2.80375 0 6.25 0C9.69625 0 12.5 2.80375 12.5 6.25C12.5 9.69625 9.69625 12.5 6.25 12.5C2.80375 12.5 0 9.69625 0 6.25ZM7.15039 7.23375C7.24414 7.14 7.36227 7.04563 7.48477 6.94688C7.97164 6.5525 8.70852 5.95687 8.70852 4.95875C8.70852 3.60313 7.60539 2.5 6.24977 2.5C4.89414 2.5 3.79102 3.60313 3.79102 4.95875L5.04102 4.95875C5.05578 4.30205 5.59228 3.77734 6.24915 3.77717C6.90601 3.777 7.44279 4.30143 7.45789 4.95813C7.45789 5.33187 7.15664 5.60313 6.69789 5.975C6.53914 6.10375 6.38789 6.2275 6.26602 6.34937C5.64289 6.9725 5.62477 7.63438 5.62477 7.70813L5.62477 7.8125L6.87477 7.8125L6.87477 7.72937C6.87539 7.71938 6.89539 7.48812 7.15039 7.23375ZM5.625 10L5.625 8.75L6.875 8.75L6.875 10L5.625 10Z" id="Icon-Shape" fill="#000000" fill-rule="evenodd" stroke="none" />
</svg>