<?xml version="1.0" encoding="utf-8"?>
<svg width="12px" height="16px" viewBox="0 0 12 16" version="1.1" xmlns:xlink="http://www.w3.org/1999/xlink" xmlns="http://www.w3.org/2000/svg">
  <desc>Created with Lunacy</desc>
  <g id="Icon">
    <path d="M8.925 5.84375L9.45 5.84375C10.6093 5.84503 11.5487 6.79568 11.55 7.96875L11.55 13.8125C11.5487 14.9856 10.6093 15.9362 9.45 15.9375L2.1 15.9375C0.940727 15.9362 0.00126588 14.9856 0 13.8125L0 7.96875C0.00126588 6.79568 0.940727 5.84503 2.1 5.84375L2.625 5.84375L2.625 3.1875C2.625 1.42709 4.0353 0 5.775 0C7.5147 0 8.925 1.42709 8.925 3.1875L8.925 5.84375ZM3.675 3.1875L3.675 5.84375L7.875 5.84375L7.875 3.1875C7.875 2.01389 6.9348 1.0625 5.775 1.0625C4.6152 1.0625 3.675 2.01389 3.675 3.1875Z" id="Icon-Shape" fill="#c1c7d0" fill-rule="evenodd" stroke="none" />
  </g>
</svg>