<?xml version="1.0" encoding="UTF-8"?>
<svg width="45px" height="23px" viewBox="0 0 45 23" version="1.1" xmlns="http://www.w3.org/2000/svg" xmlns:xlink="http://www.w3.org/1999/xlink">
    <title>Logo short</title>
    <g id="R2S-Page-Components" stroke="none" stroke-width="1" fill="none" fill-rule="evenodd">
        <g id="Documents-(5)---Collapsed-menu" transform="translate(-20.000000, -31.000000)">
            <g id="Logo-short-wehite" transform="translate(14.000000, 30.000000)">
                <g id="Group" transform="translate(6.620000, 1.580000)">
                    <circle id="Oval" fill="#ED5D7D" cx="42.38" cy="19.42" r="2"></circle>
                    <g id="r2s" transform="translate(0.000000, 0.000000)" fill-rule="nonzero">
                        <path d="M4.26,21.42 L4.26,14.43 C4.26,13.73 4.33,13.08 4.47,12.48 C4.61,11.88 4.845,11.355 5.175,10.905 C5.505,10.455 5.94,10.1 6.48,9.84 C7.02,9.58 7.68,9.45 8.46,9.45 C8.72,9.45 8.99,9.465 9.27,9.495 C9.55,9.525 9.79,9.56 9.99,9.6 L9.99,5.64 C9.65,5.54 9.34,5.49 9.06,5.49 C8.52,5.49 8,5.57 7.5,5.73 C7,5.89 6.53,6.115 6.09,6.405 C5.65,6.695 5.26,7.045 4.92,7.455 C4.58,7.865 4.31,8.31 4.11,8.79 L4.05,8.79 L4.05,5.91 L-1.77635684e-15,5.91 L-1.77635684e-15,21.42 L4.26,21.42 Z" id="r" fill="#FFFFFF"></path>
                        <path d="M25.35,21.42 L25.35,17.76 L15.42,17.76 C15.94,17.04 16.54,16.41 17.22,15.87 C17.9,15.33 18.6,14.825 19.32,14.355 C20.04,13.885 20.755,13.41 21.465,12.93 C22.175,12.45 22.81,11.915 23.37,11.325 C23.93,10.735 24.38,10.06 24.72,9.3 C25.06,8.54 25.23,7.63 25.23,6.57 C25.23,5.55 25.035,4.63 24.645,3.81 C24.255,2.99 23.73,2.3 23.07,1.74 C22.41,1.18 21.645,0.75 20.775,0.45 C19.905,0.15 18.99,9.46798195e-13 18.03,9.46798195e-13 C16.77,9.46798195e-13 15.655,0.215 14.685,0.645 C13.715,1.075 12.91,1.675 12.27,2.445 C11.63,3.215 11.15,4.115 10.83,5.145 C10.51,6.175 10.37,7.29 10.41,8.49 L14.49,8.49 C14.49,7.93 14.545,7.365 14.655,6.795 C14.765,6.225 14.95,5.705 15.21,5.235 C15.47,4.765 15.815,4.385 16.245,4.095 C16.675,3.805 17.2,3.66 17.82,3.66 C18.74,3.66 19.495,3.945 20.085,4.515 C20.675,5.085 20.97,5.88 20.97,6.9 C20.97,7.54 20.825,8.11 20.535,8.61 C20.245,9.11 19.885,9.56 19.455,9.96 C19.025,10.36 18.55,10.725 18.03,11.055 C17.51,11.385 17.02,11.71 16.56,12.03 C15.66,12.65 14.805,13.26 13.995,13.86 C13.185,14.46 12.48,15.115 11.88,15.825 C11.28,16.535 10.805,17.34 10.455,18.24 C10.105,19.14 9.93,20.2 9.93,21.42 L25.35,21.42 Z" id="2" fill="#ED5D7D"></path>
                        <path d="M33.39,21.81 C34.27,21.81 35.135,21.725 35.985,21.555 C36.835,21.385 37.59,21.09 38.25,20.67 C38.91,20.25 39.445,19.695 39.855,19.005 C40.265,18.315 40.47,17.46 40.47,16.44 C40.47,15.72 40.33,15.115 40.05,14.625 C39.77,14.135 39.4,13.725 38.94,13.395 C38.48,13.065 37.955,12.8 37.365,12.6 C36.775,12.4 36.17,12.23 35.55,12.09 C34.95,11.95 34.36,11.82 33.78,11.7 C33.2,11.58 32.685,11.445 32.235,11.295 C31.785,11.145 31.42,10.95 31.14,10.71 C30.86,10.47 30.72,10.16 30.72,9.78 C30.72,9.46 30.8,9.205 30.96,9.015 C31.12,8.825 31.315,8.68 31.545,8.58 C31.775,8.48 32.03,8.415 32.31,8.385 C32.59,8.355 32.85,8.34 33.09,8.34 C33.85,8.34 34.51,8.485 35.07,8.775 C35.63,9.065 35.94,9.62 36,10.44 L40.05,10.44 C39.97,9.48 39.725,8.685 39.315,8.055 C38.905,7.425 38.39,6.92 37.77,6.54 C37.15,6.16 36.445,5.89 35.655,5.73 C34.865,5.57 34.05,5.49 33.21,5.49 C32.37,5.49 31.55,5.565 30.75,5.715 C29.95,5.865 29.23,6.125 28.59,6.495 C27.95,6.865 27.435,7.37 27.045,8.01 C26.655,8.65 26.46,9.47 26.46,10.47 C26.46,11.15 26.6,11.725 26.88,12.195 C27.16,12.665 27.53,13.055 27.99,13.365 C28.45,13.675 28.975,13.925 29.565,14.115 C30.155,14.305 30.76,14.47 31.38,14.61 C32.9,14.93 34.085,15.25 34.935,15.57 C35.785,15.89 36.21,16.37 36.21,17.01 C36.21,17.39 36.12,17.705 35.94,17.955 C35.76,18.205 35.535,18.405 35.265,18.555 C34.995,18.705 34.695,18.815 34.365,18.885 C34.035,18.955 33.72,18.99 33.42,18.99 C33,18.99 32.595,18.94 32.205,18.84 C31.815,18.74 31.47,18.585 31.17,18.375 C30.87,18.165 30.625,17.895 30.435,17.565 C30.245,17.235 30.15,16.84 30.15,16.38 L26.1,16.38 C26.14,17.42 26.375,18.285 26.805,18.975 C27.235,19.665 27.785,20.22 28.455,20.64 C29.125,21.06 29.89,21.36 30.75,21.54 C31.61,21.72 32.49,21.81 33.39,21.81 Z" id="s" fill="#FFFFFF"></path>
                    </g>
                </g>
            </g>
        </g>
    </g>
</svg>