<?xml version="1.0" encoding="UTF-8"?>
<svg width="144px" height="28px" viewBox="0 0 144 28" version="1.1" xmlns="http://www.w3.org/2000/svg" xmlns:xlink="http://www.w3.org/1999/xlink">
    <title>R2S Logo</title>
    <g id="R2S-Page-Components" stroke="none" stroke-width="1" fill="none" fill-rule="evenodd">
        <g id="Documents-(1)---side-panel-colour" transform="translate(-49.000000, -31.000000)">
            <g id="Navigation-Web-/-Fullsize">
                <g id="R2S-Logo" transform="translate(49.000000, 31.000000)">
                    <g id="Group">
                        <g id="ready2sign" fill-rule="nonzero">
                            <path d="M4.26,21.42 L4.26,14.43 C4.26,13.73 4.33,13.08 4.47,12.48 C4.61,11.88 4.845,11.355 5.175,10.905 C5.505,10.455 5.94,10.1 6.48,9.84 C7.02,9.58 7.68,9.45 8.46,9.45 C8.72,9.45 8.99,9.465 9.27,9.495 C9.55,9.525 9.79,9.56 9.99,9.6 L9.99,5.64 C9.65,5.54 9.34,5.49 9.06,5.49 C8.52,5.49 8,5.57 7.5,5.73 C7,5.89 6.53,6.115 6.09,6.405 C5.65,6.695 5.26,7.045 4.92,7.455 C4.58,7.865 4.31,8.31 4.11,8.79 L4.05,8.79 L4.05,5.91 L-7.10542736e-15,5.91 L-7.10542736e-15,21.42 L4.26,21.42 Z M17.3,21.81 C19.06,21.81 20.56,21.41 21.8,20.61 C23.04,19.81 23.96,18.48 24.56,16.62 L20.81,16.62 C20.67,17.1 20.29,17.555 19.67,17.985 C19.05,18.415 18.31,18.63 17.45,18.63 C16.25,18.63 15.33,18.32 14.69,17.7 C14.05,17.08 13.7,16.08 13.64,14.7 L24.83,14.7 C24.91,13.5 24.81,12.35 24.53,11.25 C24.25,10.15 23.795,9.17 23.165,8.31 C22.535,7.45 21.73,6.765 20.75,6.255 C19.77,5.745 18.62,5.49 17.3,5.49 C16.12,5.49 15.045,5.7 14.075,6.12 C13.105,6.54 12.27,7.115 11.57,7.845 C10.87,8.575 10.33,9.44 9.95,10.44 C9.57,11.44 9.38,12.52 9.38,13.68 C9.38,14.88 9.565,15.98 9.935,16.98 C10.305,17.98 10.83,18.84 11.51,19.56 C12.19,20.28 13.02,20.835 14,21.225 C14.98,21.615 16.08,21.81 17.3,21.81 Z M20.57,12 L13.64,12 C13.66,11.7 13.725,11.36 13.835,10.98 C13.945,10.6 14.135,10.24 14.405,9.9 C14.675,9.56 15.035,9.275 15.485,9.045 C15.935,8.815 16.5,8.7 17.18,8.7 C18.22,8.7 18.995,8.98 19.505,9.54 C20.015,10.1 20.37,10.92 20.57,12 Z M30.97,21.81 C31.93,21.81 32.87,21.67 33.79,21.39 C34.71,21.11 35.51,20.62 36.19,19.92 C36.21,20.18 36.245,20.435 36.295,20.685 C36.345,20.935 36.41,21.18 36.49,21.42 L36.49,21.42 L40.81,21.42 C40.61,21.1 40.47,20.62 40.39,19.98 C40.31,19.34 40.27,18.67 40.27,17.97 L40.27,17.97 L40.27,9.9 C40.27,8.96 40.06,8.205 39.64,7.635 C39.22,7.065 38.68,6.62 38.02,6.3 C37.36,5.98 36.63,5.765 35.83,5.655 C35.03,5.545 34.24,5.49 33.46,5.49 C32.6,5.49 31.745,5.575 30.895,5.745 C30.045,5.915 29.28,6.2 28.6,6.6 C27.92,7 27.36,7.53 26.92,8.19 C26.48,8.85 26.23,9.68 26.17,10.68 L26.17,10.68 L30.43,10.68 C30.51,9.84 30.79,9.24 31.27,8.88 C31.75,8.52 32.41,8.34 33.25,8.34 C33.63,8.34 33.985,8.365 34.315,8.415 C34.645,8.465 34.935,8.565 35.185,8.715 C35.435,8.865 35.635,9.075 35.785,9.345 C35.935,9.615 36.01,9.98 36.01,10.44 C36.03,10.88 35.9,11.215 35.62,11.445 C35.34,11.675 34.96,11.85 34.48,11.97 C34,12.09 33.45,12.18 32.83,12.24 C32.21,12.3 31.58,12.38 30.94,12.48 C30.3,12.58 29.665,12.715 29.035,12.885 C28.405,13.055 27.845,13.31 27.355,13.65 C26.865,13.99 26.465,14.445 26.155,15.015 C25.845,15.585 25.69,16.31 25.69,17.19 C25.69,17.99 25.825,18.68 26.095,19.26 C26.365,19.84 26.74,20.32 27.22,20.7 C27.7,21.08 28.26,21.36 28.9,21.54 C29.54,21.72 30.23,21.81 30.97,21.81 Z M32.56,18.99 C32.22,18.99 31.89,18.96 31.57,18.9 C31.25,18.84 30.97,18.735 30.73,18.585 C30.49,18.435 30.3,18.23 30.16,17.97 C30.02,17.71 29.95,17.39 29.95,17.01 C29.95,16.61 30.02,16.28 30.16,16.02 C30.3,15.76 30.485,15.545 30.715,15.375 C30.945,15.205 31.215,15.07 31.525,14.97 C31.835,14.87 32.15,14.79 32.47,14.73 C32.81,14.67 33.15,14.62 33.49,14.58 C33.83,14.54 34.155,14.49 34.465,14.43 C34.775,14.37 35.065,14.295 35.335,14.205 C35.605,14.115 35.83,13.99 36.01,13.83 L36.01,13.83 L36.01,15.42 C36.01,15.66 35.985,15.98 35.935,16.38 C35.885,16.78 35.75,17.175 35.53,17.565 C35.31,17.955 34.97,18.29 34.51,18.57 C34.05,18.85 33.4,18.99 32.56,18.99 Z M48.87,21.81 C49.89,21.81 50.805,21.625 51.615,21.255 C52.425,20.885 53.08,20.28 53.58,19.44 L53.64,19.44 L53.64,21.42 L57.69,21.42 L57.69,-7.26529947e-13 L53.43,-7.26529947e-13 L53.43,7.8 L53.37,7.8 C52.89,7.04 52.235,6.465 51.405,6.075 C50.575,5.685 49.7,5.49 48.78,5.49 C47.64,5.49 46.64,5.715 45.78,6.165 C44.92,6.615 44.205,7.21 43.635,7.95 C43.065,8.69 42.635,9.545 42.345,10.515 C42.055,11.485 41.91,12.49 41.91,13.53 C41.91,14.61 42.055,15.65 42.345,16.65 C42.635,17.65 43.065,18.535 43.635,19.305 C44.205,20.075 44.93,20.685 45.81,21.135 C46.69,21.585 47.71,21.81 48.87,21.81 Z M49.92,18.63 C49.26,18.63 48.695,18.485 48.225,18.195 C47.755,17.905 47.365,17.525 47.055,17.055 C46.745,16.585 46.52,16.05 46.38,15.45 C46.24,14.85 46.17,14.25 46.17,13.65 C46.17,13.01 46.235,12.395 46.365,11.805 C46.495,11.215 46.705,10.69 46.995,10.23 C47.285,9.77 47.67,9.4 48.15,9.12 C48.63,8.84 49.22,8.7 49.92,8.7 C50.62,8.7 51.2,8.84 51.66,9.12 C52.12,9.4 52.495,9.765 52.785,10.215 C53.075,10.665 53.28,11.185 53.4,11.775 C53.52,12.365 53.58,12.98 53.58,13.62 C53.58,14.26 53.52,14.88 53.4,15.48 C53.28,16.08 53.08,16.615 52.8,17.085 C52.52,17.555 52.145,17.93 51.675,18.21 C51.205,18.49 50.62,18.63 49.92,18.63 Z M62.21,26.85 C63.67,26.85 64.81,26.58 65.63,26.04 C66.45,25.5 67.09,24.6 67.55,23.34 L74.03,5.91 L69.62,5.91 L66.23,16.53 L66.17,16.53 L62.66,5.91 L58.13,5.91 L63.56,20.46 C63.68,20.76 63.74,21.08 63.74,21.42 C63.74,21.88 63.605,22.3 63.335,22.68 C63.065,23.06 62.65,23.28 62.09,23.34 C61.67,23.36 61.25,23.35 60.83,23.31 C60.41,23.27 60,23.23 59.6,23.19 L59.6,26.7 C60.04,26.74 60.475,26.775 60.905,26.805 C61.335,26.835 61.77,26.85 62.21,26.85 Z" id="ready" fill="#FFFFFF"></path>
                            <path d="M88.9,21.42 L88.9,17.76 L78.97,17.76 C79.49,17.04 80.09,16.41 80.77,15.87 C81.45,15.33 82.15,14.825 82.87,14.355 C83.59,13.885 84.305,13.41 85.015,12.93 C85.725,12.45 86.36,11.915 86.92,11.325 C87.48,10.735 87.93,10.06 88.27,9.3 C88.61,8.54 88.78,7.63 88.78,6.57 C88.78,5.55 88.585,4.63 88.195,3.81 C87.805,2.99 87.28,2.3 86.62,1.74 C85.96,1.18 85.195,0.75 84.325,0.45 C83.455,0.15 82.54,9.46798195e-13 81.58,9.46798195e-13 C80.32,9.46798195e-13 79.205,0.215 78.235,0.645 C77.265,1.075 76.46,1.675 75.82,2.445 C75.18,3.215 74.7,4.115 74.38,5.145 C74.06,6.175 73.92,7.29 73.96,8.49 L78.04,8.49 C78.04,7.93 78.095,7.365 78.205,6.795 C78.315,6.225 78.5,5.705 78.76,5.235 C79.02,4.765 79.365,4.385 79.795,4.095 C80.225,3.805 80.75,3.66 81.37,3.66 C82.29,3.66 83.045,3.945 83.635,4.515 C84.225,5.085 84.52,5.88 84.52,6.9 C84.52,7.54 84.375,8.11 84.085,8.61 C83.795,9.11 83.435,9.56 83.005,9.96 C82.575,10.36 82.1,10.725 81.58,11.055 C81.06,11.385 80.57,11.71 80.11,12.03 C79.21,12.65 78.355,13.26 77.545,13.86 C76.735,14.46 76.03,15.115 75.43,15.825 C74.83,16.535 74.355,17.34 74.005,18.24 C73.655,19.14 73.48,20.2 73.48,21.42 L88.9,21.42 Z" id="2" fill="#ED5D7D"></path>
                            <path d="M96.69,21.81 C97.57,21.81 98.435,21.725 99.285,21.555 C100.135,21.385 100.89,21.09 101.55,20.67 C102.21,20.25 102.745,19.695 103.155,19.005 C103.565,18.315 103.77,17.46 103.77,16.44 C103.77,15.72 103.63,15.115 103.35,14.625 C103.07,14.135 102.7,13.725 102.24,13.395 C101.78,13.065 101.255,12.8 100.665,12.6 C100.075,12.4 99.47,12.23 98.85,12.09 C98.25,11.95 97.66,11.82 97.08,11.7 C96.5,11.58 95.985,11.445 95.535,11.295 C95.085,11.145 94.72,10.95 94.44,10.71 C94.16,10.47 94.02,10.16 94.02,9.78 C94.02,9.46 94.1,9.205 94.26,9.015 C94.42,8.825 94.615,8.68 94.845,8.58 C95.075,8.48 95.33,8.415 95.61,8.385 C95.89,8.355 96.15,8.34 96.39,8.34 C97.15,8.34 97.81,8.485 98.37,8.775 C98.93,9.065 99.24,9.62 99.3,10.44 L103.35,10.44 C103.27,9.48 103.025,8.685 102.615,8.055 C102.205,7.425 101.69,6.92 101.07,6.54 C100.45,6.16 99.745,5.89 98.955,5.73 C98.165,5.57 97.35,5.49 96.51,5.49 C95.67,5.49 94.85,5.565 94.05,5.715 C93.25,5.865 92.53,6.125 91.89,6.495 C91.25,6.865 90.735,7.37 90.345,8.01 C89.955,8.65 89.76,9.47 89.76,10.47 C89.76,11.15 89.9,11.725 90.18,12.195 C90.46,12.665 90.83,13.055 91.29,13.365 C91.75,13.675 92.275,13.925 92.865,14.115 C93.455,14.305 94.06,14.47 94.68,14.61 C96.2,14.93 97.385,15.25 98.235,15.57 C99.085,15.89 99.51,16.37 99.51,17.01 C99.51,17.39 99.42,17.705 99.24,17.955 C99.06,18.205 98.835,18.405 98.565,18.555 C98.295,18.705 97.995,18.815 97.665,18.885 C97.335,18.955 97.02,18.99 96.72,18.99 C96.3,18.99 95.895,18.94 95.505,18.84 C95.115,18.74 94.77,18.585 94.47,18.375 C94.17,18.165 93.925,17.895 93.735,17.565 C93.545,17.235 93.45,16.84 93.45,16.38 L89.4,16.38 C89.44,17.42 89.675,18.285 90.105,18.975 C90.535,19.665 91.085,20.22 91.755,20.64 C92.425,21.06 93.19,21.36 94.05,21.54 C94.91,21.72 95.79,21.81 96.69,21.81 Z M109.64,3.51 L109.64,2.18491891e-13 L105.38,2.18491891e-13 L105.38,3.51 L109.64,3.51 Z M109.64,21.42 L109.64,5.91 L105.38,5.91 L105.38,21.42 L109.64,21.42 Z M118.87,27.27 C120.65,27.27 122.07,27.03 123.13,26.55 C124.19,26.07 125,25.485 125.56,24.795 C126.12,24.105 126.485,23.36 126.655,22.56 C126.825,21.76 126.91,21.05 126.91,20.43 L126.91,5.91 L122.86,5.91 L122.86,7.98 L122.8,7.98 C122.28,7.08 121.635,6.44 120.865,6.06 C120.095,5.68 119.2,5.49 118.18,5.49 C117.1,5.49 116.145,5.7 115.315,6.12 C114.485,6.54 113.79,7.105 113.23,7.815 C112.67,8.525 112.245,9.345 111.955,10.275 C111.665,11.205 111.52,12.17 111.52,13.17 C111.52,14.23 111.645,15.235 111.895,16.185 C112.145,17.135 112.54,17.965 113.08,18.675 C113.62,19.385 114.31,19.945 115.15,20.355 C115.99,20.765 116.99,20.97 118.15,20.97 C119.09,20.97 119.985,20.775 120.835,20.385 C121.685,19.995 122.34,19.39 122.8,18.57 L122.86,18.57 L122.86,20.61 C122.88,21.71 122.615,22.62 122.065,23.34 C121.515,24.06 120.64,24.42 119.44,24.42 C118.68,24.42 118.01,24.265 117.43,23.955 C116.85,23.645 116.46,23.09 116.26,22.29 L112.03,22.29 C112.09,23.17 112.335,23.925 112.765,24.555 C113.195,25.185 113.735,25.7 114.385,26.1 C115.035,26.5 115.755,26.795 116.545,26.985 C117.335,27.175 118.11,27.27 118.87,27.27 Z M119.23,17.76 C118.57,17.76 118.02,17.62 117.58,17.34 C117.14,17.06 116.785,16.7 116.515,16.26 C116.245,15.82 116.055,15.325 115.945,14.775 C115.835,14.225 115.78,13.67 115.78,13.11 C115.78,12.53 115.845,11.975 115.975,11.445 C116.105,10.915 116.315,10.445 116.605,10.035 C116.895,9.625 117.255,9.3 117.685,9.06 C118.115,8.82 118.63,8.7 119.23,8.7 C119.93,8.7 120.51,8.83 120.97,9.09 C121.43,9.35 121.8,9.7 122.08,10.14 C122.36,10.58 122.56,11.085 122.68,11.655 C122.8,12.225 122.86,12.83 122.86,13.47 C122.86,14.03 122.785,14.565 122.635,15.075 C122.485,15.585 122.26,16.04 121.96,16.44 C121.66,16.84 121.28,17.16 120.82,17.4 C120.36,17.64 119.83,17.76 119.23,17.76 Z M133.59,21.42 L133.59,13.29 C133.59,11.71 133.85,10.575 134.37,9.885 C134.89,9.195 135.73,8.85 136.89,8.85 C137.91,8.85 138.62,9.165 139.02,9.795 C139.42,10.425 139.62,11.38 139.62,12.66 L139.62,21.42 L143.88,21.42 L143.88,11.88 C143.88,10.92 143.795,10.045 143.625,9.255 C143.455,8.465 143.16,7.795 142.74,7.245 C142.32,6.695 141.745,6.265 141.015,5.955 C140.285,5.645 139.35,5.49 138.21,5.49 C137.31,5.49 136.43,5.695 135.57,6.105 C134.71,6.515 134.01,7.17 133.47,8.07 L133.38,8.07 L133.38,5.91 L129.33,5.91 L129.33,21.42 L133.59,21.42 Z" id="sign" fill="#FFFFFF"></path>
                        </g>
                        <circle id="Oval" fill="#ED5D7D" cx="141.5" cy="24.5" r="2.5"></circle>
                    </g>
                </g>
            </g>
        </g>
    </g>
</svg>