<svg width="16" height="16" viewBox="0 0 16 16" fill="none" xmlns="http://www.w3.org/2000/svg">
<path fill-rule="evenodd" clip-rule="evenodd" d="M15.7031 15.7109C15.5052 15.9036 15.2708 16 15 16H6.5C6.21875 16 5.98177 15.9036 5.78906 15.7109C5.59635 15.5182 5.5 15.2812 5.5 15V10.4844H6.5V14.3906C6.5 14.5573 6.5599 14.7005 6.67969 14.8203C6.79948 14.9401 6.94271 15 7.10938 15H14.3906C14.5573 15 14.6979 14.9401 14.8125 14.8203C14.9271 14.7005 14.9844 14.5573 14.9844 14.3906L14.9688 1.60938C14.9688 1.44271 14.9115 1.29948 14.7969 1.17969C14.6823 1.0599 14.5417 1 14.375 1H7.10938C6.94271 1 6.79948 1.0599 6.67969 1.17969C6.5599 1.29948 6.5 1.44271 6.5 1.60938V5.5H5.5V1C5.5 0.71875 5.59635 0.481771 5.78906 0.289062C5.98177 0.0963542 6.21875 0 6.5 0H15C15.2708 0 15.5052 0.0963542 15.7031 0.289062C15.901 0.481771 16 0.71875 16 1V15C16 15.2812 15.901 15.5182 15.7031 15.7109ZM3.5 11.1484C3.4375 11.1745 3.375 11.1875 3.3125 11.1875C3.25 11.1875 3.1875 11.1745 3.125 11.1484C3.0625 11.1224 3.00521 11.0885 2.95312 11.0469L0 8.01562L2.95312 4.98438C3.05729 4.88021 3.17708 4.82812 3.3125 4.82812C3.44792 4.82812 3.56771 4.88021 3.67188 4.98438C3.76562 5.07812 3.8125 5.19531 3.8125 5.33594C3.8125 5.47656 3.76562 5.59375 3.67188 5.6875L1.85938 7.5H10.4844C10.6302 7.5 10.75 7.54688 10.8438 7.64062C10.9375 7.73438 10.9844 7.85417 10.9844 8C10.9844 8.13542 10.9375 8.2526 10.8438 8.35156C10.75 8.45052 10.6302 8.5 10.4844 8.5H1.82812L3.67188 10.3281C3.76562 10.4323 3.8125 10.5521 3.8125 10.6875C3.8125 10.8229 3.76562 10.9427 3.67188 11.0469C3.61979 11.0885 3.5625 11.1224 3.5 11.1484Z" fill="#1C1D21"/>
</svg>
