<?xml version="1.0" encoding="utf-8"?>
<svg width="24px" height="21px" viewBox="0 0 24 21" version="1.1" xmlns:xlink="http://www.w3.org/1999/xlink" xmlns="http://www.w3.org/2000/svg">
  <desc>Created with Lunacy</desc>
  <g id="Icon">
    <path d="M19.1184 11.0027L12.32 17.7514L12.32 20.0455L14.6272 20.0455L21.4144 13.2857M23.184 10.6686L21.7504 9.24318C21.6415 9.12356 21.4871 9.05488 21.3248 9.05386C21.1568 9.065 21 9.12068 20.888 9.24318L19.768 10.3568L22.064 12.5841L23.184 11.4705C23.3968 11.2477 23.3968 10.8914 23.184 10.6686M10.08 15.5909L2.24 15.5909L2.24 4.45455L11.2 10.0227L20.16 4.45455L20.16 6.68182L22.4 6.68182L22.4 2.22727C22.4 1.00227 21.392 0 20.16 0L2.24 0C1.008 0 0 1.00227 0 2.22727L0 15.5909C0 16.8159 1.008 17.8182 2.24 17.8182L10.08 17.8182L10.08 15.5909M20.16 2.22727L11.2 7.79545L2.24 2.22727L20.16 2.22727Z" id="Icon-Shape" fill="#C1C7D0" stroke="none" />
  </g>
</svg>