<?xml version="1.0" encoding="utf-8"?>
<svg width="12px" height="11px" viewBox="0 0 12 11" version="1.1" xmlns:xlink="http://www.w3.org/1999/xlink" xmlns="http://www.w3.org/2000/svg">
  <desc>Created with Lunacy</desc>
  <path d="M2.18315 10.674L2.18315 4.53479C2.18315 4.39316 2.17827 4.23809 2.1685 4.06959C2.15873 3.90109 2.14652 3.72893 2.13187 3.55311L2.13187 3.55311L4.96703 9.05493C5.05494 9.22587 5.17338 9.3553 5.32234 9.44321C5.47131 9.53113 5.64103 9.57508 5.8315 9.57508L5.8315 9.57508L6.1685 9.57508C6.35897 9.57508 6.52869 9.53113 6.67766 9.44321C6.82662 9.3553 6.94506 9.22587 7.03297 9.05493L7.03297 9.05493L9.86813 3.56776C9.8486 3.7387 9.83517 3.9072 9.82784 4.07326C9.82051 4.23931 9.81685 4.39316 9.81685 4.53479L9.81685 4.53479L9.81685 10.674L12 10.674L12 0L10.1099 0C10.0024 0 9.90842 0.002442 9.82784 0.007326C9.74725 0.01221 9.67521 0.026862 9.61172 0.051282C9.54823 0.075702 9.49084 0.113553 9.43956 0.164835C9.38828 0.216117 9.33822 0.288156 9.28938 0.380952L9.28938 0.380952L6.54945 5.77289C6.44689 5.95848 6.35043 6.15384 6.26007 6.35897C6.16972 6.5641 6.08303 6.77411 6 6.989C5.91697 6.77899 5.83028 6.57386 5.73993 6.37362C5.64957 6.17338 5.55556 5.98046 5.45788 5.79487L5.45788 5.79487L2.71062 0.380952C2.66178 0.288156 2.61172 0.216117 2.56044 0.164835C2.50916 0.113553 2.45177 0.075702 2.38828 0.051282C2.32479 0.026862 2.25275 0.01221 2.17216 0.007326C2.09158 0.002442 1.99756 0 1.89011 0L1.89011 0L0 0L0 10.674L2.18315 10.674Z" id="M" fill="#C1C7D0" stroke="none" />
</svg>