<?xml version="1.0" encoding="UTF-8"?>
<svg width="20px" height="16px" viewBox="0 0 20 16" version="1.1" xmlns="http://www.w3.org/2000/svg" xmlns:xlink="http://www.w3.org/1999/xlink">
    <title></title>
    <g id="Symbols" stroke="none" stroke-width="1" fill="none" fill-rule="evenodd">
        <g id="Navigation-Web-/-Top-Bar" transform="translate(-36.000000, -34.000000)" fill="#8181A5" fill-rule="nonzero">
            <g id="Group" transform="translate(28.000000, 24.000000)">
                <path d="M26.9648438,12.2734375 C27.0820312,12.2734375 27.1927083,12.2539062 27.296875,12.2148438 C27.4010417,12.1757812 27.4921875,12.1171875 27.5703125,12.0390625 C27.6484375,11.9479167 27.7070312,11.8535156 27.7460938,11.7558594 C27.7851562,11.6582031 27.8046875,11.5442708 27.8046875,11.4140625 C27.8046875,11.296875 27.7851562,11.1861979 27.7460938,11.0820312 C27.7070312,10.9778646 27.6484375,10.8867188 27.5703125,10.8085938 C27.4921875,10.7304688 27.4010417,10.671875 27.296875,10.6328125 C27.1927083,10.59375 27.0820312,10.5742188 26.9648438,10.5742188 L26.9648438,10.5742188 L9.1328125,10.5742188 C9.015625,10.5742188 8.90494792,10.59375 8.80078125,10.6328125 C8.69661458,10.671875 8.60546875,10.7304688 8.52734375,10.8085938 C8.44921875,10.8867188 8.390625,10.9778646 8.3515625,11.0820312 C8.3125,11.1861979 8.29296875,11.296875 8.29296875,11.4140625 C8.29296875,11.5442708 8.3125,11.6582031 8.3515625,11.7558594 C8.390625,11.8535156 8.44921875,11.9479167 8.52734375,12.0390625 C8.60546875,12.1171875 8.69661458,12.1757812 8.80078125,12.2148438 C8.90494792,12.2539062 9.015625,12.2734375 9.1328125,12.2734375 L9.1328125,12.2734375 L26.9648438,12.2734375 Z M26.9648438,19.0507812 C27.0820312,19.0507812 27.1927083,19.03125 27.296875,18.9921875 C27.4010417,18.953125 27.4921875,18.8945312 27.5703125,18.8164062 C27.6484375,18.7382812 27.7070312,18.6471354 27.7460938,18.5429688 C27.7851562,18.4388021 27.8046875,18.328125 27.8046875,18.2109375 C27.8046875,18.09375 27.7851562,17.9830729 27.7460938,17.8789062 C27.7070312,17.7747396 27.6484375,17.6835938 27.5703125,17.6054688 C27.4921875,17.5273438 27.4010417,17.46875 27.296875,17.4296875 C27.1927083,17.390625 27.0820312,17.3710938 26.9648438,17.3710938 L26.9648438,17.3710938 L9.1328125,17.3710938 C9.015625,17.3710938 8.90494792,17.390625 8.80078125,17.4296875 C8.69661458,17.46875 8.60546875,17.5273438 8.52734375,17.6054688 C8.44921875,17.6835938 8.390625,17.7747396 8.3515625,17.8789062 C8.3125,17.9830729 8.29296875,18.09375 8.29296875,18.2109375 C8.29296875,18.328125 8.3125,18.4388021 8.3515625,18.5429688 C8.390625,18.6471354 8.44921875,18.7382812 8.52734375,18.8164062 C8.60546875,18.8945312 8.69661458,18.953125 8.80078125,18.9921875 C8.90494792,19.03125 9.015625,19.0507812 9.1328125,19.0507812 L9.1328125,19.0507812 L26.9648438,19.0507812 Z M26.9648438,25.8476562 C27.0820312,25.8476562 27.1927083,25.828125 27.296875,25.7890625 C27.4010417,25.75 27.4921875,25.6914062 27.5703125,25.6132812 C27.6484375,25.5221354 27.7070312,25.4277344 27.7460938,25.3300781 C27.7851562,25.2324219 27.8046875,25.1184896 27.8046875,24.9882812 C27.8046875,24.8710938 27.7851562,24.7604167 27.7460938,24.65625 C27.7070312,24.5520833 27.6484375,24.4609375 27.5703125,24.3828125 C27.4921875,24.3046875 27.4010417,24.2460938 27.296875,24.2070312 C27.1927083,24.1679688 27.0820312,24.1484375 26.9648438,24.1484375 L26.9648438,24.1484375 L9.1328125,24.1484375 C9.015625,24.1484375 8.90494792,24.1679688 8.80078125,24.2070312 C8.69661458,24.2460938 8.60546875,24.3046875 8.52734375,24.3828125 C8.44921875,24.4609375 8.390625,24.5520833 8.3515625,24.65625 C8.3125,24.7604167 8.29296875,24.8710938 8.29296875,24.9882812 C8.29296875,25.1184896 8.3125,25.2324219 8.3515625,25.3300781 C8.390625,25.4277344 8.44921875,25.5221354 8.52734375,25.6132812 C8.60546875,25.6914062 8.69661458,25.75 8.80078125,25.7890625 C8.90494792,25.828125 9.015625,25.8476562 9.1328125,25.8476562 L9.1328125,25.8476562 L26.9648438,25.8476562 Z" id=""></path>
            </g>
        </g>
    </g>
</svg>