<?xml version="1.0" encoding="UTF-8"?>
<svg width="8px" height="14px" viewBox="0 0 8 14" version="1.1" xmlns="http://www.w3.org/2000/svg" xmlns:xlink="http://www.w3.org/1999/xlink">
    <title>Arrow-right - simple-line-icons 2</title>
    <g id="Symbols" stroke="none" stroke-width="1" fill="none" fill-rule="evenodd">
        <g id="Navigation-Web-/-Top-Bar" transform="translate(-13.000000, -35.000000)" fill="#8181A5" fill-rule="nonzero">
            <g id="Arrow-right---simple-line-icons-2" transform="translate(17.000000, 42.000000) scale(-1, 1) translate(-17.000000, -42.000000) translate(13.000000, 35.000000)">
                <path d="M0.612281563,13.1687158 C0.663283385,13.1687158 0.716410282,13.1580905 0.771662255,13.1368397 C0.826914229,13.1155889 0.875790974,13.0837128 0.918292492,13.0412113 L0.918292492,13.0412113 L7.03851107,6.90824226 C7.12351411,6.82323922 7.16601562,6.72123558 7.16601562,6.60223133 C7.16601562,6.48322708 7.12351411,6.38122344 7.03851107,6.2962204 L7.03851107,6.2962204 L1.00754568,0.252504554 C0.922542644,0.167501518 0.818413925,0.125 0.695159523,0.125 C0.571905121,0.125 0.467776402,0.167501518 0.382773366,0.252504554 C0.297770331,0.33750759 0.255268813,0.441636308 0.255268813,0.56489071 C0.255268813,0.688145112 0.297770331,0.792273831 0.382773366,0.877276867 L0.382773366,0.877276867 L6.12047828,6.60223133 L0.293520179,12.4291894 C0.208517143,12.5141925 0.166015625,12.6161961 0.166015625,12.7352004 C0.166015625,12.8542046 0.208517143,12.9562083 0.293520179,13.0412113 C0.336021697,13.0837128 0.384898442,13.1155889 0.440150416,13.1368397 C0.495402389,13.1580905 0.552779438,13.1687158 0.612281563,13.1687158 Z" id=""></path>
            </g>
        </g>
    </g>
</svg>