<?xml version="1.0" encoding="UTF-8"?>
<svg width="6px" height="20px" viewBox="0 0 6 20" version="1.1" xmlns="http://www.w3.org/2000/svg" xmlns:xlink="http://www.w3.org/1999/xlink">
    <title></title>
    <g id="R2S-Page-Components" stroke="none" stroke-width="1" fill="none" fill-rule="evenodd">
        <g id="Documents-(1)---side-panel-colour" transform="translate(-203.000000, -951.000000)" fill="#8181A5" fill-rule="nonzero">
            <g id="Navigation-Web-/-Fullsize">
                <path d="M213.558594,963.710938 C213.610677,963.697917 213.659505,963.684896 213.705078,963.671875 C213.750651,963.658854 213.799479,963.645833 213.851562,963.632812 C214.346354,963.515625 214.763021,963.277995 215.101562,962.919922 C215.440104,962.561849 215.648438,962.128906 215.726562,961.621094 C215.739583,961.595052 215.749349,961.575521 215.755859,961.5625 C215.76237,961.549479 215.765625,961.529948 215.765625,961.503906 L215.765625,961.503906 L215.765625,960.976562 C215.752604,960.9375 215.742839,960.898438 215.736328,960.859375 C215.729818,960.820312 215.720052,960.78125 215.707031,960.742188 C215.602865,960.234375 215.365234,959.807943 214.994141,959.462891 C214.623047,959.117839 214.183594,958.90625 213.675781,958.828125 C213.64974,958.815104 213.630208,958.805339 213.617188,958.798828 C213.604167,958.792318 213.584635,958.789062 213.558594,958.789062 L213.558594,958.789062 L213.03125,958.789062 C212.953125,958.802083 212.875,958.818359 212.796875,958.837891 C212.71875,958.857422 212.647135,958.880208 212.582031,958.90625 C212.009115,959.075521 211.563151,959.394531 211.244141,959.863281 C210.92513,960.332031 210.791667,960.872396 210.84375,961.484375 C210.869792,962.03125 211.08138,962.513021 211.478516,962.929688 C211.875651,963.346354 212.354167,963.59375 212.914062,963.671875 C212.927083,963.684896 212.946615,963.694661 212.972656,963.701172 C212.998698,963.707682 213.018229,963.710938 213.03125,963.710938 L213.03125,963.710938 L213.558594,963.710938 Z M199.085938,963.710938 C199.151042,963.697917 199.222656,963.681641 199.300781,963.662109 C199.378906,963.642578 199.450521,963.626302 199.515625,963.613281 C200.088542,963.44401 200.534505,963.121745 200.853516,962.646484 C201.172526,962.171224 201.3125,961.634115 201.273438,961.035156 C201.247396,960.488281 201.035807,960.003255 200.638672,959.580078 C200.241536,959.156901 199.763021,958.90625 199.203125,958.828125 C199.190104,958.815104 199.170573,958.805339 199.144531,958.798828 C199.11849,958.792318 199.098958,958.789062 199.085938,958.789062 L199.085938,958.789062 L198.558594,958.789062 C198.50651,958.802083 198.457682,958.815104 198.412109,958.828125 C198.366536,958.841146 198.324219,958.847656 198.285156,958.847656 C197.777344,958.964844 197.354167,959.205729 197.015625,959.570312 C196.677083,959.934896 196.46875,960.371094 196.390625,960.878906 C196.390625,960.891927 196.384115,960.908203 196.371094,960.927734 C196.358073,960.947266 196.351562,960.963542 196.351562,960.976562 L196.351562,960.976562 L196.351562,961.523438 C196.364583,961.588542 196.380859,961.653646 196.400391,961.71875 C196.419922,961.783854 196.436198,961.848958 196.449219,961.914062 C196.605469,962.408854 196.849609,962.802734 197.181641,963.095703 C197.513672,963.388672 197.933594,963.580729 198.441406,963.671875 C198.467448,963.684896 198.486979,963.694661 198.5,963.701172 C198.513021,963.707682 198.532552,963.710938 198.558594,963.710938 L198.558594,963.710938 L199.085938,963.710938 Z M206.332031,963.710938 C206.384115,963.697917 206.442708,963.684896 206.507812,963.671875 C206.572917,963.658854 206.63151,963.645833 206.683594,963.632812 C207.25651,963.489583 207.71224,963.180339 208.050781,962.705078 C208.389323,962.229818 208.545573,961.679688 208.519531,961.054688 C208.49349,960.507812 208.281901,960.022786 207.884766,959.599609 C207.48763,959.176432 207.009115,958.919271 206.449219,958.828125 C206.423177,958.815104 206.400391,958.805339 206.380859,958.798828 C206.361328,958.792318 206.345052,958.789062 206.332031,958.789062 L206.332031,958.789062 L205.785156,958.789062 C205.733073,958.802083 205.674479,958.815104 205.609375,958.828125 C205.544271,958.841146 205.485677,958.854167 205.433594,958.867188 C204.860677,959.010417 204.404948,959.319661 204.066406,959.794922 C203.727865,960.270182 203.571615,960.820312 203.597656,961.445312 C203.623698,961.992188 203.835286,962.480469 204.232422,962.910156 C204.629557,963.339844 205.108073,963.59375 205.667969,963.671875 C205.69401,963.671875 205.716797,963.678385 205.736328,963.691406 C205.755859,963.704427 205.772135,963.710938 205.785156,963.710938 L205.785156,963.710938 L206.332031,963.710938 Z" id="" transform="translate(206.058594, 961.250000) rotate(90.000000) translate(-206.058594, -961.250000) "></path>
            </g>
        </g>
    </g>
</svg>