<?xml version="1.0" encoding="utf-8"?>
<svg width="16px" height="16px" viewBox="0 0 16 16" version="1.1" xmlns:xlink="http://www.w3.org/1999/xlink" xmlns="http://www.w3.org/2000/svg">
  <desc>Created with Lunacy</desc>
  <g id="bi-arrows-move-copy">
    <g id="Icon">
      <g id="Icon-Group" transform="translate(1 1)">
        <path d="M5.5 0.5C5.5 0.223858 5.27614 0 5 0L0.5 0C0.223858 0 0 0.223858 0 0.5C0 0.776142 0.223858 1 0.5 1L5 1C5.27614 1 5.5 0.776142 5.5 0.5Z" transform="translate(0 6.5)" id="Icon-Path" fill="#D6DAE0" stroke="none" />
        <path d="M2.50089 0C2.63372 0 2.76109 0.0528521 2.85489 0.146894C2.94894 0.240698 3.00179 0.368067 3.00179 0.500894C3.00179 0.633721 2.94894 0.76109 2.85489 0.854894L1.20789 2.50089L2.85489 4.14689C2.98137 4.27337 3.03076 4.4577 2.98447 4.63047C2.93817 4.80323 2.80323 4.93817 2.63047 4.98447C2.4577 5.03076 2.27337 4.98137 2.14689 4.85489L0.146894 2.85489C0.0528521 2.76109 0 2.63372 0 2.50089C0 2.36807 0.0528521 2.2407 0.146894 2.14689L2.14689 0.146894C2.2407 0.0528521 2.36807 0 2.50089 0ZM9.00089 2.00089C8.72475 2.00089 8.50089 2.22475 8.50089 2.50089C8.50089 2.77704 8.72475 3.00089 9.00089 3.00089L13.5009 3.00089C13.777 3.00089 14.0009 2.77704 14.0009 2.50089C14.0009 2.22475 13.777 2.00089 13.5009 2.00089L9.00089 2.00089Z" transform="translate(-0.0008937837 4.499106)" id="Icon-Shape" fill="#D6DAE0" fill-rule="evenodd" stroke="none" />
        <path d="M5 0C4.86717 0 4.7398 0.0528521 4.646 0.146894C4.55196 0.240698 4.49911 0.368067 4.49911 0.500894C4.49911 0.633721 4.55196 0.76109 4.646 0.854894L6.293 2.50089L4.646 4.14689C4.45049 4.3424 4.45049 4.65938 4.646 4.85489C4.84151 5.0504 5.15849 5.0504 5.354 4.85489L7.354 2.85489C7.44804 2.76109 7.50089 2.63372 7.50089 2.50089C7.50089 2.36807 7.44804 2.2407 7.354 2.14689L5.354 0.146894C5.2602 0.0528521 5.13283 0 5 0ZM0 4.50089C0 4.22475 0.223858 4.00089 0.5 4.00089C0.776142 4.00089 1 4.22475 1 4.50089L1 9.00089C1 9.27704 0.776142 9.50089 0.5 9.50089C0.223858 9.50089 0 9.27704 0 9.00089L0 4.50089Z" transform="translate(6.5 4.499106)" id="Icon-Shape" fill="#D6DAE0" fill-rule="evenodd" stroke="none" />
        <path d="M2.00089 5C2.00089 5.27614 2.22475 5.5 2.50089 5.5C2.77704 5.5 3.00089 5.27614 3.00089 5L3.00089 0.5C3.00089 0.223858 2.77704 0 2.50089 0C2.22475 0 2.00089 0.223858 2.00089 0.5L2.00089 5ZM0 11.5C0 11.3672 0.0528521 11.2398 0.146894 11.146C0.240698 11.052 0.368067 10.9991 0.500894 10.9991C0.633721 10.9991 0.76109 11.052 0.854894 11.146L2.50089 12.793L4.14689 11.146C4.3424 10.9505 4.65938 10.9505 4.85489 11.146C5.0504 11.3415 5.0504 11.6585 4.85489 11.854L2.85489 13.854C2.76109 13.948 2.63372 14.0009 2.50089 14.0009C2.36807 14.0009 2.2407 13.948 2.14689 13.854L0.146894 11.854C0.0528521 11.7602 0 11.6328 0 11.5Z" transform="translate(4.499106 0)" id="Icon-Shape" fill="#D6DAE0" fill-rule="evenodd" stroke="none" />
        <path d="M0.146894 2.85489C0.0528521 2.76109 0 2.63372 0 2.50089C0 2.36807 0.0528521 2.2407 0.146894 2.14689L2.14689 0.146894C2.2407 0.0528521 2.36807 1.11022e-16 2.50089 0C2.63372 -1.11022e-16 2.76109 0.0528521 2.85489 0.146894L4.85489 2.14689C5.0504 2.3424 5.0504 2.65938 4.85489 2.85489C4.65938 3.0504 4.3424 3.0504 4.14689 2.85489L2.50089 1.20789L0.854894 2.85489C0.761089 2.94894 0.633721 3.00179 0.500894 3.00179C0.368066 3.00179 0.240698 2.94894 0.146894 2.85489Z" transform="translate(4.499106 -0.0008937837)" id="Icon-Path" fill="#D6DAE0" stroke="none" />
      </g>
    </g>
    <path d="M0 0L16 0L16 16L0 16L0 0Z" id="ViewBox" fill="none" stroke="none" />
  </g>
</svg>