<?xml version="1.0" encoding="utf-8"?>
<!-- Generator: Adobe Illustrator 16.0.0, SVG Export Plug-In . SVG Version: 6.00 Build 0)  -->
<!DOCTYPE svg PUBLIC "-//W3C//DTD SVG 1.1//EN" "http://www.w3.org/Graphics/SVG/1.1/DTD/svg11.dtd">
<svg version="1.1" id="Layer_1" xmlns="http://www.w3.org/2000/svg" xmlns:xlink="http://www.w3.org/1999/xlink" x="0px" y="0px"
	 width="16px" height="16px" viewBox="0 0 16 16" enable-background="new 0 0 16 16" xml:space="preserve">
<g id="Icon">
	<path id="Icon-Path" fill="#6B8BF5" d="M7.125,6.334H5.542v2.375H3.167v1.584h2.375v2.375h1.583v-2.375H9.5V8.709H7.125V6.334z"/>
	<path id="Icon-Shape" fill="#6B8BF5" d="M11.084,15.834h-9.5C0.71,15.834,0,15.123,0,14.25v-9.5c0-0.874,0.71-1.583,1.583-1.583
		h9.5c0.873,0,1.582,0.71,1.582,1.583v9.5C12.666,15.123,11.957,15.834,11.084,15.834z M11.084,4.75h-9.5v9.5h9.501L11.084,4.75z"/>
	<path id="Icon-Path_1_" fill="#6B8BF5" d="M14.25,0h-9.5v1.583h9.5v9.5h1.584v-9.5C15.834,0.71,15.123,0,14.25,0z"/>
</g>
</svg>
