<?xml version="1.0" encoding="UTF-8"?>
<svg width="22px" height="16px" viewBox="0 0 22 16" version="1.1" xmlns="http://www.w3.org/2000/svg" xmlns:xlink="http://www.w3.org/1999/xlink">
    <title> 2 copy</title>
    <g id="R2S-Page-Components" stroke="none" stroke-width="1" fill="none" fill-rule="evenodd">
        <g id="Group-17" transform="translate(-30.000000, -356.000000)" fill="#5E81F4" fill-rule="nonzero">
            <g id="-2-copy" transform="translate(30.000000, 356.000000)">
                <path d="M14.6428746,15.7143044 C15.6473401,15.7143044 16.8638594,15.1339466 17.5000209,14.3526957 L20.7924355,10.3013516 C21.0937751,9.92188683 21.305829,9.45313627 21.305829,8.96206426 C21.305829,8.69420679 21.2500253,8.43751006 21.1384181,8.20313478 C20.8035962,7.48884821 20.0446668,7.14286566 19.2857373,7.14286566 L17.1428776,7.14286566 L17.1428776,5.35714924 C17.1428776,3.98437975 16.0156441,2.85714626 14.6428746,2.85714626 L8.57143879,2.85714626 L8.57143879,2.5 C8.57143879,1.12723349 7.4442053,0 6.07143581,0 L2.5,0 C1.12723349,0 0,1.12723349 0,2.5 L0,13.2143015 C0,14.587071 1.12723349,15.7143044 2.5,15.7143044 L14.6428746,15.7143044 Z M1.42857313,12.0201036 L1.42857313,2.50000298 C1.42857313,1.90848442 1.90848442,1.42857313 2.50000298,1.42857313 L6.07143581,1.42857313 C6.66295437,1.42857313 7.14286566,1.90848442 7.14286566,2.50000298 L7.14286566,3.21428955 C7.14286566,3.80580811 7.62277694,4.28571939 8.21429551,4.28571939 L14.6428746,4.28571939 C15.2343932,4.28571939 15.7143044,4.76563068 15.7143044,5.35714924 L15.7143044,7.14286566 L7.14286566,7.14286566 C6.12723945,7.14286566 4.93304159,7.71206276 4.28571939,8.50447442 L1.42857313,12.0201036 Z M14.6428746,14.2857313 L2.50000298,14.2857313 C2.25446697,14.2857313 1.90848442,14.2076062 1.90848442,13.8951058 C1.90848442,13.7276949 2.00893097,13.5826055 2.10937751,13.4486767 L5.39063143,9.39733263 C5.77009616,8.9397428 6.5513471,8.57143879 7.14286566,8.57143879 L19.2857373,8.57143879 C19.5312733,8.57143879 19.8772558,8.64956388 19.8772558,8.96206426 C19.8772558,9.12947517 19.7768093,9.27456463 19.6763627,9.39733263 L16.3951088,13.4486767 C16.0156441,13.9174273 15.2343932,14.2857313 14.6428746,14.2857313 Z" id=""></path>
            </g>
        </g>
    </g>
</svg>