<svg width="56" height="65" viewBox="0 0 56 65" fill="none" xmlns="http://www.w3.org/2000/svg">
<path fill-rule="evenodd" clip-rule="evenodd" d="M55.2708 16.5402C54.7847 15.3795 54.2014 14.4606 53.5208 13.7835L42.1458 2.46652C41.4653 1.78943 40.5417 1.20908 39.375 0.725446C38.2083 0.241815 37.1389 0 36.1667 0H3.5C2.52778 0 1.70139 0.338542 1.02083 1.01562C0.340278 1.69271 0 2.51488 0 3.48214V61.5179C0 62.4851 0.340278 63.3073 1.02083 63.9844C1.70139 64.6615 2.52778 65 3.5 65H52.5C53.4722 65 54.2986 64.6615 54.9792 63.9844C55.6597 63.3073 56 62.4851 56 61.5179V19.7321C56 18.7649 55.7569 17.7009 55.2708 16.5402ZM37.3333 18.5714V4.93304C38.0382 5.17485 38.5365 5.44085 38.8281 5.73103L50.2396 17.0843C50.5312 17.3744 50.7986 17.8702 51.0417 18.5714H37.3333ZM51.3333 60.3571V23.2143H36.1667C35.1944 23.2143 34.3681 22.8757 33.6875 22.1987C33.0069 21.5216 32.6667 20.6994 32.6667 19.7321V4.64286H4.66667V60.3571H51.3333ZM35.6562 40.8789C34.4167 40.1535 33.3958 39.4764 32.5938 38.8477C30.3819 37.0582 28.6076 34.1806 27.2708 30.2148C27.5625 28.5463 27.7326 26.2249 27.7812 23.2506V22.1624C27.7812 22.0415 27.7691 21.9448 27.7448 21.8722C27.7934 21.8238 27.842 21.7271 27.8906 21.582C28.1094 20.4455 28 19.6233 27.5625 19.1155C27.2708 18.7528 26.8455 18.5714 26.2865 18.5714H25.4844C24.7309 18.5714 24.2205 19.0551 23.9531 20.0223C23.6372 21.2314 23.5582 22.773 23.7161 24.647C23.8741 26.5211 24.2448 28.4496 24.8281 30.4325C23.9531 33.4794 22.6892 36.6471 21.0365 39.9358C19.6997 42.6442 18.3993 45.026 17.1354 47.0815C17.1354 47.0331 17.1111 46.9847 17.0625 46.9364C16.8438 46.5737 16.5642 46.5011 16.224 46.7188C14.158 47.8069 12.5538 48.9737 11.4115 50.219C10.2691 51.4644 9.58854 52.5707 9.36979 53.5379C9.27257 54.1667 9.34549 54.6019 9.58854 54.8438C9.71007 54.9405 9.78299 55.0009 9.80729 55.0251L10.6823 55.4604C10.9983 55.6297 11.3385 55.7143 11.7031 55.7143C13.8663 55.7143 16.8073 52.5465 20.526 46.2109C24.6823 44.7842 29.4462 43.7807 34.8177 43.2003C36.349 43.9983 37.9288 44.6391 39.5573 45.1228C41.1858 45.6064 42.5833 45.8482 43.75 45.8482C45.3299 45.8482 46.1927 45.3888 46.3385 44.4699V44.4336L46.4115 44.361C46.4358 44.3369 46.4479 44.3127 46.4479 44.2885C46.7882 43.5631 46.7639 42.9343 46.375 42.4023C45.6458 41.2174 43.4948 40.625 39.9219 40.625C38.5122 40.625 37.0903 40.7096 35.6562 40.8789ZM11.5938 53.7556C12.8576 53.1752 14.5226 51.2649 16.5885 48.0246C15.349 48.9918 14.2856 50.0074 13.3984 51.0714C12.5113 52.1354 11.9097 53.0301 11.5938 53.7556ZM26.0312 25.173C25.7153 22.9967 25.7396 21.4007 26.1042 20.385V20.3125C26.1285 20.2883 26.1406 20.2641 26.1406 20.24C26.4323 20.5785 26.5903 21.0138 26.6146 21.5458C26.6146 21.5699 26.6267 21.6062 26.651 21.6546C26.651 21.6788 26.6632 21.7029 26.6875 21.7271C26.6146 21.8238 26.566 21.9206 26.5417 22.0173C26.3715 22.9846 26.2865 23.5045 26.2865 23.577C26.1406 24.4717 26.0556 25.0037 26.0312 25.173ZM21.5833 44.361C24.8646 43.0552 28.316 42.0759 31.9375 41.423C31.8889 41.3988 31.7309 41.2839 31.4635 41.0784C31.1962 40.8729 31.0017 40.7096 30.8802 40.5887C29.033 38.9686 27.4896 36.8406 26.25 34.2048C25.5938 36.2844 24.5851 38.6663 23.224 41.3504C22.4948 42.7046 21.9479 43.7081 21.5833 44.361ZM40.0312 42.9102C42.8507 42.9102 44.5521 43.2003 45.1354 43.7807C45.184 43.8291 45.2083 43.8653 45.2083 43.8895C45.1111 43.9137 44.8924 43.9258 44.5521 43.9258C43.3854 43.9258 41.8785 43.5872 40.0312 42.9102Z" fill="#FF808B"/>
</svg>
