<svg xmlns="http://www.w3.org/2000/svg" width="23.999" height="23.844" viewBox="0 0 23.999 23.844">
  <g id="Icon" transform="translate(-0.999 -1.006)">
    <g id="Icon_Group" data-name="Icon Group" transform="translate(1 0.5)">
      <path id="Icon_Shape" data-name="Icon Shape" d="M.5,21.656a1.682,1.682,0,0,1-.413-1.733L1.8,14.845a1.7,1.7,0,0,1,.414-.662L15.543.991a3.447,3.447,0,0,1,4.838,0l1,.992a3.361,3.361,0,0,1,0,4.787L8.052,19.961a1.7,1.7,0,0,1-.667.41L2.254,22.064A1.723,1.723,0,0,1,.5,21.656Z" transform="translate(-0.001 2.199)" fill="#fff"/>
      <path id="Icon_Path" data-name="Icon Path" d="M8.3,1.939a.862.862,0,0,0-1.211,0L1.462,7.517a.863.863,0,0,1-1.211,0,.841.841,0,0,1,0-1.2L5.885.744a2.585,2.585,0,0,1,3.63,0l.5.494a.841.841,0,0,1,0,1.2.862.862,0,0,1-1.21,0l-.5-.5Z" transform="translate(6.841 1.352)" fill="#fff"/>
      <path id="Icon_Path-2" data-name="Icon Path" d="M2.212.5A1.723,1.723,0,0,1,4.63.5l.051.051a1.68,1.68,0,0,1,.051,2.341L2.566,5.223,0,2.684Z" transform="translate(18.816 0.506)" fill="#fff"/>
    </g>
  </g>
</svg>
