<svg id="ion-print-outline" xmlns="http://www.w3.org/2000/svg" width="32" height="32" viewBox="0 0 32 32">
  <g id="Icon">
    <path id="Icon_Path" data-name="Icon Path" d="M20,15h1.5A2.508,2.508,0,0,0,24,12.5V2.5A2.508,2.508,0,0,0,21.5,0H2.5A2.507,2.507,0,0,0,0,2.5v10A2.508,2.508,0,0,0,2.5,15H4" transform="translate(4 8)" fill="none" stroke="#000" stroke-linejoin="round" stroke-miterlimit="10" stroke-width="2"/>
    <rect id="Icon_Rectangle" data-name="Icon Rectangle" width="16" height="13" rx="1.52" transform="translate(8 15)" fill="none" stroke="#000" stroke-linejoin="round" stroke-miterlimit="10" stroke-width="2"/>
    <path id="Icon_Path-2" data-name="Icon Path" d="M16,4V2.5A2.508,2.508,0,0,0,13.5,0H2.5A2.507,2.507,0,0,0,0,2.5V4" transform="translate(8 4)" fill="none" stroke="#000" stroke-linejoin="round" stroke-miterlimit="10" stroke-width="2"/>
    <circle id="Icon_Oval" data-name="Icon Oval" cx="1.5" cy="1.5" r="1.5" transform="translate(23 10)"/>
  </g>
  <rect id="ViewBox" width="32" height="32" fill="none"/>
</svg>
