<?xml version="1.0" encoding="utf-8"?>
<!-- Generator: Adobe Illustrator 24.3.0, SVG Export Plug-In . SVG Version: 6.00 Build 0)  -->
<svg version="1.1" id="Layer_1" xmlns="http://www.w3.org/2000/svg" xmlns:xlink="http://www.w3.org/1999/xlink" x="0px" y="0px"
	 width="35px" height="35px" viewBox="0 0 35 35" style="enable-background:new 0 0 35 35;" xml:space="preserve">
<style type="text/css">
	.st0{fill:#020203;}
</style>
<path id="_x32_5_x25_" class="st0" d="M19,3.3l0.1,0v2.9l0,0c5.6,0.7,10,5.6,10,11.5c0,6.4-5.1,11.6-11.4,11.6
	c-5.8,0-10.6-4.4-11.3-10.1l0,0l-2.9,0l0,0c0.7,7.4,6.8,13.1,14.2,13.1c7.9,0,14.3-6.5,14.3-14.5C32,10.2,26.3,4,19,3.3z"/>
<path class="st0" d="M8.7,6.7l2.1,2.1c1.7-1.3,3.6-2.1,5.6-2.3l0-3C13.6,3.7,10.9,4.8,8.7,6.7L8.7,6.7z"/>
<path class="st0" d="M3.4,16.4l2.9,0c0.3-2,1.1-3.9,2.4-5.6L6.6,8.7C4.8,11,3.7,13.7,3.4,16.4L3.4,16.4z"/>
<polygon class="st0" points="11.2,18.3 12.7,16.8 15.7,19.9 22.7,12.8 24.2,14.3 15.7,22.9 "/>
</svg>
