<?xml version="1.0" encoding="utf-8"?>
<!-- Generator: Adobe Illustrator 24.3.0, SVG Export Plug-In . SVG Version: 6.00 Build 0)  -->
<svg version="1.1" id="Layer_1" xmlns="http://www.w3.org/2000/svg" xmlns:xlink="http://www.w3.org/1999/xlink" x="0px" y="0px"
	 width="35px" height="35px" viewBox="0 0 35 35" style="enable-background:new 0 0 35 35;" xml:space="preserve">
<style type="text/css">
	.st0{fill:#020203;}
</style>
<path id="_x31_00_x25_" class="st0" d="M17.7,3.3C9.8,3.3,3.4,9.8,3.4,17.9c0,8,6.4,14.5,14.3,14.5S32,25.9,32,17.9
	C32,9.8,25.6,3.3,17.7,3.3z M17.7,29.4c-6.3,0-11.4-5.2-11.4-11.6c0-6.4,5.1-11.6,11.4-11.6s11.4,5.2,11.4,11.6
	C29.1,24.2,24,29.4,17.7,29.4z"/>
<polygon class="st0" points="11.2,18.3 12.7,16.8 15.7,19.9 22.7,12.8 24.2,14.3 15.7,22.9 "/>
</svg>
