<?xml version="1.0" encoding="utf-8"?>
<!-- Generator: Adobe Illustrator 24.3.0, SVG Export Plug-In . SVG Version: 6.00 Build 0)  -->
<svg version="1.1" id="Layer_1" xmlns="http://www.w3.org/2000/svg" xmlns:xlink="http://www.w3.org/1999/xlink" x="0px" y="0px"
	 width="35px" height="35px" viewBox="0 0 35 35" style="enable-background:new 0 0 35 35;" xml:space="preserve">
<style type="text/css">
	.st0{fill:#020203;}
</style>
<g id="_x37_5_x25_">
	<path class="st0" d="M3.4,16.4l2.9,0c0.3-2.1,1.1-4,2.3-5.6L6.6,8.7C4.8,10.9,3.7,13.5,3.4,16.4L3.4,16.4z"/>
	<path class="st0" d="M6.6,27l2-2.1c-1.2-1.6-2-3.5-2.3-5.6l-3,0C3.7,22.2,4.8,24.9,6.6,27L6.6,27z"/>
	<path class="st0" d="M19.1,32.2l0,0.1c2.9-0.3,5.6-1.4,7.7-3.2L24.6,27c-1.6,1.2-3.5,2.1-5.6,2.3V32.2z"/>
	<path class="st0" d="M16.2,32.3v-2.9l0-0.1c-2.1-0.3-4-1.1-5.5-2.3l-2.1,2l0,0C10.7,30.9,13.3,32.1,16.2,32.3L16.2,32.3z"/>
	<path class="st0" d="M19.6,3.5l-0.1,3c5.4,0.9,9.5,5.7,9.5,11.4c0,2.8-1,5.4-2.6,7.4l2,2.1c2.2-2.5,3.5-5.9,3.5-9.5
		C32,10.5,26.6,4.5,19.6,3.5z"/>
	<path class="st0" d="M16.4,3.4c-2.9,0.3-5.6,1.5-7.8,3.3l2.1,2.1c1.6-1.3,3.6-2.1,5.7-2.4L16.4,3.4z"/>
</g>
<polygon class="st0" points="11,18 12.5,16.4 15.5,19.5 22.5,12.4 24,14 15.5,22.6 "/>
</svg>
