<svg id="mdi-progress-check" xmlns="http://www.w3.org/2000/svg" width="35" height="35" viewBox="0 0 35 35">
  <g id="Icon" transform="translate(3 3)">
    <path id="Icon_Shape" data-name="Icon Shape" d="M5.161,25.61,7.2,23.629a11.314,11.314,0,0,0,5.56,2.357v2.893A14.155,14.155,0,0,1,5.161,25.61Zm10.452.274A11.482,11.482,0,0,0,25.537,15.82a11.526,11.526,0,0,0-9.923-12.9V0A14.329,14.329,0,0,1,28.374,12.972a14.373,14.373,0,0,1-12.761,15.8ZM.014,15.863H2.866A11.662,11.662,0,0,0,5.19,21.5L3.165,23.571A14.632,14.632,0,0,1,.014,15.863Zm7.671-.984L9.2,13.347l3.023,3.066,6.958-7.057,1.512,1.533-8.47,8.59ZM0,12.972A14.4,14.4,0,0,1,3.151,5.264L5.19,7.331a11.681,11.681,0,0,0-2.338,5.64ZM5.161,3.225a13.911,13.911,0,0,1,7.6-3.181V2.936A11.316,11.316,0,0,0,7.2,5.365Z" transform="translate(0.023 0.583)"/>
  </g>
  <rect id="ViewBox" width="35" height="35" fill="none"/>
</svg>
