<?xml version="1.0" encoding="UTF-8"?>
<svg width="295px" height="57px" viewBox="0 0 295 57" version="1.1" xmlns="http://www.w3.org/2000/svg" xmlns:xlink="http://www.w3.org/1999/xlink">
    <title>R2S Logo</title>
    <g id="R2S-Page-Components" stroke="none" stroke-width="1" fill="none" fill-rule="evenodd">
        <g id="Sign-Up" transform="translate(-247.000000, -80.000000)">
            <g id="R2S-Logo" transform="translate(233.000000, 64.000000)">
                <g id="Group" transform="translate(14.310127, 16.363636)">
                    <g id="ready2sign" fill-rule="nonzero">
                        <path d="M8.70873418,43.8136364 L8.70873418,29.5159091 C8.70873418,28.0840909 8.85183544,26.7545455 9.13803797,25.5272727 C9.42424051,24.3 9.9046519,23.2261364 10.5792722,22.3056818 C11.2538924,21.3852273 12.1431646,20.6590909 13.2470886,20.1272727 C14.3510127,19.5954545 15.7002532,19.3295455 17.2948101,19.3295455 C17.8263291,19.3295455 18.3782911,19.3602273 18.9506962,19.4215909 C19.5231013,19.4829545 20.0137342,19.5545455 20.4225949,19.6363636 L20.4225949,11.5363636 C19.7275316,11.3318182 19.0937975,11.2295455 18.5213924,11.2295455 C17.4174684,11.2295455 16.3544304,11.3931818 15.3322785,11.7204545 C14.3101266,12.0477273 13.3493038,12.5079545 12.4498101,13.1011364 C11.5503165,13.6943182 10.753038,14.4102273 10.0579747,15.2488636 C9.36291139,16.0875 8.81094937,16.9977273 8.40208861,17.9795455 L8.27943038,17.9795455 L8.27943038,12.0886364 L-1.45256521e-14,12.0886364 L-1.45256521e-14,43.8136364 L8.70873418,43.8136364 Z M35.3664557,44.6113636 C38.9644304,44.6113636 42.0308861,43.7931818 44.5658228,42.1568182 C47.1007595,40.5204545 48.981519,37.8 50.2081013,33.9954545 L42.541962,33.9954545 C42.2557595,34.9772727 41.4789241,35.9079545 40.2114557,36.7875 C38.9439873,37.6670455 37.4312025,38.1068182 35.6731013,38.1068182 C33.2199367,38.1068182 31.3391772,37.4727273 30.0308228,36.2045455 C28.7224684,34.9363636 28.006962,32.8909091 27.8843038,30.0681818 L50.7600633,30.0681818 C50.9236076,27.6136364 50.7191772,25.2613636 50.1467722,23.0113636 C49.5743671,20.7613636 48.6442089,18.7568182 47.3562975,16.9977273 C46.0683861,15.2386364 44.4227215,13.8375 42.4193038,12.7943182 C40.4158861,11.7511364 38.0649367,11.2295455 35.3664557,11.2295455 C32.9541772,11.2295455 30.7565506,11.6590909 28.7735759,12.5181818 C26.7906013,13.3772727 25.0836076,14.5534091 23.6525949,16.0465909 C22.2215823,17.5397727 21.1176582,19.3090909 20.3408228,21.3545455 C19.5639873,23.4 19.1755696,25.6090909 19.1755696,27.9818182 C19.1755696,30.4363636 19.5537658,32.6863636 20.3101582,34.7318182 C21.0665506,36.7772727 22.1398101,38.5363636 23.5299367,40.0090909 C24.9200633,41.4818182 26.6168354,42.6170455 28.6202532,43.4147727 C30.6236709,44.2125 32.8724051,44.6113636 35.3664557,44.6113636 Z M42.0513291,24.5454545 L27.8843038,24.5454545 C27.9251899,23.9318182 28.0580696,23.2363636 28.282943,22.4590909 C28.5078165,21.6818182 28.8962342,20.9454545 29.4481962,20.25 C30.0001582,19.5545455 30.7361076,18.9715909 31.6560443,18.5011364 C32.575981,18.0306818 33.7310127,17.7954545 35.1211392,17.7954545 C37.2472152,17.7954545 38.8315506,18.3681818 39.8741456,19.5136364 C40.9167405,20.6590909 41.6424684,22.3363636 42.0513291,24.5454545 Z M63.3120886,44.6113636 C65.2746203,44.6113636 67.1962658,44.325 69.0770253,43.7522727 C70.9577848,43.1795455 72.5932278,42.1772727 73.9833544,40.7454545 C74.0242405,41.2772727 74.0957911,41.7988636 74.1980063,42.3102273 C74.3002215,42.8215909 74.4331013,43.3227273 74.5966456,43.8136364 L74.5966456,43.8136364 L83.428038,43.8136364 C83.0191772,43.1590909 82.7329747,42.1772727 82.5694304,40.8681818 C82.4058861,39.5590909 82.3241139,38.1886364 82.3241139,36.7568182 L82.3241139,36.7568182 L82.3241139,20.25 C82.3241139,18.3272727 81.8948101,16.7829545 81.0362025,15.6170455 C80.1775949,14.4511364 79.0736709,13.5409091 77.7244304,12.8863636 C76.3751899,12.2318182 74.8828481,11.7920455 73.2474051,11.5670455 C71.611962,11.3420455 69.996962,11.2295455 68.4024051,11.2295455 C66.6443038,11.2295455 64.8964241,11.4034091 63.1587658,11.7511364 C61.4211076,12.0988636 59.8572152,12.6818182 58.4670886,13.5 C57.076962,14.3181818 55.9321519,15.4022727 55.0326582,16.7522727 C54.1331646,18.1022727 53.6220886,19.8 53.4994304,21.8454545 L53.4994304,21.8454545 L62.2081646,21.8454545 C62.3717089,20.1272727 62.9441139,18.9 63.9253797,18.1636364 C64.9066456,17.4272727 66.2558861,17.0590909 67.9731013,17.0590909 C68.7499367,17.0590909 69.4756646,17.1102273 70.1502848,17.2125 C70.8249051,17.3147727 71.4177532,17.5193182 71.9288291,17.8261364 C72.4399051,18.1329545 72.8487658,18.5625 73.1554114,19.1147727 C73.462057,19.6670455 73.6153797,20.4136364 73.6153797,21.3545455 C73.6562658,22.2545455 73.3905063,22.9397727 72.8181013,23.4102273 C72.2456962,23.8806818 71.4688608,24.2386364 70.4875949,24.4840909 C69.5063291,24.7295455 68.381962,24.9136364 67.1144937,25.0363636 C65.8470253,25.1590909 64.5591139,25.3227273 63.2507595,25.5272727 C61.9424051,25.7318182 60.6442722,26.0079545 59.3563608,26.3556818 C58.0684494,26.7034091 56.9236392,27.225 55.9219304,27.9204545 C54.9202215,28.6159091 54.1025,29.5465909 53.4687658,30.7125 C52.8350316,31.8784091 52.5181646,33.3613636 52.5181646,35.1613636 C52.5181646,36.7977273 52.7941456,38.2090909 53.3461076,39.3954545 C53.8980696,40.5818182 54.6646835,41.5636364 55.6459494,42.3409091 C56.6272152,43.1181818 57.7720253,43.6909091 59.0803797,44.0590909 C60.3887342,44.4272727 61.7993038,44.6113636 63.3120886,44.6113636 Z M66.5625316,38.8431818 C65.8674684,38.8431818 65.1928481,38.7818182 64.5386709,38.6590909 C63.8844937,38.5363636 63.3120886,38.3215909 62.8214557,38.0147727 C62.3308228,37.7079545 61.9424051,37.2886364 61.6562025,36.7568182 C61.37,36.225 61.2268987,35.5704545 61.2268987,34.7931818 C61.2268987,33.975 61.37,33.3 61.6562025,32.7681818 C61.9424051,32.2363636 62.3206013,31.7965909 62.7907911,31.4488636 C63.260981,31.1011364 63.812943,30.825 64.4466772,30.6204545 C65.0804114,30.4159091 65.7243671,30.2522727 66.3785443,30.1295455 C67.0736076,30.0068182 67.7686709,29.9045455 68.4637342,29.8227273 C69.1587975,29.7409091 69.8231962,29.6386364 70.4569304,29.5159091 C71.0906646,29.3931818 71.6835127,29.2397727 72.2354747,29.0556818 C72.7874367,28.8715909 73.2474051,28.6159091 73.6153797,28.2886364 L73.6153797,28.2886364 L73.6153797,31.5409091 C73.6153797,32.0318182 73.5642722,32.6863636 73.462057,33.5045455 C73.3598418,34.3227273 73.0838608,35.1306818 72.6341139,35.9284091 C72.1843671,36.7261364 71.4893038,37.4113636 70.5489241,37.9840909 C69.6085443,38.5568182 68.2797468,38.8431818 66.5625316,38.8431818 Z M99.9051266,44.6113636 C101.990316,44.6113636 103.860854,44.2329545 105.516741,43.4761364 C107.172627,42.7193182 108.511646,41.4818182 109.533797,39.7636364 L109.656456,39.7636364 L109.656456,43.8136364 L117.935886,43.8136364 L117.935886,-1.48608398e-12 L109.227152,-1.48608398e-12 L109.227152,15.9545455 L109.104494,15.9545455 C108.123228,14.4 106.784209,13.2238636 105.087437,12.4261364 C103.390665,11.6284091 101.601899,11.2295455 99.7211392,11.2295455 C97.3906329,11.2295455 95.3463291,11.6897727 93.5882278,12.6102273 C91.8301266,13.5306818 90.3684494,14.7477273 89.2031962,16.2613636 C88.037943,17.775 87.1588924,19.5238636 86.5660443,21.5079545 C85.9731962,23.4920455 85.6767722,25.5477273 85.6767722,27.675 C85.6767722,29.8840909 85.9731962,32.0113636 86.5660443,34.0568182 C87.1588924,36.1022727 88.037943,37.9125 89.2031962,39.4875 C90.3684494,41.0625 91.8505696,42.3102273 93.649557,43.2306818 C95.4485443,44.1511364 97.5337342,44.6113636 99.9051266,44.6113636 Z M102.051646,38.1068182 C100.702405,38.1068182 99.5473734,37.8102273 98.5865506,37.2170455 C97.6257278,36.6238636 96.8284494,35.8465909 96.1947152,34.8852273 C95.560981,33.9238636 95.1010127,32.8295455 94.8148101,31.6022727 C94.5286076,30.375 94.3855063,29.1477273 94.3855063,27.9204545 C94.3855063,26.6113636 94.5183861,25.3534091 94.7841456,24.1465909 C95.0499051,22.9397727 95.4792089,21.8659091 96.072057,20.925 C96.6649051,19.9840909 97.451962,19.2272727 98.4332278,18.6545455 C99.4144937,18.0818182 100.620633,17.7954545 102.051646,17.7954545 C103.482658,17.7954545 104.668354,18.0818182 105.608734,18.6545455 C106.549114,19.2272727 107.315728,19.9738636 107.908576,20.8943182 C108.501424,21.8147727 108.920506,22.8784091 109.165823,24.0852273 C109.411139,25.2920455 109.533797,26.55 109.533797,27.8590909 C109.533797,29.1681818 109.411139,30.4363636 109.165823,31.6636364 C108.920506,32.8909091 108.511646,33.9852273 107.939241,34.9465909 C107.366835,35.9079545 106.600222,36.675 105.639399,37.2477273 C104.678576,37.8204545 103.482658,38.1068182 102.051646,38.1068182 Z M127.176139,54.9204545 C130.160823,54.9204545 132.491329,54.3681818 134.167658,53.2636364 C135.843987,52.1590909 137.152342,50.3181818 138.092722,47.7409091 L151.33981,12.0886364 L142.32443,12.0886364 L135.394241,33.8113636 L135.271582,33.8113636 L128.096076,12.0886364 L118.83538,12.0886364 L129.935949,41.85 C130.181266,42.4636364 130.303924,43.1181818 130.303924,43.8136364 C130.303924,44.7545455 130.027943,45.6136364 129.475981,46.3909091 C128.924019,47.1681818 128.075633,47.6181818 126.930823,47.7409091 C126.072215,47.7818182 125.213608,47.7613636 124.355,47.6795455 C123.496392,47.5977273 122.658228,47.5159091 121.840506,47.4340909 L121.840506,54.6136364 C122.74,54.6954545 123.629272,54.7670455 124.508323,54.8284091 C125.387373,54.8897727 126.276646,54.9204545 127.176139,54.9204545 Z" id="ready" fill="#000000"></path>
                        <path d="M181.738608,43.8136364 L181.738608,36.3272727 L161.438671,36.3272727 C162.501709,34.8545455 163.728291,33.5659091 165.118418,32.4613636 C166.508544,31.3568182 167.939557,30.3238636 169.411456,29.3625 C170.883354,28.4011364 172.345032,27.4295455 173.796487,26.4477273 C175.247943,25.4659091 176.546076,24.3715909 177.690886,23.1647727 C178.835696,21.9579545 179.755633,20.5772727 180.450696,19.0227273 C181.145759,17.4681818 181.493291,15.6068182 181.493291,13.4386364 C181.493291,11.3522727 181.094652,9.47045455 180.297373,7.79318182 C179.500095,6.11590909 178.426835,4.70454545 177.077595,3.55909091 C175.728354,2.41363636 174.164462,1.53409091 172.385918,0.920454545 C170.607373,0.306818182 168.736835,1.93663267e-12 166.774304,1.93663267e-12 C164.198481,1.93663267e-12 161.919082,0.439772727 159.936108,1.31931818 C157.953133,2.19886364 156.307468,3.42613636 154.999114,5.00113636 C153.690759,6.57613636 152.709494,8.41704545 152.055316,10.5238636 C151.401139,12.6306818 151.114937,14.9113636 151.196709,17.3659091 L159.537468,17.3659091 C159.537468,16.2204545 159.649905,15.0647727 159.874778,13.8988636 C160.099652,12.7329545 160.477848,11.6693182 161.009367,10.7079545 C161.540886,9.74659091 162.246171,8.96931818 163.125222,8.37613636 C164.004272,7.78295455 165.077532,7.48636364 166.345,7.48636364 C168.225759,7.48636364 169.769209,8.06931818 170.975348,9.23522727 C172.181487,10.4011364 172.784557,12.0272727 172.784557,14.1136364 C172.784557,15.4227273 172.488133,16.5886364 171.895285,17.6113636 C171.302437,18.6340909 170.566487,19.5545455 169.687437,20.3727273 C168.808386,21.1909091 167.837342,21.9375 166.774304,22.6125 C165.711266,23.2875 164.709557,23.9522727 163.769177,24.6068182 C161.929304,25.875 160.181424,27.1227273 158.525538,28.35 C156.869652,29.5772727 155.428418,30.9170455 154.201835,32.3693182 C152.975253,33.8215909 152.004209,35.4681818 151.288703,37.3090909 C150.573196,39.15 150.215443,41.3181818 150.215443,43.8136364 L181.738608,43.8136364 Z" id="2" fill="#ED5D7D"></path>
                        <path d="M197.663734,44.6113636 C199.462722,44.6113636 201.231044,44.4375 202.968703,44.0897727 C204.706361,43.7420455 206.24981,43.1386364 207.599051,42.2795455 C208.948291,41.4204545 210.041994,40.2852273 210.880158,38.8738636 C211.718323,37.4625 212.137405,35.7136364 212.137405,33.6272727 C212.137405,32.1545455 211.851203,30.9170455 211.278797,29.9147727 C210.706392,28.9125 209.95,28.0738636 209.00962,27.3988636 C208.069241,26.7238636 206.995981,26.1818182 205.789842,25.7727273 C204.583703,25.3636364 203.346899,25.0159091 202.07943,24.7295455 C200.852848,24.4431818 199.646709,24.1772727 198.461013,23.9318182 C197.275316,23.6863636 196.2225,23.4102273 195.302563,23.1034091 C194.382627,22.7965909 193.636456,22.3977273 193.064051,21.9068182 C192.491646,21.4159091 192.205443,20.7818182 192.205443,20.0045455 C192.205443,19.35 192.368987,18.8284091 192.696076,18.4397727 C193.023165,18.0511364 193.421804,17.7545455 193.891994,17.55 C194.362184,17.3454545 194.883481,17.2125 195.455886,17.1511364 C196.028291,17.0897727 196.55981,17.0590909 197.050443,17.0590909 C198.604114,17.0590909 199.953354,17.3556818 201.098165,17.9488636 C202.242975,18.5420455 202.876709,19.6772727 202.999367,21.3545455 L211.278797,21.3545455 C211.115253,19.3909091 210.614399,17.7647727 209.776234,16.4761364 C208.93807,15.1875 207.885253,14.1545455 206.617785,13.3772727 C205.350316,12.6 203.909082,12.0477273 202.294082,11.7204545 C200.679082,11.3931818 199.012975,11.2295455 197.295759,11.2295455 C195.578544,11.2295455 193.902215,11.3829545 192.266772,11.6897727 C190.631329,11.9965909 189.15943,12.5284091 187.851076,13.2852273 C186.542722,14.0420455 185.489905,15.075 184.692627,16.3840909 C183.895348,17.6931818 183.496709,19.3704545 183.496709,21.4159091 C183.496709,22.8068182 183.782911,23.9829545 184.355316,24.9443182 C184.927722,25.9056818 185.684114,26.7034091 186.624494,27.3375 C187.564873,27.9715909 188.638133,28.4829545 189.844272,28.8715909 C191.050411,29.2602273 192.287215,29.5977273 193.554684,29.8840909 C196.662025,30.5386364 199.084525,31.1931818 200.822184,31.8477273 C202.559842,32.5022727 203.428671,33.4840909 203.428671,34.7931818 C203.428671,35.5704545 203.244684,36.2147727 202.876709,36.7261364 C202.508734,37.2375 202.048766,37.6465909 201.496804,37.9534091 C200.944842,38.2602273 200.331551,38.4852273 199.65693,38.6284091 C198.98231,38.7715909 198.338354,38.8431818 197.725063,38.8431818 C196.866456,38.8431818 196.038513,38.7409091 195.241234,38.5363636 C194.443956,38.3318182 193.738671,38.0147727 193.12538,37.5852273 C192.512089,37.1556818 192.011234,36.6034091 191.622816,35.9284091 C191.234399,35.2534091 191.04019,34.4454545 191.04019,33.5045455 L182.760759,33.5045455 C182.842532,35.6318182 183.322943,37.4011364 184.201994,38.8125 C185.081044,40.2238636 186.205411,41.3590909 187.575095,42.2181818 C188.944778,43.0772727 190.508671,43.6909091 192.266772,44.0590909 C194.024873,44.4272727 195.823861,44.6113636 197.663734,44.6113636 Z M224.137468,7.17954545 L224.137468,4.46915232e-13 L215.428734,4.46915232e-13 L215.428734,7.17954545 L224.137468,7.17954545 Z M224.137468,43.8136364 L224.137468,12.0886364 L215.428734,12.0886364 L215.428734,43.8136364 L224.137468,43.8136364 Z M243.006392,55.7795455 C246.645253,55.7795455 249.548165,55.2886364 251.715127,54.3068182 C253.882089,53.325 255.537975,52.1284091 256.682785,50.7170455 C257.827595,49.3056818 258.573766,47.7818182 258.921297,46.1454545 C259.268829,44.5090909 259.442595,43.0568182 259.442595,41.7886364 L259.442595,12.0886364 L251.163165,12.0886364 L251.163165,16.3227273 L251.040506,16.3227273 C249.977468,14.4818182 248.658892,13.1727273 247.084778,12.3954545 C245.510665,11.6181818 243.681013,11.2295455 241.595823,11.2295455 C239.387975,11.2295455 237.435665,11.6590909 235.738892,12.5181818 C234.04212,13.3772727 232.621329,14.5329545 231.476519,15.9852273 C230.331709,17.4375 229.46288,19.1147727 228.870032,21.0170455 C228.277184,22.9193182 227.980759,24.8931818 227.980759,26.9386364 C227.980759,29.1068182 228.236297,31.1625 228.747373,33.1056818 C229.258449,35.0488636 230.065949,36.7465909 231.169873,38.1988636 C232.273797,39.6511364 233.684367,40.7965909 235.401582,41.6352273 C237.118797,42.4738636 239.163101,42.8931818 241.534494,42.8931818 C243.456139,42.8931818 245.285791,42.4943182 247.023449,41.6965909 C248.761108,40.8988636 250.100127,39.6613636 251.040506,37.9840909 L251.163165,37.9840909 L251.163165,42.1568182 C251.204051,44.4068182 250.66231,46.2681818 249.537943,47.7409091 C248.413576,49.2136364 246.62481,49.95 244.171646,49.95 C242.617975,49.95 241.248291,49.6329545 240.062595,48.9988636 C238.876899,48.3647727 238.07962,47.2295455 237.670759,45.5931818 L229.023354,45.5931818 C229.146013,47.3931818 229.646867,48.9375 230.525918,50.2261364 C231.404968,51.5147727 232.508892,52.5681818 233.83769,53.3863636 C235.166487,54.2045455 236.638386,54.8079545 238.253386,55.1965909 C239.868386,55.5852273 241.452722,55.7795455 243.006392,55.7795455 Z M243.742342,36.3272727 C242.393101,36.3272727 241.268734,36.0409091 240.369241,35.4681818 C239.469747,34.8954545 238.744019,34.1590909 238.192057,33.2590909 C237.640095,32.3590909 237.251677,31.3465909 237.026804,30.2215909 C236.80193,29.0965909 236.689494,27.9613636 236.689494,26.8159091 C236.689494,25.6295455 236.822373,24.4943182 237.088133,23.4102273 C237.353892,22.3261364 237.783196,21.3647727 238.376044,20.5261364 C238.968892,19.6875 239.704842,19.0227273 240.583892,18.5318182 C241.462943,18.0409091 242.515759,17.7954545 243.742342,17.7954545 C245.173354,17.7954545 246.359051,18.0613636 247.29943,18.5931818 C248.23981,19.125 248.996203,19.8409091 249.568608,20.7409091 C250.141013,21.6409091 250.549873,22.6738636 250.79519,23.8397727 C251.040506,25.0056818 251.163165,26.2431818 251.163165,27.5522727 C251.163165,28.6977273 251.009842,29.7920455 250.703196,30.8352273 C250.396551,31.8784091 249.936582,32.8090909 249.323291,33.6272727 C248.71,34.4454545 247.933165,35.1 246.992785,35.5909091 C246.052405,36.0818182 244.968924,36.3272727 243.742342,36.3272727 Z M273.098544,43.8136364 L273.098544,27.1840909 C273.098544,23.9522727 273.630063,21.6306818 274.693101,20.2193182 C275.756139,18.8079545 277.473354,18.1022727 279.844747,18.1022727 C281.929937,18.1022727 283.381392,18.7465909 284.199114,20.0352273 C285.016835,21.3238636 285.425696,23.2772727 285.425696,25.8954545 L285.425696,43.8136364 L294.13443,43.8136364 L294.13443,24.3 C294.13443,22.3363636 293.960665,20.5465909 293.613133,18.9306818 C293.265601,17.3147727 292.662532,15.9443182 291.803924,14.8193182 C290.945316,13.6943182 289.769842,12.8147727 288.2775,12.1806818 C286.785158,11.5465909 284.873734,11.2295455 282.543228,11.2295455 C280.703354,11.2295455 278.904367,11.6488636 277.146266,12.4875 C275.388165,13.3261364 273.957152,14.6659091 272.853228,16.5068182 L272.669241,16.5068182 L272.669241,12.0886364 L264.38981,12.0886364 L264.38981,43.8136364 L273.098544,43.8136364 Z" id="sign" fill="#000000"></path>
                    </g>
                    <ellipse id="Oval" fill="#ED5D7D" cx="289.268987" cy="50.1136364" rx="5.11075949" ry="5.11363636"></ellipse>
                </g>
            </g>
        </g>
    </g>
</svg>