<?xml version="1.0" encoding="utf-8"?>
<!-- Generator: Adobe Illustrator 24.3.0, SVG Export Plug-In . SVG Version: 6.00 Build 0)  -->
<svg version="1.1" id="Layer_1" xmlns:svgjs="http://svgjs.com/svgjs"
	 xmlns="http://www.w3.org/2000/svg" xmlns:xlink="http://www.w3.org/1999/xlink" x="0px" y="0px" width="20px" height="25px"
	 viewBox="0 0 20 25" style="enable-background:new 0 0 20 25;" xml:space="preserve">
<style type="text/css">
	.st0{fill:#7C7C7C;}
</style>
<path class="st0" d="M19.8,2.7c-0.2-0.2-0.4-0.2-0.6-0.1L0.4,10.1C0.2,10.2,0,10.4,0,10.6c0,0.2,0.1,0.4,0.3,0.5l7.4,3.6l3.6,7.4
	c0.1,0.2,0.3,0.3,0.5,0.3c0,0,0,0,0,0c0.2,0,0.4-0.2,0.5-0.4L20,3.3C20,3.1,20,2.8,19.8,2.7z M2,10.7l14.9-6l-8.9,8.9L2,10.7z
	 M11.8,20.5l-2.9-6l8.9-8.9L11.8,20.5z"/>
</svg>
