<svg width="19" height="14" viewBox="0 0 19 14" fill="none" xmlns="http://www.w3.org/2000/svg">
<path fill-rule="evenodd" clip-rule="evenodd" d="M18.5 13V1H0.5V13H18.5ZM9.5 7.5625L1.85938 1.75H17.1406L9.5 7.5625ZM1.25 12.25H17.75V2.21875L12.3594 6.34375L15.5469 9.95312L15.4531 10.0469L11.75 6.76562L9.5 8.5L7.25 6.76562L3.54688 10.0469L3.45312 9.95312L6.64062 6.34375L1.25 2.21875V12.25Z" fill="white"/>
<path d="M18.5 1H18.75V0.75H18.5V1ZM18.5 13V13.25H18.75V13H18.5ZM0.5 1V0.75H0.25V1H0.5ZM0.5 13H0.25V13.25H0.5V13ZM1.85938 1.75V1.5H1.11783L1.70801 1.94897L1.85938 1.75ZM9.5 7.5625L9.34864 7.76147L9.5 7.87662L9.65136 7.76147L9.5 7.5625ZM17.1406 1.75L17.292 1.94897L17.8822 1.5H17.1406V1.75ZM17.75 12.25V12.5H18V12.25H17.75ZM1.25 12.25H1V12.5H1.25V12.25ZM17.75 2.21875H18V1.71265L17.5981 2.02021L17.75 2.21875ZM12.3594 6.34375L12.2074 6.14521L11.9944 6.3082L12.172 6.50924L12.3594 6.34375ZM15.5469 9.95312L15.7237 10.1299L15.8898 9.96376L15.7343 9.78764L15.5469 9.95312ZM15.4531 10.0469L15.2873 10.234L15.4635 10.3901L15.6299 10.2237L15.4531 10.0469ZM11.75 6.76562L11.9158 6.57851L11.7611 6.44143L11.5974 6.56762L11.75 6.76562ZM9.5 8.5L9.34737 8.698L9.5 8.81565L9.65263 8.698L9.5 8.5ZM7.25 6.76562L7.40263 6.56762L7.23891 6.44143L7.0842 6.57851L7.25 6.76562ZM3.54688 10.0469L3.3701 10.2237L3.53652 10.3901L3.71267 10.234L3.54688 10.0469ZM3.45312 9.95312L3.26574 9.78764L3.1102 9.96376L3.27635 10.1299L3.45312 9.95312ZM6.64062 6.34375L6.82801 6.50924L7.00555 6.3082L6.79255 6.14521L6.64062 6.34375ZM1.25 2.21875L1.40193 2.02021L1 1.71265V2.21875H1.25ZM18.25 1V13H18.75V1H18.25ZM0.5 1.25H18.5V0.75H0.5V1.25ZM0.75 13V1H0.25V13H0.75ZM18.5 12.75H0.5V13.25H18.5V12.75ZM1.70801 1.94897L9.34864 7.76147L9.65136 7.36353L2.01074 1.55103L1.70801 1.94897ZM17.1406 1.5H1.85938V2H17.1406V1.5ZM9.65136 7.76147L17.292 1.94897L16.9893 1.55103L9.34864 7.36353L9.65136 7.76147ZM17.75 12H1.25V12.5H17.75V12ZM17.5 2.21875V12.25H18V2.21875H17.5ZM12.5113 6.54229L17.9019 2.41729L17.5981 2.02021L12.2074 6.14521L12.5113 6.54229ZM15.7343 9.78764L12.5468 6.17826L12.172 6.50924L15.3595 10.1186L15.7343 9.78764ZM15.6299 10.2237L15.7237 10.1299L15.3701 9.77635L15.2763 9.8701L15.6299 10.2237ZM11.5842 6.95274L15.2873 10.234L15.6189 9.85976L11.9158 6.57851L11.5842 6.95274ZM9.65263 8.698L11.9026 6.96363L11.5974 6.56762L9.34737 8.302L9.65263 8.698ZM7.09737 6.96363L9.34737 8.698L9.65263 8.302L7.40263 6.56762L7.09737 6.96363ZM3.71267 10.234L7.4158 6.95274L7.0842 6.57851L3.38108 9.85976L3.71267 10.234ZM3.27635 10.1299L3.3701 10.2237L3.72365 9.8701L3.6299 9.77635L3.27635 10.1299ZM6.45324 6.17826L3.26574 9.78764L3.64051 10.1186L6.82801 6.50924L6.45324 6.17826ZM1.09807 2.41729L6.4887 6.54229L6.79255 6.14521L1.40193 2.02021L1.09807 2.41729ZM1.5 12.25V2.21875H1V12.25H1.5Z" fill="white"/>
</svg>
