<?xml version="1.0" encoding="UTF-8"?>
<svg width="610px" height="954px" viewBox="0 0 610 954" version="1.1" xmlns="http://www.w3.org/2000/svg" xmlns:xlink="http://www.w3.org/1999/xlink">
    <title>Slice</title>
    <g id="Page-1" stroke="none" stroke-width="1" fill="none" fill-rule="evenodd">
        <g id="Image" transform="translate(-85.000000, -78.000000)" fill-rule="nonzero">
            <g id="Group-4">
                <path d="M320.610897,361.984075 C293.416636,351.643917 264.679701,343.006553 235.344209,344.092393 C192.211039,345.684136 150.805664,369.948958 130.528754,405.578083 C113.324852,435.765669 111.202132,471.148012 103.791125,504.648644 C94.6708357,545.916733 77.1707397,585.148873 58.48587,623.504937 C48.4523171,644.111219 37.8634016,665.161708 36.2158255,687.748414 C33.9326677,719.108213 49.9579672,750.356961 75.0912149,771.216194 C100.224463,792.075427 133.601761,803.081897 167.102474,805.48185 C184.929617,806.758946 203.55895,805.574393 219.392958,797.813105 C236.1464,789.60144 248.358209,774.763683 265.179528,766.669239 C280.766708,759.167072 299.001117,758.118249 316.501213,759.093037 C339.350353,760.36544 361.906047,764.851644 383.502638,772.419256 C407.96328,781.007263 430.708468,793.451236 455.08272,802.162634 C479.456972,810.874032 506.756134,815.735634 531.69809,808.46791 C555.146738,801.638223 573.658828,785.054485 590.350563,768.260982 C617.643924,740.850808 642.660267,711.264732 665.151749,679.79587 C680.214419,658.689855 694.234242,636.423965 700.892424,611.825987 C713.628742,564.795542 696.103964,511.737452 657.234745,479.618798 C625.029879,453.009548 581.810319,441.460159 539.504022,434.451556 C500.924826,428.059907 456.316859,427.665056 420.804499,411.007283 C386.939716,395.102195 356.123256,375.495379 320.610897,361.984075 Z" id="Path" fill="#DE1B46" opacity="0.2" transform="translate(370.500000, 578.000000) rotate(-60.000000) translate(-370.500000, -578.000000) "></path>
                <path d="M535.045939,283.476554 C495.006557,268.253544 452.695823,255.537425 409.503806,257.136023 C345.996821,259.479422 285.03375,295.202632 255.179108,347.656622 C229.848997,392.099457 226.723618,444.190129 215.812046,493.510503 C202.383816,554.266302 176.617606,612.02473 149.106998,668.493379 C134.334129,698.830405 118.743573,729.821403 116.31777,763.074054 C112.95617,809.242647 136.550968,855.247748 173.555825,885.957175 C210.560681,916.666602 259.70364,932.87057 309.028306,936.403834 C335.276043,938.284003 362.704882,936.540078 386.018032,925.113738 C410.684908,913.024342 428.664926,891.179867 453.431741,879.263047 C476.381476,868.218189 503.228849,866.674089 528.995059,868.109194 C562.636917,869.982453 595.846721,876.587143 627.644392,887.728349 C663.658939,900.371804 697.147744,918.692098 733.035096,931.517212 C768.922447,944.342326 809.116281,951.499684 845.83949,940.799978 C880.364031,930.745162 907.620248,906.330214 932.19627,881.606446 C972.381563,841.252579 1009.21429,797.695299 1042.32956,751.366142 C1064.50703,720.293397 1085.14907,687.51306 1094.95222,651.29937 C1113.7045,582.060104 1087.90195,503.946804 1030.67298,456.661008 C983.256249,417.486279 919.622069,400.483012 857.332528,390.16479 C800.530573,380.754862 734.852177,380.173554 682.565668,355.649611 C632.704963,332.233787 587.332448,303.368197 535.045939,283.476554 Z" id="Path-Copy" fill="#E41E4A" opacity="0.2" transform="translate(608.500000, 601.500000) rotate(-233.000000) translate(-608.500000, -601.500000) "></path>
                <polygon id="Path" fill="#AAABB0" points="386 745.78 386 770 393 770 391.644724 744"></polygon>
                <polygon id="Path" fill="#AAABB0" points="286 741.78 286 766 293 766 291.646035 740"></polygon>
                <rect id="Rectangle" fill="#AAABB0" x="394" y="703" width="9" height="42" rx="4.5"></rect>
                <rect id="Rectangle" fill="#AAABB0" x="283" y="694" width="9" height="52" rx="4.5"></rect>
                <path d="M415,450.630355 C415,450.630355 423.726678,446.962056 425.036007,450.630355 C426.345336,454.298654 427,486 427,486 L418.705401,486 L415,450.630355 Z" id="Path" fill="#AAABB0"></path>
                <path d="M319,450.630355 C319,450.630355 310.271538,446.962056 308.962923,450.630355 C307.654308,454.298654 307,486 307,486 L315.290076,486 L319,450.630355 Z" id="Path" fill="#AAABB0"></path>
                <polygon id="Path" fill="#AAABB0" points="320.333333 418.671946 319 446 325 446 325 418"></polygon>
                <path d="M315,487 L316.744213,448.420743 C316.744213,448.420743 316.090949,439.872416 336.773261,442.502671 C357.455572,445.132925 418,450.393434 418,450.393434 L418,487 L315,487 Z" id="Path" fill="#33323D"></path>
                <path d="M398,687.731688 L394.713278,745.882693 C394.713278,745.882693 346.503645,772.260134 288,747.179838 L293.258755,686 L398,687.731688 Z" id="Path" fill="#33323D"></path>
                <polygon id="Path" fill="#444053" points="352 457.170624 353.090857 495 421 495 417.057143 445"></polygon>
                <rect id="Rectangle" fill="#4C4981" x="296" y="663" width="63" height="80"></rect>
                <path d="M336.024567,695.445248 C336.024567,695.445248 345.248034,688.226819 346.783083,690.412034 C348.318131,692.59725 341.301708,702.007457 338.442433,700.911568 C335.583158,699.815679 336.024567,695.445248 336.024567,695.445248 Z" id="Path" fill="#FFB9B9"></path>
                <rect id="Rectangle" fill="#504F60" x="172" y="484" width="417" height="208"></rect>
                <path d="M315.447176,416.522998 C315.447176,416.522998 312.19103,386.097058 315.447176,382.40709 C318.703322,378.717121 373.40658,343.721097 423.987557,384.793182 C423.987557,384.793182 428.761067,385.014841 427.894932,395.876126 C427.384434,402.750354 427.419276,409.654285 428,416.522998 C428,416.522998 319.139646,424.346252 315.447176,416.522998 Z" id="Path" fill="#33323D"></path>
                <path d="M315.447176,416.522998 C315.447176,416.522998 312.19103,386.097058 315.447176,382.40709 C318.703322,378.717121 373.40658,343.721097 423.987557,384.793182 C423.987557,384.793182 428.761067,385.014841 427.894932,395.876126 C427.384434,402.750354 427.419276,409.654285 428,416.522998 C428,416.522998 319.139646,424.346252 315.447176,416.522998 Z" id="Path" fill="#000000" opacity="0.1"></path>
                <path d="M315.447176,421.522998 C315.447176,421.522998 312.19103,391.097058 315.447176,387.40709 C318.703322,383.717121 373.40658,348.721097 423.987557,389.793182 C423.987557,389.793182 428.761067,390.014841 427.894932,400.876126 C427.384434,407.750354 427.419276,414.654285 428,421.522998 C428,421.522998 319.139646,429.346252 315.447176,421.522998 Z" id="Path" fill="#33323D"></path>
                <path d="M430.3637,407 C430.3637,407 433.88499,420.08856 432.788303,422.267806 C431.691616,424.447051 431.889813,430.559408 431.889813,430.559408 C431.889813,430.559408 432.127648,434.485977 430.3637,434.917899 C428.599751,435.349822 427.060425,435.572327 428.48744,436.881183 C429.914454,438.190039 428.48744,440.153323 428.48744,440.153323 C428.48744,440.153323 427.714474,443.209502 428.48744,445.172786 C429.260406,447.13607 423.96856,447.954105 424.417806,450.40821 C424.867051,452.862315 426.346918,459.786164 424.417806,460.008669 C422.488693,460.231175 425.07846,468.732194 423.340938,468.732194 C421.603416,468.732194 420.367991,484 420.367991,484 C420.367991,484 408.145875,473.751657 400,476.585331 C400,476.585331 400.660655,468.077766 403.303275,465.021588 C405.945894,461.965409 405.146502,454.118817 405.146502,454.118817 L418.253895,415.069097 L430.3637,407 Z" id="Path" fill="#4C4981"></path>
                <path d="M365.452889,586.614782 C362.683764,589.702612 359.697201,573.2127 359.697201,573.2127 C359.697201,573.2127 351.811907,584.171594 346.695739,576.867814 C343.152793,571.807383 345.9475,557.470572 347.974781,549.14826 C348.882901,545.448021 349.650326,542.933922 349.650326,542.933922 L361.161704,541 C361.161704,541 361.200075,543.526992 361.455883,546.595482 C361.801225,550.740522 362.549464,555.884756 364.141871,557.11602 C366.949368,559.249781 368.22841,583.501167 365.452889,586.614782 Z" id="Path" fill="#AE6E79"></path>
                <path d="M358.796242,392.062715 C358.796242,392.062715 338.312971,391.848293 333.30653,402.673361 C328.300089,413.49843 328.077871,417.18909 326.117124,418.917462 C324.156377,420.645834 347.463124,429.749028 347.463124,429.749028 L348.554606,467 C348.554606,467 353.129683,462.393173 360.534771,464.478916 C367.939859,466.564658 377.31223,464.478916 377.31223,464.478916 C377.31223,464.478916 376.87433,463.692701 382.978789,464.478916 C389.083248,465.26513 408.468501,455.089825 408.468501,455.089825 C408.468501,455.089825 408.788757,438.793744 408.357392,435.324004 C407.926028,431.854264 422.187195,406.357523 422.187195,406.357523 C422.187195,406.357523 433.298095,395.746877 421.755831,392.062715 C421.755831,392.062715 417.670941,385.941938 407.161336,386 C396.651732,386.058895 358.796242,392.062715 358.796242,392.062715 Z" id="Path" fill="#000000" opacity="0.1"></path>
                <path d="M359.761114,391.062715 C359.761114,391.062715 339.299782,390.848293 334.298704,401.673361 C329.297625,412.49843 329.075645,416.18909 327.116998,417.917462 C325.158351,419.645834 348.440135,428.749028 348.440135,428.749028 L349.530448,466 C349.530448,466 354.100625,461.393173 361.497781,463.478916 C368.894938,465.564658 378.257271,463.478916 378.257271,463.478916 C378.257271,463.478916 377.819839,462.692701 383.91776,463.478916 C390.015681,464.26513 409.380171,454.089825 409.380171,454.089825 C409.380171,454.089825 416.992779,441.744309 416.561876,438.281067 C416.130974,434.817824 431.793621,408.606343 431.793621,408.606343 C431.793621,408.606343 434.189699,394.746877 422.653268,391.062715 C422.653268,391.062715 418.572754,384.941938 408.074406,385 C397.576058,385.058895 359.761114,391.062715 359.761114,391.062715 Z" id="Path" fill="#4C4981"></path>
                <path d="M361,546.468354 C356.763283,545.113924 350.115275,548.101266 348,549 C348.875712,545.367089 349.61575,542.898734 349.61575,542.898734 L360.716319,541 C360.716319,541 360.73482,543.481013 361,546.468354 Z" id="Path" fill="#000000" opacity="0.1"></path>
                <path d="M333.885356,418 L327.580186,418 C327.580186,418 326.274768,431.298099 327.580186,435.220841 C328.885604,439.143584 329.538313,438.574787 329.100998,441.477616 C328.663683,444.380446 332.14915,448.826221 332.14915,448.826221 C332.14915,448.826221 332.579938,459.78375 334.759986,463.863403 C336.940035,467.943055 332.364544,486.236113 332.364544,486.236113 C333.612496,489.394031 335.458797,492.280188 337.801611,494.73539 C341.502472,498.435844 343.460599,512.165444 342.370575,517.395768 C341.28055,522.626092 345.418726,524.587463 345.418726,524.587463 C345.418726,524.587463 347.16146,549 347.814169,549 C348.466878,549 361.083745,542.462095 365,548.123921 L361.951848,525.679293 L362.173769,482.31337 C362.173769,482.31337 358.035594,476.860758 360.215642,472.068473 C362.395691,467.276189 358.472909,455.939462 358.472909,455.939462 L352.813921,430.663922 L333.885356,418 Z" id="Path" fill="#4C4981"></path>
                <path d="M293.608439,761.871768 C293.608439,761.871768 284.470554,759.91029 284.255161,761.871768 C284.039768,763.833246 273.374552,783.886092 286.650592,789.770527 C299.926633,795.654962 335.381624,808.29342 393.041675,791.947768 C393.041675,791.947768 396.735991,793.25542 395.867892,785.193744 C394.999793,777.132069 394.999793,768.194266 394.999793,768.194266 C394.999793,768.194266 386.292695,765.794725 379.765635,766.670852 C373.238574,767.546978 316.45315,779.093547 293.608439,761.871768 Z" id="Path" fill="#33323D"></path>
                <path d="M293.608439,761.871768 C293.608439,761.871768 284.470554,759.91029 284.255161,761.871768 C284.039768,763.833246 273.374552,783.886092 286.650592,789.770527 C299.926633,795.654962 335.381624,808.29342 393.041675,791.947768 C393.041675,791.947768 396.735991,793.25542 395.867892,785.193744 C394.999793,777.132069 394.999793,768.194266 394.999793,768.194266 C394.999793,768.194266 386.292695,765.794725 379.765635,766.670852 C373.238574,767.546978 316.45315,779.093547 293.608439,761.871768 Z" id="Path" fill="#000000" opacity="0.1"></path>
                <path d="M293.608439,758.871768 C293.608439,758.871768 284.470554,756.91029 284.255161,758.871768 C284.039768,760.833246 273.374552,780.886092 286.650592,786.770527 C299.926633,792.654962 335.381624,805.29342 393.041675,788.947768 C393.041675,788.947768 396.735991,790.25542 395.867892,782.193744 C394.999793,774.132069 394.999793,765.194266 394.999793,765.194266 C394.999793,765.194266 386.292695,762.794725 379.765635,763.670852 C373.238574,764.546978 316.45315,776.093547 293.608439,758.871768 Z" id="Path" fill="#33323D"></path>
                <path d="M347.049451,426.297512 C346.488209,429.469928 345.215624,432.51908 345.019842,435.730421 C344.824059,438.941762 346.07054,442.594258 349.052956,443.852844 C349.885091,444.100006 350.691484,444.425873 351.461078,444.825978 C352.609668,445.597997 353.079545,447.05121 353.32101,448.413597 C353.641505,450.172507 353.718356,451.966744 353.549423,453.74637 C353.386271,455.536936 353.001232,457.463741 353.888779,459.027242 C355.448511,461.79743 359.514256,461.388714 362.607616,460.610207 L361.543865,468.803993 C361.459026,469.452748 361.406818,470.185843 361.883221,470.626996 C362.337901,470.945451 362.902983,471.067163 363.449479,470.964349 C366.138223,470.795673 368.905279,470.425882 371.208983,469.018082 C373.512688,467.610282 375.229046,464.989308 374.791799,462.348872 C374.282765,459.286745 371.09804,456.853911 371.528761,453.778808 C371.861591,451.397874 374.204452,449.886273 375.744606,448.056782 C378.53124,444.709202 378.68134,439.622956 376.495105,435.834222 C374.308869,432.045488 370.086498,429.696992 365.740132,429.268813 C363.33201,429.028774 360.825997,429.320714 358.561449,428.490306 C356.964264,427.907904 355.73289,426.616592 355.23315,425" id="Path" fill="#444053"></path>
                <path d="M272,715.902275 L274.255146,710.805269 C274.255146,710.805269 286.429059,699.03521 289.226992,698.210299 C292.024924,697.385389 303.442814,693.790659 305.168097,693.790659 C306.893381,693.790659 338.342657,692 338.342657,692 L342,700.946587 L302.531709,709.94012 L289.226992,720 L272,715.902275 Z" id="Path" fill="#767D9F"></path>
                <path d="M368,582.462925 L365.9079,598.513903 L365.101229,604.692385 L355.703176,606 C355.703176,606 354.686639,603.829359 353.25037,600.49494 C348.889096,590.373998 340.678097,569.504458 345.439427,565.901978 C351.768192,561.10303 353.309394,577.016708 353.309394,577.016708 L360.523531,573.525375 L368,582.462925 Z" id="Path" fill="#FFB9B9"></path>
                <rect id="Rectangle" fill="#FFFFFF" x="319" y="612" width="47" height="71"></rect>
                <rect id="Rectangle" fill="#000000" opacity="0.1" x="319" y="612" width="47" height="71"></rect>
                <polygon id="Rectangle" fill="#FFFFFF" transform="translate(358.293628, 647.809484) rotate(8.410000) translate(-358.293628, -647.809484) " points="334.687573 612.159453 381.903789 612.156734 381.899682 683.459515 334.683466 683.462234"></polygon>
                <polygon id="Rectangle" fill="#1B51E5" transform="translate(353.888601, 635.745380) rotate(8.410000) translate(-353.888601, -635.745380) " points="341.738186 617.397011 366.04113 617.395611 366.039016 654.09375 341.736072 654.095149"></polygon>
                <polygon id="Rectangle" fill="#1B51E5" transform="translate(350.586296, 668.545890) rotate(8.410000) translate(-350.586296, -668.545890) " points="335.864488 664.561921 365.308564 664.560226 365.308105 672.529859 335.864028 672.531554"></polygon>
                <circle id="Oval" fill="#000000" opacity="0.1" cx="378" cy="405" r="27"></circle>
                <circle id="Oval" fill="#AE6E79" cx="378" cy="404" r="27"></circle>
                <path d="M355.665492,424.752595 C355.47819,424.045238 355.545782,423.294794 355.856492,422.632008 C356.903694,420.458897 359.887234,420.268504 362.304362,420.380114 C367.988235,420.642725 374.225347,420.675552 378.671018,417.09747 C380.515148,415.626846 382.576622,411.930589 385.257198,412.633075 C387.641395,413.256777 388.635908,416.480333 391.118897,417.19595 C392.916924,417.714607 394.780813,416.887381 396.611771,416.539421 C399.246243,416.020763 401.946577,416.454072 404.620566,416.473768 C407.294555,416.493464 410.19906,415.987937 412.023432,414.038046 C414.486663,411.411931 414.084906,407.308627 413.867562,403.710849 C413.59741,399.06345 413.913827,394.400628 414.809386,389.831832 C415.705106,385.288653 417.081618,380.207121 414.565697,376.313905 C412.168328,372.604518 407.202348,371.586898 403.810466,368.744129 C400.635927,366.118014 398.956451,361.909665 395.604086,359.473943 C391.382345,356.407954 385.645782,356.847828 380.455873,357.379616 L369.193505,358.574499 C366.289,358.883067 363.265944,359.231027 360.875161,360.957698 C356.561213,364.069644 355.968457,370.536452 351.885025,373.943836 C350.06724,375.453852 347.742318,376.202295 345.667672,377.331525 C343.593025,378.460754 341.590827,380.246512 341.353724,382.583755 C341.156139,384.553341 342.2231,386.371925 342.743408,388.269293 C343.975024,392.799342 342.051859,397.460696 340.820244,402.02357 C339.588628,406.586445 339.351526,412.127548 342.927821,415.154145 C343.652301,415.771282 344.495332,416.243983 345.200053,416.887381 C347.617181,419.086752 347.94649,422.79614 347.386665,426" id="Path" fill="#444053"></path>
                <ellipse id="Oval" fill="#444053" cx="380.5" cy="436" rx="1" ry="2"></ellipse>
                <ellipse id="Oval" fill="#444053" cx="380.5" cy="444" rx="1" ry="2"></ellipse>
                <path d="M366.530201,587.553784 C367.248322,586.736912 367.724832,584.63828 368,581.868883 L360,572 C360,572 363.389262,591.133412 366.530201,587.553784 Z" id="Path" fill="#AE6E79"></path>
                <path d="M375.075899,747.336424 C375.075899,747.336424 362.267543,766.943219 322.251254,764.842491 C284.553042,762.897372 266.15249,744.52897 267.029954,738.045241 C267.907418,731.561513 264.62675,715.780118 272.700729,711.241508 C277.38272,708.615598 283.544613,710.171693 287.892644,711.948234 C290.958655,713.181204 294.467512,712.558002 296.909569,710.346754 C300.88435,706.800154 308.296957,702.806177 319.99866,705.950786 C321.504379,706.348486 323.09266,706.31928 324.582427,705.866497 C329.454317,704.394691 341.051248,701.840102 349.465736,707.513364 C352.180511,709.366105 355.731686,709.499983 358.580884,707.857002 L358.698753,707.785681 C362.627696,705.406152 380.962766,727.885239 380.962766,727.885239 C380.962766,727.885239 381.84023,745.177342 375.075899,747.336424 Z" id="Path" fill="#000000" opacity="0.1"></path>
                <path d="M375.075899,748.336424 C375.075899,748.336424 362.267543,767.943219 322.251254,765.842491 C284.553042,763.897372 266.15249,745.52897 267.029954,739.045241 C267.907418,732.561513 264.62675,716.780118 272.700729,712.241508 C277.38272,709.615598 283.544613,711.171693 287.892644,712.948234 C290.958655,714.181204 294.467512,713.558002 296.909569,711.346754 C300.88435,707.800154 308.296957,703.806177 319.99866,706.950786 C321.504379,707.348486 323.09266,707.31928 324.582427,706.866497 C329.454317,705.394691 341.051248,702.840102 349.465736,708.513364 C352.180511,710.366105 355.731686,710.499983 358.580884,708.857002 L358.698753,708.785681 C362.627696,706.406152 380.962766,728.885239 380.962766,728.885239 C380.962766,728.885239 381.84023,746.177342 375.075899,748.336424 Z" id="Path" fill="#767D9F"></path>
                <circle id="Oval" fill="#000000" opacity="0.1" cx="322" cy="729" r="26"></circle>
                <circle id="Oval" fill="#FFB9B9" cx="322" cy="730" r="26"></circle>
                <path d="M314.678599,707.616117 C311.920842,708.353719 309.20267,709.763649 307.856779,712.080895 C307.045286,713.47777 306.761593,715.155325 305.587238,716.317212 C303.924666,717.968658 301.120727,718.001295 298.870978,718.928194 C296.621229,719.855092 295.13679,723.118819 297.340357,724.150156 C295.044425,724.26765 293.342269,726.362963 293.058576,728.445221 C292.774883,730.527478 293.573182,732.603209 294.34509,734.587554 C296.865336,741.010569 299.576911,747.714263 305.13201,752.283481 C314.183786,759.737833 327.827426,759.391878 339.986627,758.602056 C340.980103,758.634632 341.964919,758.409606 342.843347,757.94931 C344.162848,757.087687 344.327785,755.436241 344.545503,753.987146 C345.462556,747.79912 348.853674,742.178983 351.070435,736.271637 C353.287197,730.364292 354.197652,723.425609 350.463465,718.197119 C344.967743,710.442504 323.928301,705.135684 314.678599,707.616117 Z" id="Path" fill="#B96B6B"></path>
                <path d="M365,598.366667 L364.235233,604.666667 L355.325389,606 C355.325389,606 354.361658,603.786667 353,600.386667 L364.856995,598 L365,598.366667 Z" id="Path" fill="#000000" opacity="0.1"></path>
                <path d="M374.64852,738 L379.988921,731.687626 L378.91956,696.874916 C379.445517,694.363347 379.8028,691.818129 379.988921,689.256984 C380.200232,685.555726 377.31872,677.291543 377.31872,677.291543 C377.765716,675.637201 378.372744,674.032195 379.130871,672.500144 C380.411543,669.889028 377.325124,664.014016 377.325124,664.014016 C377.325124,664.014016 372.727512,648.784679 374.64852,641.166747 C376.569527,633.548814 374.181074,629.201306 374.181074,629.201306 C374.181074,629.201306 372.30489,620.715177 372.516201,617.235864 C372.727512,613.756552 368.245161,610.486128 368.245161,610.486128 L364.83217,602 L351.173805,604.611116 L351.173805,633.986176 C351.173805,633.986176 352.025452,662.055678 351.173805,667.499856 C350.322159,672.944034 352.877099,678.159739 352.877099,678.159739 C352.877099,678.159739 351.385116,686.208505 352.665788,689.256984 C353.94646,692.305462 356.507804,699.70145 356.507804,699.70145 C356.032356,702.344693 356.179398,705.06525 356.936829,707.639244 C358.2175,711.451474 356.936829,713.625228 356.936829,713.625228 L374.64852,738 Z" id="Path" fill="#767D9F"></path>
            </g>
            <g id="Group" opacity="0.1" transform="translate(340.000000, 381.000000)" fill="#000000">
                <path d="M74.4210345,7.40571429 C73.6822889,11.1687755 73.3506794,14.9978725 73.4317241,18.8292857 C73.487868,15.6434402 73.8276665,12.4685041 74.4472414,9.34071429 C75.0237931,6.48642857 75.7575862,3.41357143 75.6003448,0.565714286 C75.3588731,2.86840113 74.9649373,5.15322889 74.4210345,7.40571429 L74.4210345,7.40571429 Z" id="Path"></path>
                <path d="M5.17586207,33.9428571 C4.47482759,33.3 3.6362069,32.85 2.91551724,32.2392857 C1.00241379,30.6385714 0.196551724,28.3178571 0.0393103448,25.8107143 C-0.150689655,29.025 0.517586207,32.1364286 2.91551724,34.1678571 C3.6362069,34.7785714 4.47482759,35.2414286 5.17586207,35.8714286 C6.64133261,37.2943385 7.49088551,39.2171079 7.54758621,41.2392857 C7.73758621,38.5392857 7.18068966,35.73 5.17586207,33.9428571 Z" id="Path"></path>
                <path d="M3.08586207,9.93857143 C3.20043756,8.58078329 3.08082942,7.21375819 2.73206897,5.895 C2.35206897,4.51928571 1.67068966,3.17571429 1.42172414,1.79357143 C1.42172414,1.94142857 1.36931034,2.09571429 1.34965517,2.25642857 C1.15965517,4.185 2.22103448,5.96571429 2.73206897,7.82357143 C2.92034161,8.51549418 3.03884238,9.2239001 3.08586207,9.93857143 L3.08586207,9.93857143 Z" id="Path"></path>
                <path d="M71.6496552,31.1078571 C69.8348276,33.0364286 66.9455172,33.5121429 64.2855172,33.4928571 C61.6255172,33.4735714 58.9327586,33.0492857 56.3186207,33.5635714 C54.4972414,33.9235714 52.6431034,34.7271429 50.8544828,34.2064286 C48.3844828,33.5057143 47.3951724,30.3492857 45.03,29.7385714 C42.3372414,29.0442857 40.2865517,32.6635714 38.4782759,34.1035714 C34.0558621,37.575 27.8513793,37.5428571 22.1972414,37.3178571 C19.7927586,37.2085714 16.8248276,37.395 15.7896552,39.5292857 C15.4738492,40.1764756 15.4063928,40.9136777 15.5996552,41.6057143 L7.59344828,42.84 C7.56319389,43.48671 7.49097866,44.1308719 7.37724138,44.7685714 L15.5996552,43.4828571 C15.4063928,42.7908206 15.4738492,42.0536184 15.7896552,41.4064286 C16.8248276,39.2721429 19.7927586,39.0857143 22.1972414,39.195 C27.8513793,39.4521429 34.0558621,39.4842857 38.4782759,35.9807143 C40.3127586,34.5407143 42.3634483,30.9214286 45.03,31.6157143 C47.3951724,32.22 48.3844828,35.3828571 50.8544828,36.0835714 C52.6431034,36.585 54.4972414,35.7814286 56.3186207,35.4407143 C58.9393103,34.9264286 61.6255172,35.3507143 64.2855172,35.37 C66.9455172,35.3892857 69.8348276,34.8942857 71.6496552,32.985 C73.4644828,31.0757143 73.7265517,28.2278571 73.6151724,25.4507143 C73.5365517,27.6042857 73.0844828,29.5971429 71.6496552,31.1078571 Z" id="Path"></path>
            </g>
            <g id="Group" opacity="0.1" transform="translate(345.000000, 436.000000)" fill="#000000">
                <path d="M5.68764706,6.22075472 C4.9256311,5.81120908 4.12587305,5.47941249 3.3,5.23018868 C1.89582591,4.57893567 0.781047553,3.41530072 0.174705882,1.96792453 C0.66,4.24622642 1.88941176,6.31981132 3.94705882,7.21132075 C4.77293187,7.46054456 5.57268992,7.79234116 6.33470588,8.20188679 C6.82197907,8.55318316 7.21563947,9.02304179 7.48,9.56886792 C7.22117647,8.2745283 6.74882353,6.95377358 5.68764706,6.22075472 Z" id="Path"></path>
                <path d="M16.7394118,22.2877358 C13.7564706,23.0603774 9.86117647,23.4632075 8.22411765,20.8811321 C8.27505907,21.5033145 8.4512845,22.1080693 8.74176471,22.6575472 C10.1394118,25.2 13.5558824,25.1141509 16.4611765,24.4867925 L16.7394118,22.2877358 Z" id="Path"></path>
                <path d="M28.8264706,24.0971698 C29.2405882,26.7783019 27.5323529,29.4528302 25.2676471,30.859434 C23.0029412,32.2660377 20.24,32.6556604 17.5741176,32.840566 C17.150332,32.8965363 16.7195675,32.8466812 16.3188235,32.695283 C16.0704889,33.2657602 16.1764976,33.9321549 16.5889165,34.3931492 C17.0013355,34.8541435 17.6419804,35.0223445 18.2211765,34.8216981 C20.8870588,34.65 23.6305882,34.2735849 25.9147059,32.840566 C28.1988235,31.4075472 29.9070588,28.7396226 29.4670588,26.0518868 C29.3428295,25.3732954 29.1272588,24.715494 28.8264706,24.0971698 L28.8264706,24.0971698 Z" id="Path"></path>
                <path d="M31.6994118,0.191509434 C32.4998447,3.44512057 31.783454,6.89364695 29.7582353,9.53584906 C28.2311765,11.4245283 25.9082353,12.9367925 25.5782353,15.3603774 C25.4681319,16.4746184 25.6938748,17.596615 26.2252941,18.5764151 C26.1669729,18.1669316 26.1669729,17.750993 26.2252941,17.3415094 C26.5552941,14.9179245 28.8782353,13.3792453 30.4052941,11.5169811 C32.9158824,8.41981132 33.2652941,3.85660377 31.6994118,0.191509434 Z" id="Path"></path>
            </g>
            <g id="Group" opacity="0.1" transform="translate(293.000000, 706.000000)" fill="#000000">
                <path d="M6.44347826,13.6864865 C8.66086957,12.7718919 11.4326087,12.7394595 13.0826087,11.0918919 C14.2434783,9.9372973 14.523913,8.27027027 15.326087,6.88864865 C16.6304348,4.57945946 19.3369565,3.18486486 22.0630435,2.45189189 C31.1934783,-0.012972973 52.0108696,5.25405405 57.4369565,12.8886486 C59.0272364,15.1985041 59.8941209,17.9250382 59.9282609,20.7243243 C60.1372101,17.4926056 59.2633968,14.2831314 57.4434783,11.5978378 C52.0173913,3.96324324 31.2195652,-1.30378378 22.0695652,1.16108108 C19.3434783,1.89405405 16.6565217,3.28864865 15.3326087,5.59783784 C14.5304348,6.97945946 14.25,8.64648649 13.0891304,9.80108108 C11.4391304,11.4421622 8.6673913,11.4745946 6.45,12.3956757 C4.76086957,13.0897297 3.50869565,15.1394595 3.96521739,16.5145946 C4.33345609,15.2555583 5.23977301,14.2212999 6.44347826,13.6864865 L6.44347826,13.6864865 Z" id="Path"></path>
                <path d="M0.704347826,23.1113514 C0.97826087,21.0356757 2.66086957,18.96 4.93695652,18.8432432 C4.45287065,18.6425387 4.08606211,18.2347922 3.93913043,17.7340541 C2.17463362,18.3861191 0.918943991,19.9572379 0.67826087,21.8140541 C0.616326025,22.341993 0.616326025,22.8753043 0.67826087,23.4032432 C0.704347826,23.3059459 0.704347826,23.2086486 0.704347826,23.1113514 Z" id="Path"></path>
            </g>
            <g id="Group-3" transform="translate(372.000000, 465.000000)">
                <rect id="Rectangle" fill="#FFFFFF" x="0" y="29" width="60" height="77"></rect>
                <rect id="Rectangle" fill="#000000" opacity="0.1" x="0" y="29" width="60" height="77"></rect>
                <polygon id="Rectangle" fill="#FFFFFF" transform="translate(59.287818, 75.864054) rotate(-9.760000) translate(-59.287818, -75.864054) " points="29.5998554 37.1648984 88.9706316 37.1688461 88.9757797 114.56321 29.6050034 114.559262"></polygon>
                <polygon id="Rectangle" fill="#1B51E5" transform="translate(46.065772, 102.531088) rotate(-9.760000) translate(-46.065772, -102.531088) " points="39.0907319 93.4392156 53.0396021 93.4401431 53.0408116 111.62296 39.0919413 111.622032"></polygon>
                <polygon id="Rectangle" fill="#1B51E5" transform="translate(65.088748, 99.256790) rotate(-9.760000) translate(-65.088748, -99.256790) " points="58.1137078 90.1649176 72.0625781 90.1658451 72.0637876 108.348662 58.1149173 108.347734"></polygon>
                <polygon id="Rectangle" fill="#1B51E5" transform="translate(61.304233, 75.999609) rotate(-9.743641) translate(-61.304233, -75.999609) " points="36.8457599 66.8657573 85.7614928 66.8690046 85.7627057 85.13346 36.8469728 85.1302128"></polygon>
                <polygon id="Rectangle" fill="#1B51E5" transform="translate(56.084503, 47.523217) rotate(-9.743641) translate(-56.084503, -47.523217) " points="31.6265015 45.4842029 80.5422344 45.4874502 80.542505 49.5622319 31.6267721 49.5589846"></polygon>
                <polygon id="Rectangle" fill="#1B51E5" transform="translate(57.665676, 54.910717) rotate(-9.743641) translate(-57.665676, -54.910717) " points="33.2076742 52.8717029 82.1234071 52.8749502 82.1236777 56.9497319 33.2079448 56.9464846"></polygon>
                <path d="M33.0520661,7 C33.0520661,7 6.36488224,34.8603926 19.7627034,41.938259 C33.1605247,49.0161253 41.8818683,18.3895938 41.8818683,18.3895938 L44,11.4244957 L33.0520661,7 Z" id="Path" fill="#AE6E79"></path>
                <path d="M31.3538761,4.99165217 L28,12.5387826 C28,12.5387826 44.5423289,14.9046957 48,20 L45.9500487,6.68347826 L43.5173532,1 L31.3538761,4.99165217 Z" id="Path" fill="#000000" opacity="0.1"></path>
                <path d="M31.3538761,3.99165217 L28,11.5387826 C28,11.5387826 44.5423289,13.9046957 48,19 L45.9500487,5.68347826 L43.5173532,0 L31.3538761,3.99165217 Z" id="Path" fill="#4C4981"></path>
                <polygon id="Path" fill="#464A5F" points="132.327381 141.14 132 141.52 132.452381 141.86 132.940476 141.79 133 141.22"></polygon>
                <polygon id="Path" fill="#000000" opacity="0.1" points="132.327381 141.14 132 141.52 132.452381 141.86 132.940476 141.79 133 141.22"></polygon>
                <polygon id="Path" fill="#9C9CA1" points="133 141.660377 132.44 142 132 141.490566 132.27 141.075472 132.52 141"></polygon>
                <polygon id="Path" fill="#000000" opacity="0.1" points="133 141.660377 132.44 142 132 141.490566 132.27 141.075472 132.52 141"></polygon>
                <path d="M196,95.9899201 L169.306845,57.3790682 C168.829274,56.6830354 168.094865,56.2058398 167.265581,56.0527192 C166.436296,55.8995987 165.580254,56.0831307 164.88624,56.5628402 L105.384108,97.4656605 C103.934719,98.4621714 103.564289,100.445623 104.556059,101.899411 L131.177493,141 L196,95.9899201 Z" id="Path" fill="#9C9CA1"></path>
                <path d="M196,95.9899201 L169.306845,57.3790682 C168.829274,56.6830354 168.094865,56.2058398 167.265581,56.0527192 C166.436296,55.8995987 165.580254,56.0831307 164.88624,56.5628402 L105.384108,97.4656605 C103.934719,98.4621714 103.564289,100.445623 104.556059,101.899411 L131.177493,141 L196,95.9899201 Z" id="Path" fill="#000000" opacity="0.1"></path>
                <path d="M197,95.9686902 L170.307402,57.3788155 C169.828634,56.6827284 169.093102,56.2056551 168.262771,56.0526472 C167.43244,55.8996393 166.575399,56.0832438 165.880369,56.5630309 L106.385999,97.4697338 C104.937656,98.4657437 104.564793,100.445592 105.551448,101.901076 L132.172326,141 L197,95.9686902 Z" id="Path" fill="#9C9CA1"></path>
                <path d="M219.487464,103.190823 L197.45079,96 L133,141.390423 L155.386668,148.831475 C156.402572,149.166779 157.514607,148.995964 158.387545,148.370525 L219.668943,104.409048 C219.904104,104.275017 220.033026,104.007066 219.992676,103.736202 C219.952325,103.465338 219.751132,103.248149 219.487464,103.190823 Z" id="Path" fill="#464A5F"></path>
                <path d="M219.487464,103.190823 L197.45079,96 L133,141.390423 L155.386668,148.831475 C156.402572,149.166779 157.514607,148.995964 158.387545,148.370525 L219.668943,104.409048 C219.904104,104.275017 220.033026,104.007066 219.992676,103.736202 C219.952325,103.465338 219.751132,103.248149 219.487464,103.190823 Z" id="Path" fill="#000000" opacity="0.1"></path>
                <path d="M219.503432,103.19853 L197.46269,96 L133,141.397501 L155.390801,148.826543 C156.405526,149.168086 157.519624,148.999405 158.392232,148.372107 L219.684944,104.403774 C219.910789,104.266273 220.032341,104.00365 219.992519,103.739232 C219.952697,103.474815 219.759413,103.261133 219.503432,103.19853 Z" id="Path" fill="#464A5F"></path>
            </g>
            <g id="Group" opacity="0.1" transform="translate(494.000000, 543.000000)" fill="#000000">
                <path d="M64.4475,16.6879518 L62.816,14.3457831 C62.6122937,14.0635271 62.2226751,13.9918397 61.932,14.1831325 L59.5075,15.8031325 C59.2249144,16.0025784 59.1477907,16.3885544 59.332,16.6814458 L60.8335,18.9910843 C61.028719,19.278449 61.415098,19.3615258 61.711,19.179759 L64.2655,17.5727711 C64.5541967,17.3749286 64.6346381,16.9838511 64.4475,16.6879518 L64.4475,16.6879518 Z" id="Path"></path>
                <path d="M60.0925,19.706747 L58.4545,17.3710843 C58.2507937,17.0888283 57.8611751,17.0171409 57.5705,17.2084337 L55.1525,18.8414458 C54.8676644,19.0388776 54.7876069,19.4252269 54.9705,19.719759 L56.472,22.0293976 C56.6651706,22.3190399 57.0519517,22.405071 57.3495,22.2245783 L59.9105,20.6175904 C60.0566607,20.5220755 60.1582983,20.3717334 60.1925312,20.2004103 C60.2267641,20.0290872 60.1907151,19.8511823 60.0925,19.706747 Z" id="Path"></path>
                <path d="M55.5165,22.8751807 L53.8785,20.5395181 C53.6747937,20.257262 53.2851751,20.1855746 52.9945,20.3768675 L50.57,22.0098795 C50.2835505,22.209757 50.2060575,22.6004539 50.3945,22.8946988 L51.896,25.2043373 C52.091219,25.491702 52.477598,25.5747788 52.7735,25.393012 L55.328,23.7860241 C55.4752168,23.6915508 55.5781915,23.541688 55.6136627,23.3702889 C55.6491339,23.1988899 55.614109,23.0204149 55.5165,22.8751807 Z" id="Path"></path>
                <path d="M50.882,26.0891566 L49.244,23.746988 C49.0407662,23.4686055 48.6558504,23.3972588 48.3665,23.5843373 L45.942,25.2238554 C45.6594144,25.4233013 45.5822907,25.8092773 45.7665,26.1021687 L47.268,28.4118072 C47.4607663,28.6976422 47.842871,28.7832673 48.139,28.606988 L50.7,26.993494 C50.8443132,26.8980301 50.9446569,26.7489267 50.978816,26.5791938 C51.0129752,26.4094609 50.9781318,26.2331004 50.882,26.0891566 Z" id="Path"></path>
                <path d="M46.254,29.2966265 L44.616,26.9609639 C44.4122937,26.6787078 44.0226751,26.6070204 43.732,26.7983133 L41.314,28.4313253 C41.0291644,28.6287571 40.9491069,29.0151064 41.132,29.3096386 L42.6335,31.6192771 C42.8266706,31.9089195 43.2134517,31.9949505 43.511,31.8144578 L46.072,30.2009639 C46.2163132,30.1054999 46.3166569,29.9563966 46.350816,29.7866637 C46.3849752,29.6169308 46.3501318,29.4405703 46.254,29.2966265 Z" id="Path"></path>
                <path d="M41.8275,32.7968675 L39.793,29.8951807 C39.7494402,29.8299779 39.6815628,29.784997 39.6045823,29.7703205 C39.5276018,29.7556439 39.447957,29.7724993 39.3835,29.8171084 L36.4065,31.8274699 C36.3403054,31.8700352 36.2940338,31.9374974 36.2781337,32.0146231 C36.2622336,32.0917488 36.2780459,32.1720339 36.322,32.2373494 L38.1875,35.106506 C38.2762528,35.2436941 38.458551,35.2842424 38.597,35.1975904 L41.743,33.2457831 C41.8194586,33.2023375 41.8729384,33.1274115 41.8892166,33.0409314 C41.9054949,32.9544513 41.8829216,32.8651831 41.8275,32.7968675 Z" id="Path"></path>
                <path d="M37.1995,36.0043373 L35.152,33.1026506 C35.1072274,33.03702 35.0382137,32.9919085 34.9601759,32.9772629 C34.8821382,32.9626173 34.8014851,32.9796402 34.736,33.0245783 L31.759,35.0349398 C31.6264476,35.1279137 31.5918762,35.3095822 31.681,35.4448193 L33.5465,38.3139759 C33.5866682,38.3827757 33.6536692,38.4317036 33.7313858,38.44899 C33.8091024,38.4662763 33.8905006,38.4503566 33.956,38.4050602 L37.0955,36.453253 C37.1769262,36.4151825 37.2363473,36.3417583 37.2566485,36.2541284 C37.2769496,36.1664986 37.255877,36.0743919 37.1995,36.0043373 L37.1995,36.0043373 Z" id="Path"></path>
                <path d="M33.098,38.8474699 L31.0635,35.9718072 C30.9686023,35.8413451 30.7874522,35.8096864 30.654,35.900241 L27.677,37.9040964 C27.5413614,37.9974406 27.5039954,38.1815664 27.5925,38.3204819 L29.458,41.1896386 C29.5488122,41.3238281 29.7284543,41.3637856 29.8675,41.2807229 L33.0135,39.3289157 C33.1012951,39.287407 33.1634863,39.2058119 33.1802866,39.1100911 C33.1970868,39.0143703 33.1664039,38.9164444 33.098,38.8474699 L33.098,38.8474699 Z" id="Path"></path>
                <path d="M28.509,42.0224096 L26.4745,39.1207229 C26.3796023,38.9902607 26.1984522,38.958602 26.065,39.0491566 L23.088,41.053012 C23.0213789,41.0968055 22.974984,41.1654103 22.9591181,41.2435914 C22.9432523,41.3217725 22.9592289,41.4030583 23.0035,41.4693976 L24.869,44.3385542 C24.9598122,44.4727438 25.1394543,44.5127012 25.2785,44.4296386 L28.4245,42.4778313 C28.5012848,42.4330238 28.5547668,42.3569666 28.5709959,42.2694984 C28.5872249,42.1820302 28.5645918,42.0918242 28.509,42.0224096 L28.509,42.0224096 Z" id="Path"></path>
                <path d="M24.063,45.080241 L22.0285,42.1785542 C21.9849402,42.1133514 21.9170628,42.0683705 21.8400823,42.053694 C21.7631018,42.0390174 21.683457,42.0558728 21.619,42.1004819 L18.642,44.1108434 C18.5758054,44.1534087 18.5295338,44.2208709 18.5136337,44.2979966 C18.4977336,44.3751223 18.5135459,44.4554074 18.5575,44.5207229 L20.423,47.3898795 C20.5117528,47.5270676 20.694051,47.5676159 20.8325,47.4809639 L23.9785,45.5291566 C24.0549586,45.485711 24.1084384,45.410785 24.1247166,45.3243049 C24.1409949,45.2378248 24.1184216,45.1485566 24.063,45.080241 Z" id="Path"></path>
                <path d="M19.617,48.1901205 L17.602,45.2819277 C17.5071023,45.1514655 17.3259522,45.1198068 17.1925,45.2103614 L14.2155,47.2142169 C14.1488789,47.2580104 14.102484,47.3266152 14.0866181,47.4047962 C14.0707523,47.4829773 14.0867289,47.5642631 14.131,47.6306024 L15.9965,50.499759 C16.0873122,50.6339486 16.2669543,50.6739061 16.406,50.5908434 L19.552,48.6390361 C19.6254402,48.5922424 19.6748577,48.5157346 19.6873443,48.4294971 C19.6998309,48.3432596 19.6741465,48.2558573 19.617,48.1901205 L19.617,48.1901205 Z" id="Path"></path>
                <path d="M15.171,51.2674699 L13.1365,48.3657831 C13.0929402,48.3005803 13.0250628,48.2555994 12.9480823,48.2409229 C12.8711018,48.2262463 12.791457,48.2431017 12.727,48.2877108 L9.75,50.2850602 C9.68380538,50.3276255 9.63753376,50.3950878 9.62163367,50.4722135 C9.60573358,50.5493392 9.62154587,50.6296243 9.6655,50.6949398 L11.531,53.5640964 C11.6197528,53.7012845 11.802051,53.7418327 11.9405,53.6551807 L15.0865,51.7033735 C15.1588626,51.6596281 15.2093427,51.5872668 15.2254451,51.5042008 C15.2415474,51.4211349 15.221767,51.3351282 15.171,51.2674699 Z" id="Path"></path>
                <path d="M61.5225,12.4525301 L59.8845,10.1103614 C59.6807937,9.82810542 59.2911751,9.75641796 59.0005,9.94771084 L56.602,11.5872289 C56.3171644,11.7846608 56.2371069,12.17101 56.42,12.4655422 L57.9215,14.7751807 C58.116719,15.0625453 58.503098,15.1456222 58.799,14.9638554 L61.36,13.3568675 C61.653927,13.1517734 61.7266099,12.7472822 61.5225,12.4525301 Z" id="Path"></path>
                <path d="M55.12,3.19445783 L53.482,0.839277108 C53.2787662,0.560894687 52.8938504,0.489547926 52.6045,0.676626506 L50.18,2.30963855 C49.8951644,2.50707039 49.8151069,2.89341966 49.998,3.18795181 L51.4995,5.49759036 C51.6926706,5.78723271 52.0794517,5.87326372 52.377,5.69277108 L54.938,4.08578313 C55.2306107,3.88756672 55.3114436,3.49169674 55.12,3.19445783 Z" id="Path"></path>
                <path d="M57.161,15.4713253 L55.523,13.1356627 C55.3197662,12.8572802 54.9348504,12.7859335 54.6455,12.973012 L52.221,14.6060241 C51.9384144,14.80547 51.8612907,15.191446 52.0455,15.4843373 L53.5405,17.7939759 C53.7336706,18.0836183 54.1204517,18.1696493 54.418,17.9891566 L56.979,16.3821687 C57.1251607,16.2866538 57.2267983,16.1363117 57.2610312,15.9649886 C57.2952641,15.7936655 57.2592151,15.6157606 57.161,15.4713253 Z" id="Path"></path>
                <path d="M52.585,18.639759 L50.947,16.3040964 C50.7432937,16.0218404 50.3536751,15.9501529 50.063,16.1414458 L47.645,17.7549398 C47.3563033,17.9527823 47.2758619,18.3438597 47.463,18.639759 L48.9645,20.9493976 C49.159719,21.2367622 49.546098,21.3198391 49.842,21.1380723 L52.403,19.5310843 C52.6956107,19.3328679 52.7764436,18.9369979 52.585,18.639759 Z" id="Path"></path>
                <path d="M47.9505,21.8537349 L46.319,19.5115663 C46.1152937,19.2293102 45.7256751,19.1576228 45.435,19.3489157 L43.0105,21.0079518 C42.7279144,21.2073977 42.6507907,21.5933737 42.835,21.8862651 L44.3365,24.1959036 C44.531719,24.4832682 44.918098,24.5663451 45.214,24.3845783 L47.7685,22.7775904 C47.9184239,22.6820379 48.0227163,22.5292035 48.057101,22.3546623 C48.0914857,22.1801212 48.052963,21.9990999 47.9505,21.8537349 Z" id="Path"></path>
                <path d="M50.8625,6.36289157 L49.2245,4.02722892 C49.0212662,3.74884649 48.6363504,3.67749973 48.347,3.86457831 L45.9225,5.49759036 C45.6376644,5.6950222 45.5576069,6.08137146 45.7405,6.37590361 L47.242,8.68554217 C47.4351706,8.97518452 47.8219517,9.06121553 48.1195,8.88072289 L50.6805,7.27373494 C50.8266607,7.17822007 50.9282983,7.02787799 50.9625312,6.85655489 C50.9967641,6.6852318 50.9607151,6.50732691 50.8625,6.36289157 Z" id="Path"></path>
                <path d="M46.2865,9.53783133 L44.6485,7.19566265 C44.4447937,6.91340662 44.0551751,6.84171917 43.7645,7.03301205 L41.3465,8.64650602 C41.0616644,8.84393786 40.9816069,9.23028712 41.1645,9.52481928 L42.666,11.8344578 C42.861219,12.1218224 43.247598,12.2048993 43.5435,12.0231325 L46.1045,10.4161446 C46.3893356,10.2187127 46.4693931,9.83236348 46.2865,9.53783133 L46.2865,9.53783133 Z" id="Path"></path>
                <path d="M41.652,12.7453012 L40.014,10.4096386 C39.812744,10.1290302 39.427484,10.0547632 39.1365,10.2404819 L36.712,11.8995181 C36.4294144,12.098964 36.3522907,12.4849399 36.5365,12.7778313 L38.038,15.0874699 C38.2311706,15.3771122 38.6179517,15.4631432 38.9155,15.2826506 L41.47,13.6691566 C41.6199239,13.5736042 41.7242163,13.4207698 41.758601,13.2462286 C41.7929857,13.0716874 41.754463,12.8906662 41.652,12.7453012 Z" id="Path"></path>
                <path d="M43.3225,25.0612048 L41.6845,22.7255422 C41.483244,22.4449338 41.097984,22.3706668 40.807,22.5563855 L38.402,24.1959036 C38.1194144,24.3953495 38.0422907,24.7813255 38.2265,25.0742169 L39.702,27.3838554 C39.8947663,27.6696904 40.276871,27.7553155 40.573,27.5790361 L43.134,25.9655422 C43.2793719,25.8711097 43.381049,25.7224807 43.4164436,25.5526733 C43.4518383,25.3828659 43.4180194,25.2059418 43.3225,25.0612048 Z" id="Path"></path>
                <path d="M38.6945,28.2686747 L37.0565,25.933012 C36.8527937,25.650756 36.4631751,25.5790686 36.1725,25.7703614 L33.7545,27.4033735 C33.4696644,27.6008053 33.3896069,27.9871546 33.5725,28.2816867 L35.074,30.5913253 C35.2671706,30.8809676 35.6539517,30.9669987 35.9515,30.786506 L38.5125,29.1795181 C38.6586607,29.0840032 38.7602983,28.9336611 38.7945312,28.762338 C38.8287641,28.5910149 38.7927151,28.41311 38.6945,28.2686747 Z" id="Path"></path>
                <path d="M34.268,31.7689157 L32.2335,28.8672289 C32.1899402,28.8020261 32.1220628,28.7570452 32.0450823,28.7423687 C31.9681018,28.7276921 31.888457,28.7445475 31.824,28.7891566 L28.847,30.7995181 C28.7808054,30.8420834 28.7345338,30.9095456 28.7186337,30.9866713 C28.7027336,31.063797 28.7185459,31.1440821 28.7625,31.2093976 L30.628,34.0785542 C30.669471,34.145875 30.7363892,34.193538 30.8135237,34.2106949 C30.8906582,34.2278518 30.9714463,34.2130428 31.0375,34.1696386 L34.1835,32.2178313 C34.2599586,32.1743857 34.3134384,32.0994597 34.3297166,32.0129796 C34.3459949,31.9264995 34.3234216,31.8372313 34.268,31.7689157 Z" id="Path"></path>
                <path d="M30.1665,34.6120482 L28.132,31.7038554 C28.0371023,31.5733933 27.8559522,31.5417345 27.7225,31.6322892 L24.752,33.6361446 C24.6163614,33.7294888 24.5789954,33.9136146 24.6675,34.0525301 L26.533,36.9216867 C26.6238122,37.0558763 26.8034543,37.0958338 26.9425,37.0127711 L30.0885,35.0609639 C30.1678099,35.0198196 30.2233582,34.943947 30.238664,34.8558568 C30.2539699,34.7677667 30.2272752,34.6775776 30.1665,34.6120482 L30.1665,34.6120482 Z" id="Path"></path>
                <path d="M25.5775,37.786988 L23.543,34.8853012 C23.4481023,34.754839 23.2669522,34.7231803 23.1335,34.8137349 L20.1565,36.8175904 C20.0903054,36.8601556 20.0440338,36.9276179 20.0281337,37.0047436 C20.0122336,37.0818693 20.0280459,37.1621544 20.072,37.2274699 L21.9375,40.1031325 C22.0283122,40.2373221 22.2079543,40.2772796 22.347,40.1942169 L25.493,38.2424096 C25.5697848,38.1976021 25.6232668,38.1215449 25.6394959,38.0340767 C25.6557249,37.9466085 25.6330918,37.8564025 25.5775,37.786988 Z" id="Path"></path>
                <path d="M21.1315,40.8708434 L19.097,37.9691566 C19.0534402,37.9039538 18.9855628,37.8589729 18.9085823,37.8442964 C18.8316018,37.8296198 18.751957,37.8464752 18.6875,37.8910843 L15.7105,39.8754217 C15.6443054,39.917987 15.5980338,39.9854492 15.5821337,40.0625749 C15.5662336,40.1397006 15.5820459,40.2199858 15.626,40.2853012 L17.4915,43.1544578 C17.5802528,43.2916459 17.762551,43.3321942 17.901,43.2455422 L21.047,41.2937349 C21.1154841,41.2499084 21.1631899,41.1800626 21.1791312,41.1002821 C21.1950725,41.0205015 21.1778754,40.9376631 21.1315,40.8708434 L21.1315,40.8708434 Z" id="Path"></path>
                <path d="M49.5365,14.2351807 L47.8985,11.8995181 C47.6952662,11.6211357 47.3103504,11.5497889 47.021,11.7368675 L44.5965,13.3763855 C44.3139144,13.5758314 44.2367907,13.9618074 44.421,14.2546988 L45.9225,16.5643373 C46.1172937,16.847892 46.499004,16.9305775 46.7935,16.753012 L49.3545,15.1460241 C49.5006607,15.0505092 49.6022983,14.9001671 49.6365312,14.7288441 C49.6707641,14.557521 49.6347151,14.3796161 49.5365,14.2351807 Z" id="Path"></path>
                <path d="M44.902,17.4491566 L43.264,15.106988 C43.0602937,14.8247319 42.6706751,14.7530445 42.38,14.9443373 L39.962,16.5838554 C39.6771644,16.7812873 39.5971069,17.1676365 39.78,17.4621687 L41.2815,19.7718072 C41.4746706,20.0614496 41.8614517,20.1474806 42.159,19.966988 L44.72,18.353494 C44.8643132,18.2580301 44.9646569,18.1089267 44.998816,17.9391938 C45.0329752,17.7694609 44.9981318,17.5931004 44.902,17.4491566 L44.902,17.4491566 Z" id="Path"></path>
                <path d="M40.2805,20.6566265 L38.6425,18.3209639 C38.4387937,18.0387078 38.0491751,17.9670204 37.7585,18.1583133 L35.334,19.7913253 C35.0514144,19.9907712 34.9742907,20.3767472 35.1585,20.6696386 L36.66,22.9792771 C36.8531706,23.2689195 37.2399517,23.3549505 37.5375,23.1744578 L40.092,21.5609639 C40.2373719,21.4665314 40.339049,21.3179024 40.3744436,21.148095 C40.4098383,20.9782875 40.3760194,20.8013635 40.2805,20.6566265 L40.2805,20.6566265 Z" id="Path"></path>
                <path d="M35.646,23.8640964 L34.008,21.5284337 C33.8047662,21.2500513 33.4198504,21.1787046 33.1305,21.3657831 L30.706,22.9987952 C30.4234144,23.1982411 30.3462907,23.584217 30.5305,23.8771084 L32.032,26.2127711 C32.2247663,26.498606 32.606871,26.5842311 32.903,26.4079518 L35.464,24.8009639 C35.6177805,24.7054639 35.7248211,24.5501164 35.7593637,24.3723043 C35.7939063,24.1944923 35.7528229,24.0103162 35.646,23.8640964 Z" id="Path"></path>
                <path d="M31.252,27.3643373 L29.2175,24.4626506 C29.1739402,24.3974478 29.1060628,24.3524669 29.0290823,24.3377904 C28.9521018,24.3231138 28.872457,24.3399692 28.808,24.3845783 L25.831,26.3949398 C25.6962075,26.4858642 25.6586761,26.6679156 25.7465,26.8048193 L27.612,29.6804819 C27.6545259,29.7467379 27.7219257,29.7930524 27.79898,29.8089672 C27.8760343,29.8248821 27.956245,29.8090551 28.0215,29.7650602 L31.1675,27.813253 C31.2439586,27.7698074 31.2974384,27.6948813 31.3137166,27.6084012 C31.3299949,27.5219212 31.3074216,27.432653 31.252,27.3643373 Z" id="Path"></path>
                <path d="M27.1245,30.2074699 L25.09,27.2992771 C24.9927368,27.167958 24.8094867,27.1364327 24.674,27.2277108 L21.7035,29.2315663 C21.5678614,29.3249105 21.5304954,29.5090363 21.619,29.6479518 L23.4845,32.5171084 C23.5732528,32.6542965 23.755551,32.6948448 23.894,32.6081928 L27.04,30.6563855 C27.1164586,30.6129399 27.1699384,30.5380139 27.1862166,30.4515338 C27.2024949,30.3650537 27.1799216,30.2757856 27.1245,30.2074699 L27.1245,30.2074699 Z" id="Path"></path>
                <path d="M22.5355,33.3693976 L20.501,30.4612048 C20.4037368,30.3298857 20.2204867,30.2983604 20.085,30.3896386 L17.108,32.393494 C16.9753049,32.4887663 16.9384572,32.6703382 17.0235,32.8098795 L18.8955,35.6790361 C18.9842528,35.8162242 19.166551,35.8567725 19.305,35.7701205 L22.4445,33.8183133 C22.5238376,33.7777467 22.5803791,33.7032 22.5980944,33.6158079 C22.6158097,33.5284159 22.5927673,33.4377068 22.5355,33.3693976 L22.5355,33.3693976 Z" id="Path"></path>
                <path d="M18.0895,36.4662651 L16.055,33.5645783 C16.0102274,33.4989477 15.9412137,33.4538362 15.8631759,33.4391906 C15.7851382,33.424545 15.7044851,33.4415679 15.639,33.486506 L12.662,35.4968675 C12.5294476,35.5898414 12.4948762,35.7715099 12.584,35.906747 L14.4495,38.7759036 C14.4896682,38.8447034 14.5566692,38.8936313 14.6343858,38.9109177 C14.7121024,38.928204 14.7935006,38.9122843 14.859,38.866988 L17.9985,36.9151807 C18.0778376,36.8746141 18.1343791,36.8000674 18.1520944,36.7126754 C18.1698097,36.6252834 18.1467673,36.5345743 18.0895,36.4662651 Z" id="Path"></path>
                <path d="M16.6855,43.9481928 L14.651,41.046506 C14.5561023,40.9160439 14.3749522,40.8843851 14.2415,40.9749398 L11.2645,42.9787952 C11.1983054,43.0213605 11.1520338,43.0888227 11.1361337,43.1659484 C11.1202336,43.2430741 11.1360459,43.3233592 11.18,43.3886747 L13.0455,46.2643373 C13.1363122,46.3985269 13.3159543,46.4384844 13.455,46.3554217 L16.601,44.4036145 C16.6777848,44.3588069 16.7312668,44.2827497 16.7474959,44.1952815 C16.7637249,44.1078133 16.7410918,44.0176073 16.6855,43.9481928 L16.6855,43.9481928 Z" id="Path"></path>
                <path d="M12.2395,47.0320482 L10.205,44.1303614 C10.1614402,44.0651586 10.0935628,44.0201777 10.0165823,44.0055012 C9.93960184,43.9908247 9.85995698,44.00768 9.7955,44.0522892 L6.8185,46.0626506 C6.75230538,46.1052159 6.70603376,46.1726782 6.69013367,46.2498039 C6.67423358,46.3269296 6.69004587,46.4072147 6.734,46.4725301 L8.5995,49.3416867 C8.68825281,49.4788748 8.87055101,49.5194231 9.009,49.4327711 L12.155,47.4809639 C12.2314586,47.4375182 12.2849384,47.3625922 12.3012166,47.2761121 C12.3174949,47.189632 12.2949216,47.1003639 12.2395,47.0320482 Z" id="Path"></path>
                <path d="M19.2205,28.5939759 L17.2705,25.8614458 C17.1429035,25.6848787 16.8982691,25.6416679 16.718,25.7638554 L13.91,27.6571084 C13.8216669,27.7154359 13.7602935,27.8066868 13.7395399,27.9105511 C13.7187863,28.0144154 13.7403746,28.1222739 13.7995,28.2101205 L15.5545,30.9101205 C15.6094385,31.0002388 15.6985014,31.0642422 15.8013754,31.0875329 C15.9042494,31.1108236 16.0121618,31.0914154 16.1005,31.0337349 L19.071,29.166506 C19.1699189,29.1134824 19.2422722,29.0215793 19.2706468,28.9129147 C19.2990215,28.8042502 19.280848,28.6886647 19.2205,28.5939759 L19.2205,28.5939759 Z" id="Path"></path>
                <path d="M14.7745,31.6778313 L12.857,28.9453012 C12.7977058,28.8579372 12.7060662,28.7978334 12.602369,28.7782958 C12.4986717,28.7587582 12.3914711,28.7813987 12.3045,28.8412048 L9.4965,30.766988 C9.40859271,30.8240892 9.3473432,30.9141987 9.32655591,31.0170076 C9.30576862,31.1198164 9.32719285,31.226673 9.386,31.313494 L11.141,34.02 C11.2600494,34.2016468 11.5014377,34.2562971 11.687,34.1436145 L14.6575,32.2763855 C14.7589631,32.2181838 14.830164,32.1187374 14.8526186,32.0038629 C14.8750732,31.8889885 14.8465669,31.770016 14.7745,31.6778313 L14.7745,31.6778313 Z" id="Path"></path>
                <path d="M10.3285,34.7616867 L8.411,32.0226506 C8.28340348,31.8460835 8.0387691,31.8028727 7.8585,31.9250602 L5.0505,33.8183133 C4.96216689,33.8766408 4.90079353,33.9678916 4.8800399,34.0717559 C4.85928627,34.1756202 4.88087463,34.2834788 4.94,34.3713253 L6.695,37.0713253 C6.74993847,37.1614436 6.8390014,37.225447 6.94187542,37.2487377 C7.04474943,37.2720284 7.15266181,37.2526202 7.241,37.1949398 L10.2115,35.3277108 C10.3046463,35.2704133 10.3700219,35.1771616 10.3921729,35.0699994 C10.4143238,34.9628371 10.3912841,34.8512756 10.3285,34.7616867 Z" id="Path"></path>
                <path d="M5.941,37.9236145 L3.9065,35.0154217 C3.81160234,34.8849595 3.63045216,34.8533008 3.497,34.9438554 L0.52,36.9477108 C0.384361355,37.0410551 0.346995437,37.2251809 0.4355,37.3640964 L2.301,40.233253 C2.39181216,40.3674426 2.57145426,40.4074 2.7105,40.3243373 L5.8565,38.3725301 C5.9368146,38.332622 5.99378107,38.2573223 6.01038274,38.169124 C6.02698442,38.0809258 6.00129934,37.9900396 5.941,37.9236145 Z" id="Path"></path>
                <path d="M58.552,7.89831325 L56.7905,5.39349398 C56.5848121,5.11344734 56.1955299,5.04468681 55.9065,5.2373494 L49.0295,10.0583133 C48.7529664,10.2592682 48.6791162,10.6402335 48.8605,10.9301205 L50.518,13.493494 C50.6143968,13.6368865 50.7638344,13.7359951 50.9333385,13.7689509 C51.1028426,13.8019067 51.2784816,13.766001 51.4215,13.6691566 L58.4025,8.78313253 C58.6800936,8.57528689 58.7458736,8.18596621 58.552,7.89831325 Z" id="Path"></path>
                <path d="M13.6305,39.4525301 L11.4725,36.4012048 C11.427874,36.335147 11.3582589,36.290167 11.2797419,36.2766594 C11.2012249,36.2631518 11.1206004,36.2822854 11.0565,36.3296386 L3.6335,41.5344578 C3.5017824,41.6250163 3.46705243,41.8046208 3.5555,41.9378313 L5.5835,45.080241 C5.62728592,45.1487886 5.69706706,45.1965385 5.77677376,45.2124946 C5.85648046,45.2284507 5.93924217,45.2112376 6.006,45.1648193 L13.5525,39.8754217 C13.6898649,39.7796561 13.7246475,39.591076 13.6305,39.4525301 L13.6305,39.4525301 Z" id="Path"></path>
                <path d="M37.245,16.1154217 L35.256,13.2007229 C35.1631122,13.0680477 34.9816119,13.0334442 34.8465,13.1226506 L18.3625,24.2609639 C18.2277075,24.3518883 18.1901761,24.5339397 18.278,24.6708434 L20.3125,27.7937349 C20.3562859,27.8622826 20.4260671,27.9100325 20.5057738,27.9259886 C20.5854805,27.9419447 20.6682422,27.9247316 20.735,27.8783133 L37.167,16.5318072 C37.2325698,16.4869931 37.2776395,16.4179155 37.2922716,16.3398054 C37.3069037,16.2616953 37.2898965,16.1809674 37.245,16.1154217 Z" id="Path"></path>
            </g>
            <g id="Group-2" transform="translate(495.000000, 535.000000)">
                <path d="M63.8971615,24.4998767 L62.3604681,22.258119 C62.1693606,21.9879636 61.803839,21.9193494 61.5311415,22.1024414 L59.2626895,23.6716718 C58.9954703,23.8606395 58.9203641,24.2304257 59.0919457,24.5123309 L60.5005813,26.7229532 C60.6818047,27.0001783 61.0446643,27.0825211 61.3238099,26.9097663 L63.7264178,25.3654443 C63.8618055,25.274073 63.9559432,25.1313619 63.9879896,24.9689056 C64.0200361,24.8064492 63.9873478,24.6376495 63.8971615,24.4998767 L63.8971615,24.4998767 Z" id="Path" fill="#464A5F"></path>
                <path d="M58.8943712,27.4953771 L57.3585534,25.2558231 C57.1679978,24.9888957 56.807094,24.9204847 56.5357939,25.0998653 L54.2625398,26.6656816 C53.9954729,26.8549895 53.9204095,27.2254411 54.0918934,27.5078538 L55.4997263,29.7224545 C55.6808465,30.0001786 56.0434993,30.0826696 56.3224859,29.9096039 L58.7237248,28.3687408 C58.8607677,28.2771562 58.9560648,28.1330005 58.9881622,27.968727 C59.0202596,27.8044536 58.9864595,27.6338692 58.8943712,27.4953771 L58.8943712,27.4953771 Z" id="Path" fill="#464A5F"></path>
                <path d="M54.8943712,30.4958549 L53.3585534,28.2583473 C53.1675548,27.9879529 52.8022415,27.9192781 52.5296994,28.102532 L50.2625398,29.6731501 C49.9954729,29.862285 49.9204095,30.2323981 50.0918934,30.5145527 L51.4997263,32.7271298 C51.6827671,33.0024181 52.0450429,33.0820037 52.3224859,32.9078756 L54.7237248,31.3684205 C54.8607677,31.2769196 54.9560648,31.1328955 54.9881622,30.9687722 C55.0202596,30.8046489 54.9864595,30.6342204 54.8943712,30.4958549 L54.8943712,30.4958549 Z" id="Path" fill="#464A5F"></path>
                <path d="M49.8810351,34.4830276 L48.3510821,32.2539223 C48.1612541,31.9889782 47.8017285,31.9210755 47.5314644,32.0991233 L45.266891,33.659497 C45.1323291,33.7523574 45.0398752,33.8963496 45.0102092,34.059266 C44.9805432,34.2221824 45.0161404,34.3904284 45.1090387,34.5263713 L46.5114957,36.7245168 C46.6919242,37.0001773 47.0531922,37.0820553 47.3311134,36.9102756 L49.7171116,35.3746697 C49.8597774,35.2827579 49.9585,35.1344356 49.9895979,34.9652823 C50.0206958,34.796129 49.9813632,34.6214067 49.8810351,34.4830276 Z" id="Path" fill="#464A5F"></path>
                <path d="M45.8970741,36.4953771 L44.3590743,34.2558231 C44.168248,33.9888957 43.8068314,33.9204847 43.5351458,34.0998653 L41.258662,35.6656816 C40.9933284,35.8569207 40.9209131,36.2270144 41.0938764,36.5078538 L42.4976063,38.7224545 C42.6789838,39.0001786 43.0421518,39.0826696 43.3215348,38.9096039 L45.7261852,37.3625025 C45.861688,37.2709668 45.9559057,37.1279988 45.9879794,36.9652501 C46.0200531,36.8025014 45.987337,36.6333979 45.8970741,36.4953771 Z" id="Path" fill="#464A5F"></path>
                <path d="M41.9405149,40.7671756 L40.1311992,38.1186859 C40.0924608,38.0591725 40.0320962,38.0181166 39.9636362,38.0047207 C39.8951761,37.9913249 39.8243466,38.0067094 39.7670239,38.0474261 L37.1195268,39.8823663 C37.0606588,39.9212174 37.0195086,39.982793 37.0053684,40.0531888 C36.9912282,40.1235846 37.0052903,40.1968642 37.0443795,40.2564803 L38.7034006,42.8752785 C38.78233,43.0004957 38.9444509,43.0375058 39.0675759,42.9584149 L41.8653676,41.1769196 C41.9333636,41.1372649 41.980924,41.0688768 41.9954006,40.9899429 C42.0098771,40.9110089 41.9898023,40.8295302 41.9405149,40.7671756 Z" id="Path" fill="#464A5F"></path>
                <path d="M35.9433665,43.7651573 L34.1330065,41.1190205 C34.0931664,41.05917 34.031756,41.0180315 33.9623156,41.0046757 C33.8928752,40.9913199 33.8211076,41.0068436 33.762837,41.047824 L31.1195957,42.8811341 C31.0606938,42.9199506 31.0195199,42.9814715 31.0053715,43.0518048 C30.9912231,43.1221381 31.0052934,43.1953526 31.0444051,43.2549157 L32.7043837,45.8773203 C32.7422245,45.9377412 32.8021989,45.9799768 32.8707642,45.99449 C32.9393295,46.0090032 33.0107034,45.9945701 33.0687693,45.9544499 L35.8681758,44.1745372 C35.9346765,44.1335448 35.9809336,44.0653585 35.9952982,43.9871497 C36.0096628,43.9089408 35.990766,43.8281626 35.9433665,43.7651573 L35.9433665,43.7651573 Z" id="Path" fill="#464A5F"></path>
                <path d="M32.9523452,46.7814132 L31.1380585,44.1129944 C31.0534326,43.9932885 30.89189,43.96424 30.7728826,44.0473286 L28.1181117,45.8620922 C27.9971545,45.9477404 27.9638331,46.1166854 28.0427579,46.2441477 L29.7063371,48.8767488 C29.7873198,48.9998748 29.9475175,49.0365378 30.071513,48.9603235 L32.8769915,47.1694383 C32.9380629,47.1292252 32.980605,47.065138 32.9948208,46.9919352 C33.0090367,46.9187324 32.993701,46.8427238 32.9523452,46.7814132 Z" id="Path" fill="#464A5F"></path>
                <path d="M27.9268432,49.7444282 L26.1226851,47.1124573 C26.0385315,46.9933204 25.8778908,46.9644099 25.7595478,47.0471036 L23.1195975,48.8770066 C23.0605191,48.9169985 23.0193769,48.9796478 23.0053074,49.051042 C22.9912379,49.1224363 23.0054056,49.1966657 23.0446645,49.2572462 L24.6989564,51.8773346 C24.779487,51.9998754 24.9387904,52.0363642 25.0620937,51.9605121 L27.8519101,50.178139 C27.9276313,50.1397357 27.9810941,50.0664723 27.9958899,49.9808347 C28.0106857,49.8951971 27.9850472,49.8074142 27.9268432,49.7444282 L27.9268432,49.7444282 Z" id="Path" fill="#464A5F"></path>
                <path d="M22.9405149,52.7659291 L21.1311992,50.1186324 C21.0924608,50.0591459 21.0320962,50.0181085 20.9636362,50.0047186 C20.8951761,49.9913288 20.8243466,50.0067064 20.7670239,50.0474047 L18.1195268,51.8815184 C18.0606588,51.9203519 18.0195086,51.9818998 18.0053684,52.0522639 C17.9912282,52.1226281 18.0052903,52.1958746 18.0443795,52.2554639 L19.7034006,54.8730824 C19.7402814,54.9345012 19.799793,54.9779856 19.86839,54.9936384 C19.936987,55.0092911 20.0088332,54.9957804 20.0675759,54.9561814 L22.8653676,53.1754885 C22.9333636,53.1358517 22.980924,53.0674944 22.9954006,52.988596 C23.0098771,52.9096976 22.9898023,52.8282556 22.9405149,52.7659291 Z" id="Path" fill="#464A5F"></path>
                <path d="M17.9404942,55.7681932 L16.1305492,53.1124573 C16.0461257,52.9933204 15.8849697,52.9644099 15.7662471,53.0471036 L13.1178291,54.8770066 C12.9971613,54.9622478 12.9639196,55.1303898 13.0426556,55.2572462 L14.7022538,57.8773346 C14.7830427,57.9998754 14.9428571,58.0363642 15.0665559,57.9605121 L17.8653208,56.178139 C17.9333404,56.1384648 17.9809174,56.070043 17.995399,55.9910702 C18.0098806,55.9120973 17.9897988,55.8305784 17.9404942,55.7681932 Z" id="Path" fill="#464A5F"></path>
                <path d="M13.9405149,59.7659291 L12.1311992,57.1186324 C12.0924608,57.0591459 12.0320962,57.0181085 11.9636362,57.0047186 C11.8951761,56.9913288 11.8243466,57.0067064 11.7670239,57.0474047 L9.11952676,58.8815184 C9.06065875,58.9203519 9.01950861,58.9818998 9.00536838,59.0522639 C8.99122816,59.1226281 9.0052903,59.1958746 9.04437946,59.2554639 L10.7034006,61.8730824 C10.7402814,61.9345012 10.799793,61.9779856 10.86839,61.9936384 C10.936987,62.0092911 11.0088332,61.9957804 11.0675759,61.9561814 L13.8653676,60.1754885 C13.9333636,60.1358517 13.980924,60.0674944 13.9954006,59.988596 C14.0098771,59.9096976 13.9898023,59.8282556 13.9405149,59.7659291 L13.9405149,59.7659291 Z" id="Path" fill="#464A5F"></path>
                <path d="M60.8970741,19.4984982 L59.3590743,17.2555043 C59.168248,16.9889095 58.8068314,16.9205838 58.5351458,17.0997409 L56.258662,18.6698366 C55.9933284,18.8608373 55.9209131,19.2304698 56.0938764,19.5109592 L57.4976063,21.7228004 C57.6789838,22.0001784 58.0421518,22.0825666 58.3215348,21.9097165 L60.7261852,20.364543 C60.861688,20.2731213 60.9559057,20.1303315 60.9879794,19.9677856 C61.0200531,19.8052397 60.987337,19.6363469 60.8970741,19.4984982 L60.8970741,19.4984982 Z" id="Path" fill="#464A5F"></path>
                <path d="M54.8942815,10.4967111 L53.3571588,8.25595987 C53.1664413,7.98888973 52.8052308,7.9204422 52.5337002,8.0999187 L50.2585145,9.66657205 C49.9933322,9.85791331 49.9209582,10.2282048 50.0938228,10.5091944 L51.502852,12.724979 C51.6837467,12.9991988 52.0423192,13.0813445 52.3202109,12.9122284 L54.7234901,11.3705416 C54.8606494,11.2789081 54.9560275,11.1346753 54.9881521,10.970314 C55.0202768,10.8059528 54.986448,10.6352772 54.8942815,10.4967111 Z" id="Path" fill="#464A5F"></path>
                <path d="M56.8997635,23.5091944 L55.3609191,21.2559599 C55.169988,20.9888897 54.8083729,20.9204422 54.5365381,21.0999187 L52.2588041,22.666572 C51.9933247,22.8579133 51.9208696,23.2282048 52.0939279,23.5091944 L53.5045353,25.724979 C53.6856326,25.9991988 54.0446068,26.0813445 54.3228097,25.9122284 L56.7287808,24.3705416 C57.0074063,24.1800575 57.0837209,23.7956127 56.8997635,23.5091944 Z" id="Path" fill="#464A5F"></path>
                <path d="M51.8861454,26.4944728 L50.3692053,24.2557304 C50.1779563,23.9888997 49.8157391,23.9205135 49.5434517,24.0998291 L47.2619249,25.665078 C46.9923673,25.8566614 46.9194441,26.231146 47.0967742,26.513181 L48.5036137,28.7269792 C48.6873206,29.0024194 49.0509148,29.0820489 49.3293674,28.9078247 L51.7393447,27.36752 C51.8729624,27.2720622 51.9636352,27.126136 51.9912029,26.9621862 C52.0187706,26.7982364 51.9809483,26.6298526 51.8861454,26.4944728 Z" id="Path" fill="#464A5F"></path>
                <path d="M47.8971615,29.4998767 L46.3604681,27.258119 C46.1693606,26.9879636 45.803839,26.9193494 45.5311415,27.1024414 L43.2626895,28.6716718 C42.9954703,28.8606395 42.9203641,29.2304257 43.0919457,29.5123309 L44.5005813,31.7229532 C44.6818047,32.0001783 45.0446643,32.0825211 45.3238099,31.9097663 L47.7264178,30.3654443 C47.8618055,30.274073 47.9559432,30.1313619 47.9879896,29.9689056 C48.0200361,29.8064492 47.9873478,29.6376495 47.8971615,29.4998767 Z" id="Path" fill="#464A5F"></path>
                <path d="M49.8997635,13.5091944 L48.3609191,11.2559599 C48.169988,10.9888897 47.8083729,10.9204422 47.5365381,11.0999187 L45.2588041,12.666572 C44.9933247,12.8579133 44.9208696,13.2282048 45.0939279,13.5091944 L46.5045353,15.724979 C46.6856326,15.9991988 47.0446068,16.0813445 47.3228097,15.9122284 L49.7287808,14.3705416 C50.0074063,14.1800575 50.0837209,13.7956127 49.8997635,13.5091944 L49.8997635,13.5091944 Z" id="Path" fill="#464A5F"></path>
                <path d="M45.8971615,17.4984982 L44.3604681,15.2555043 C44.1698039,14.9889095 43.8086943,14.9205838 43.5372395,15.0997409 L41.2626895,16.6698366 C40.9954703,16.8589085 40.9203641,17.2288985 41.0919457,17.5109592 L42.5005813,19.7228004 C42.6818047,20.0001784 43.0446643,20.0825666 43.3238099,19.9097165 L45.7264178,18.364543 C45.8618055,18.2731213 45.9559432,18.1303315 45.9879896,17.9677856 C46.0200361,17.8052397 45.9873478,17.6363469 45.8971615,17.4984982 Z" id="Path" fill="#464A5F"></path>
                <path d="M41.8961884,20.4936496 L40.3598004,18.258119 C40.1687309,17.9879636 39.8032819,17.9193494 39.5306386,18.1024414 L37.2626373,19.6654447 C36.9954712,19.8544124 36.92038,20.2241986 37.0919275,20.5061038 L38.5002832,22.7229532 C38.6814706,23.0001783 39.044258,23.0825211 39.3233482,22.9097663 L41.7193819,21.3654443 C41.8574662,21.2750211 41.9540529,21.1315831 41.9873237,20.9675321 C42.0205945,20.8034811 41.9877424,20.6326575 41.8961884,20.4936496 Z" id="Path" fill="#464A5F"></path>
                <path d="M41.9024745,32.5029601 L40.3627786,30.2566005 C40.1717419,29.9888619 39.8099267,29.9202431 39.5379416,30.1001688 L37.2589473,31.6582288 C36.993321,31.850049 36.9208259,32.2212673 37.0939799,32.5029601 L38.5053678,34.7242906 C38.6865653,34.9991968 39.0457381,35.0815481 39.3240949,34.9120087 L41.7313972,33.360206 C42.006447,33.1695683 42.0824286,32.7888342 41.9024745,32.5029601 Z" id="Path" fill="#464A5F"></path>
                <path d="M37.8797688,35.4799067 L36.3485331,33.2542371 C36.1585461,32.9889645 35.798719,32.9209777 35.5282283,33.0992462 L33.2617565,34.6863532 C32.9954864,34.8744874 32.920647,35.2426424 33.0916192,35.5233042 L34.4952519,37.7241752 C34.6758317,38.0001775 35.0374025,38.082157 35.3155567,37.9101643 L37.7096315,36.378854 C37.855225,36.2879102 37.9566076,36.1386734 37.9889747,35.9676567 C38.0213418,35.7966401 37.9817075,35.6196199 37.8797688,35.4799067 Z" id="Path" fill="#464A5F"></path>
                <path d="M33.9352167,39.7659291 L32.1193428,37.1186324 C32.0804639,37.0591459 32.0198805,37.0181085 31.9511724,37.0047186 C31.8824642,36.9913288 31.8113779,37.0067064 31.7538474,37.0474047 L29.11996,38.8815184 C29.0608786,38.9203519 29.0195793,38.9818998 29.0053878,39.0522639 C28.9911964,39.1226281 29.0053095,39.1958746 29.0445403,39.2554639 L30.7095749,41.8730824 C30.7465894,41.9345012 30.8063167,41.9779856 30.8751623,41.9936384 C30.9440079,42.0092911 31.0161146,41.9957804 31.0750703,41.9561814 L33.8830031,40.1754885 C33.9461125,40.1305872 33.9877661,40.0605179 33.9977082,39.9825323 C34.0076504,39.9045468 33.9849575,39.8258904 33.9352167,39.7659291 L33.9352167,39.7659291 Z" id="Path" fill="#464A5F"></path>
                <path d="M28.939178,42.7672457 L27.1310908,40.1129008 C27.0446517,39.9930442 26.8817949,39.9642707 26.7613861,40.0475814 L24.1156866,41.8765259 C23.9977587,41.9634822 23.9650117,42.1292052 24.0405903,42.2565663 L25.7042616,44.8752824 C25.7831374,45.0004957 25.9451482,45.0375046 26.0681897,44.9584162 L28.8583051,43.1769768 C28.9288135,43.1399511 28.9790627,43.0719114 28.9948065,42.9921476 C29.0105503,42.9123837 28.9900723,42.8295924 28.939178,42.7672457 L28.939178,42.7672457 Z" id="Path" fill="#464A5F"></path>
                <path d="M24.9339609,44.7681932 L23.1264093,42.1124573 C23.0420974,41.9933204 22.8811546,41.9644099 22.762589,42.0471036 L20.1176732,43.8770066 C19.9971651,43.9622478 19.9639673,44.1303898 20.0425992,44.2572462 L21.7000027,46.8773346 C21.7806848,46.9998754 21.9402878,47.0363642 22.063823,46.9605121 L24.8588868,45.178139 C24.9302424,45.1416952 24.9808542,45.0729322 24.995604,44.9923903 C25.0103537,44.9118485 24.9875338,44.828852 24.9339609,44.7681932 L24.9339609,44.7681932 Z" id="Path" fill="#464A5F"></path>
                <path d="M19.9314217,48.7671756 L18.1356438,46.1186859 C18.0968231,46.0591725 18.0363304,46.0181166 17.9677251,46.0047207 C17.8991197,45.9913249 17.8281398,46.0067094 17.7706954,46.0474261 L15.1175784,47.8823663 C14.9974507,47.9653568 14.9640025,48.1315226 15.0422716,48.2564803 L16.7048143,50.8752785 C16.7839113,51.0004957 16.9463763,51.0375058 17.0697628,50.9584149 L19.8734934,49.1769196 C19.9406161,49.1356112 19.9860737,49.0655645 19.9973027,48.9861385 C20.0085317,48.9067125 19.984343,48.8263186 19.9314217,48.7671756 L19.9314217,48.7671756 Z" id="Path" fill="#464A5F"></path>
                <path d="M48.8970741,21.5020875 L47.3651775,19.2583473 C47.1739075,18.9879529 46.8080752,18.9192781 46.5351458,19.102532 L44.258662,20.6731501 C43.9933284,20.8642144 43.9209131,21.2339699 44.0938764,21.5145527 L45.5037095,23.7271298 C45.6870103,24.0024181 46.0498008,24.0820037 46.3276379,23.9078756 L48.7261852,22.3684205 C48.861688,22.2769684 48.9559057,22.1341311 48.9879794,21.9715311 C49.0200531,21.8089311 48.987337,21.6399821 48.8970741,21.5020875 Z" id="Path" fill="#464A5F"></path>
                <path d="M43.8970741,25.4988444 L42.3590743,23.2600028 C42.170105,22.9910266 41.8083652,22.9198383 41.5351458,23.0978583 L39.258662,24.6694129 C38.9933284,24.8605911 38.9209131,25.230567 39.0938764,25.5113171 L40.5037095,27.7252134 C40.6847074,27.9991995 41.0434845,28.0812751 41.3215348,27.9123032 L43.7261852,26.365694 C43.861688,26.2741873 43.9559057,26.1312649 43.9879794,25.9685679 C44.0200531,25.805871 43.987337,25.6368212 43.8970741,25.4988444 L43.8970741,25.4988444 Z" id="Path" fill="#464A5F"></path>
                <path d="M39.884028,28.4936338 L38.323495,26.2587635 C38.1317059,25.9879335 37.7648807,25.919148 37.4912107,26.1026972 L35.2636263,27.6633608 C34.9954541,27.8528004 34.9200801,28.2235099 35.0922737,28.5061191 L36.505933,30.7222614 C36.6878027,31.0001787 37.0519564,31.0827271 37.3320975,30.909541 L39.743274,29.3676054 C39.87599,29.2710896 39.9654797,29.1245559 39.9919023,28.9604919 C40.018325,28.7964279 39.9794974,28.62839 39.884028,28.4936338 L39.884028,28.4936338 Z" id="Path" fill="#464A5F"></path>
                <path d="M34.8942815,31.4967111 L33.3571588,29.2559599 C33.1664413,28.9888897 32.8052308,28.9204422 32.5337002,29.0999187 L30.2585145,30.666572 C29.9933322,30.8579133 29.9209582,31.2282048 30.0938228,31.5091944 L31.502852,33.724979 C31.6837467,33.9991988 32.0423192,34.0813445 32.3202109,33.9122284 L34.7234901,32.3705416 C34.8606494,32.2789081 34.9560275,32.1346753 34.9881521,31.970314 C35.0202768,31.8059528 34.986448,31.6352772 34.8942815,31.4967111 Z" id="Path" fill="#464A5F"></path>
                <path d="M30.942321,35.7649231 L29.1336556,33.1190105 C29.0938528,33.059165 29.0324998,33.0180299 28.9631245,33.0046753 C28.8937491,32.9913206 28.8220487,33.006843 28.7638326,33.04782 L26.1172872,34.8809747 C25.997457,34.9638845 25.9640917,35.1298886 26.0421669,35.2547247 L27.7005917,37.8769072 C27.7394879,37.9377122 27.8004209,37.9800568 27.8698594,37.9945375 C27.9392978,38.0090182 28.0114937,37.9944364 28.0704146,37.9540302 L30.8614222,36.1742684 C30.9303111,36.1357102 30.979088,36.0678752 30.9946898,35.9889305 C31.0102917,35.9099858 30.9911243,35.8279975 30.942321,35.7649231 Z" id="Path" fill="#464A5F"></path>
                <path d="M25.9345169,37.7683475 L24.1203916,35.1187361 C24.0815502,35.0591976 24.0210251,35.0181243 23.9523831,35.0047227 C23.8837411,34.9913212 23.8127232,35.0067123 23.7552482,35.0474461 L21.1181012,36.8772226 C20.9971548,36.9624579 20.9638363,37.1305883 21.0427541,37.2574359 L22.7061853,39.8773431 C22.7871608,39.9998754 22.9473443,40.0363617 23.0713287,39.9605148 L25.8765576,38.178265 C25.9420428,38.1355363 25.9861075,38.0656749 25.9972416,37.986929 C26.0083757,37.9081831 25.9854734,37.8283737 25.9345169,37.7683475 Z" id="Path" fill="#464A5F"></path>
                <path d="M21.9404942,41.7672457 L20.1305492,39.1129008 C20.0440212,38.9930442 19.8809971,38.9642707 19.7604645,39.0475814 L17.1178291,40.8765259 C16.9971613,40.9617224 16.9639196,41.1297764 17.0426556,41.2565663 L18.7022538,43.8752824 C18.7812107,44.0004957 18.943388,44.0375046 19.0665559,43.9584162 L21.8653208,42.1769768 C21.9333404,42.1373233 21.9809174,42.0689374 21.995399,41.9900059 C22.0098806,41.9110744 21.9897988,41.8295983 21.9404942,41.7672457 Z" id="Path" fill="#464A5F"></path>
                <path d="M17.9433665,43.7651573 L16.1330065,41.1190205 C16.0931664,41.05917 16.031756,41.0180315 15.9623156,41.0046757 C15.8928752,40.9913199 15.8211076,41.0068436 15.762837,41.047824 L13.1195957,42.8811341 C13.0606938,42.9199506 13.0195199,42.9814715 13.0053715,43.0518048 C12.9912231,43.1221381 13.0052934,43.1953526 13.0444051,43.2549157 L14.7043837,45.8773203 C14.7422245,45.9377412 14.8021989,45.9799768 14.8707642,45.99449 C14.9393295,46.0090032 15.0107034,45.9945701 15.0687693,45.9544499 L17.8681758,44.1745372 C17.9346765,44.1335448 17.9809336,44.0653585 17.9952982,43.9871497 C18.0096628,43.9089408 17.990766,43.8281626 17.9433665,43.7651573 L17.9433665,43.7651573 Z" id="Path" fill="#464A5F"></path>
                <path d="M15.9392026,51.7684175 L14.1318461,49.1129486 C14.0454419,48.9930413 13.882651,48.9642555 13.7622908,49.0476015 L11.1176605,50.8773206 C10.9971654,50.9625532 10.9639712,51.1306783 11.0425946,51.257522 L12.6998192,53.877347 C12.7804926,53.9998754 12.9400784,54.0363605 13.0636003,53.960516 L15.8583624,52.1783221 C15.9288423,52.1412808 15.9790712,52.0732123 15.9948086,51.9934147 C16.0105461,51.9136171 15.9900763,51.8307907 15.9392026,51.7684175 Z" id="Path" fill="#464A5F"></path>
                <path d="M10.939197,54.7659013 L9.13167488,52.1190526 C9.09189728,52.0591859 9.03058307,52.0180363 8.96125155,52.0046769 C8.89192003,51.9913175 8.82026494,52.0068454 8.76208568,52.0478369 L6.11721302,53.8816402 C5.99745858,53.9645792 5.96411438,54.1306421 6.04214021,54.2555224 L7.69951675,56.8726979 C7.73746465,56.9344947 7.79793619,56.9780773 7.86739914,56.9936928 C7.93686209,57.0093083 8.00951725,56.995653 8.06910595,56.9557828 L10.8583494,55.1753913 C10.9288358,55.1383874 10.9790692,55.0703877 10.9948081,54.9906709 C11.010547,54.910954 10.9900754,54.8282113 10.939197,54.7659013 L10.939197,54.7659013 Z" id="Path" fill="#464A5F"></path>
                <path d="M17.9401409,35.6894774 L16.2093996,33.1545532 C16.0942306,32.9911438 15.8734229,32.9511531 15.7107114,33.0642353 L13.1586014,34.8164038 C12.9953688,34.9308466 12.9510762,35.1581334 13.0588637,35.3282056 L14.642932,37.8330238 C14.7525745,38.0026363 14.9743983,38.050846 15.1416202,37.9414053 L17.8169356,36.2133216 C17.9038985,36.1633579 17.9666222,36.0784411 17.9900071,35.9790133 C18.0133919,35.8795855 17.9953197,35.7746534 17.9401409,35.6894774 Z" id="Path" fill="#464A5F"></path>
                <path d="M13.9351529,39.6885037 L12.199816,37.1608231 C12.1461548,37.0800085 12.063221,37.0244105 11.969375,37.0063376 C11.875529,36.9882647 11.7785126,37.0092078 11.6998037,37.0645305 L9.15856464,38.8218704 C8.99565069,38.9340078 8.95108766,39.1592844 9.05856218,39.3274065 L10.6468366,41.831014 C10.756769,41.9998433 10.9771164,42.0502344 11.1468489,41.9453615 L13.8351504,40.218113 C13.9175391,40.1618486 13.9744822,40.0741813 13.9932709,39.9746772 C14.0120596,39.8751731 13.9911298,39.7721149 13.9351529,39.6885037 L13.9351529,39.6885037 Z" id="Path" fill="#464A5F"></path>
                <path d="M9.94182209,42.6892497 L8.18531927,40.1540757 C8.07253658,39.9914271 7.85404524,39.9512994 7.69349848,40.0637489 L5.1582794,41.81609 C4.99537825,41.9305441 4.95117552,42.1578534 5.05874424,42.3279423 L6.63959678,44.8330073 C6.74901667,45.0026365 6.97039009,45.050851 7.13727258,44.9413996 L9.81301189,43.2131455 C9.9007738,43.1642307 9.96462762,43.0797745 9.98909926,42.9802436 C10.0135709,42.8807127 9.99642699,42.7751909 9.94182209,42.6892497 L9.94182209,42.6892497 Z" id="Path" fill="#464A5F"></path>
                <path d="M4.94051564,45.7672457 L3.13122152,43.1129008 C3.04472467,42.9930442 2.88175923,42.9642707 2.76127,43.0475814 L0.113804472,44.8765259 C-0.00483244063,44.9635685 -0.0354446705,45.1312861 0.044438563,45.2565663 L1.70343989,47.8752824 C1.78236834,48.0004957 1.94448732,48.0375046 2.06761091,47.9584162 L4.86536924,46.1769768 C4.93336435,46.1373233 4.98092427,46.0689374 4.99540064,45.9900059 C5.009877,45.9110744 4.98980242,45.8295983 4.94051564,45.7672457 Z" id="Path" fill="#464A5F"></path>
                <path d="M58.8949764,15.8880648 L57.1433135,13.2759357 C56.93571,12.9846481 56.5428024,12.9131275 56.2510807,13.1135235 L49.2706711,18.1279994 C48.9915621,18.3370207 48.9170241,18.7332777 49.1000972,19.0348007 L50.7795942,21.7010672 C50.8768888,21.8502155 51.0277181,21.9533023 51.1988008,21.9875809 C51.3698835,22.0218595 51.5471583,21.9845126 51.6915086,21.8837809 L58.730963,16.8016333 C59.0116779,16.5900459 59.0836224,16.1893087 58.8949764,15.8880648 Z" id="Path" fill="#464A5F"></path>
                <path d="M12.9459186,47.1993415 L10.8259693,44.1295568 C10.7821302,44.0630993 10.7137425,44.0178473 10.63661,44.0042579 C10.5594774,43.9906686 10.4802745,44.0099179 10.4173043,44.0575576 L3.12518939,49.2938641 C2.99497425,49.3874005 2.96101234,49.570168 3.04856472,49.7062232 L5.04719167,52.8610979 C5.09020555,52.9300602 5.15875627,52.978099 5.23705756,52.9941517 C5.31535884,53.0102043 5.39666127,52.9928871 5.462242,52.9461879 L12.8756794,47.6247914 C13.0084617,47.5264033 13.0397251,47.3370362 12.9459186,47.1993415 L12.9459186,47.1993415 Z" id="Path" fill="#464A5F"></path>
                <path d="M36.9362012,24.0595437 L34.9904861,21.1339626 C34.8974332,20.9967726 34.7138822,20.9589794 34.5754002,21.0484962 L18.1341075,32.290617 C18.0680584,32.3336292 18.0218884,32.4017998 18.0060233,32.4797354 C17.9901581,32.557671 18.0059357,32.6387991 18.0497932,32.7048004 L20.0733369,35.8604834 C20.1170266,35.9297508 20.1866544,35.9780021 20.266186,35.9941258 C20.3457175,36.0102494 20.4282974,35.9928556 20.4949085,35.9459498 L36.8908012,24.4803015 C37.0163729,24.3759431 37.0365496,24.1889497 36.9362012,24.0595437 Z" id="Path" fill="#464A5F"></path>
                <path d="M37.7059253,13.6202354 L28.738007,0.71624011 C28.2216031,-0.0301296414 27.1937828,-0.22425088 26.4361526,0.28149601 L1.7344608,16.7029663 C1.36704831,16.9489626 1.11357369,17.3295792 1.02995288,17.760853 C0.946332077,18.1921267 1.03943595,18.638621 1.28872599,19.0018404 L10.429616,32.2747095 C10.6779377,32.638868 11.0629452,32.8896667 11.4989897,32.9713132 C11.9350342,33.0529597 12.3859508,32.9586822 12.7514287,32.7094536 L37.2801488,15.9059355 C37.6434691,15.6593116 37.8926182,15.2795649 37.9725165,14.850646 C38.0524148,14.4217271 37.9564818,13.978963 37.7059253,13.6202354 Z" id="Path" fill="#000000" opacity="0.1"></path>
                <path d="M37.7014355,13.6187585 L28.7282385,0.713779816 C28.2093997,-0.0294165739 27.1838849,-0.223003189 26.4250291,0.279002585 L1.74208048,16.7148994 C1.3719254,16.9587171 1.11576226,17.3389889 1.03072414,17.7709014 C0.945686026,18.2028138 1.03884614,18.6504416 1.28942662,19.0139487 L10.4090705,32.2746543 C10.6575384,32.6388405 11.0427725,32.8896583 11.4790737,32.971311 C11.9153749,33.0529637 12.3665569,32.958679 12.7322499,32.7094315 L37.2887217,15.9046328 C37.6501249,15.6559523 37.8967295,15.2752225 37.9741524,14.8464048 C38.0515753,14.4175871 37.9534571,13.9759038 37.7014355,13.6187585 Z" id="Path" fill="#939498"></path>
                <path d="M91.5094256,34.2534714 L72.8493278,28 L13,69.768469 L31.5230831,75.8318454 C32.5356346,76.1637714 33.6445624,75.998718 34.5178331,75.3861053 L91.6790629,35.4530366 C91.9065119,35.3182183 92.0306385,35.0589454 91.9934914,34.7962653 C91.9563443,34.5335851 91.7652502,34.319307 91.5094256,34.2534714 L91.5094256,34.2534714 Z" id="Path" fill="#1B51E5"></path>
            </g>
        </g>
    </g>
</svg>