<?xml version="1.0" encoding="utf-8"?>
<svg width="8px" height="14px" viewBox="0 0 8 14" version="1.1" xmlns:xlink="http://www.w3.org/1999/xlink" xmlns="http://www.w3.org/2000/svg">
  <desc>Created with Lunacy</desc>
  <g id="fa-solid:mobile-alt">
    <g id="Icon">
      <path d="M1.2 0L6.8 0C7.4625 0 8 0.548052 8 1.22356L8 11.8277C8 12.5032 7.4625 13.0513 6.8 13.0513L1.2 13.0513C0.5375 13.0513 0 12.5032 0 11.8277L0 1.22356C0 0.548052 0.5375 0 1.2 0ZM6.5 9.78846C6.665 9.78846 6.8 9.65081 6.8 9.48257L6.8 1.52945C6.8 1.36121 6.665 1.22356 6.5 1.22356L1.5 1.22356C1.335 1.22356 1.2 1.36121 1.2 1.52945L1.2 9.48257C1.2 9.65081 1.335 9.78846 1.5 9.78846L6.5 9.78846ZM4 12.2356C3.5575 12.2356 3.2 11.8711 3.2 11.4199C3.2 10.9687 3.5575 10.6042 4 10.6042C4.4425 10.6042 4.8 10.9687 4.8 11.4199C4.8 11.8711 4.4425 12.2356 4 12.2356Z" id="Icon-Shape" fill="#CFD3DA" fill-rule="evenodd" stroke="none" />
    </g>
    <path d="M0 0L8 0L8 13.0513L0 13.0513L0 0Z" id="ViewBox" fill="none" stroke="none" />
  </g>
</svg>