<svg xmlns="http://www.w3.org/2000/svg" width="4.922" height="19.414" viewBox="0 0 4.922 19.414">
  <g id="Menu_icon_Copy" data-name="Menu icon Copy" transform="translate(-17 -9)">
    <path id="_" data-name="" d="M16.68,4.922a.287.287,0,0,1-.059-.01.116.116,0,0,1-.059-.03,2.384,2.384,0,0,1-1.436-.742A2.191,2.191,0,0,1,14.492,2.7a2.433,2.433,0,0,1,.4-1.621A2.379,2.379,0,0,1,16.231.117a1.682,1.682,0,0,1,.215-.068C16.523.03,16.6.013,16.68,0h.527a.137.137,0,0,1,.059.01l.059.029a2.435,2.435,0,0,1,1.319.635,2.349,2.349,0,0,1,.713,1.279.826.826,0,0,1,.03.117.8.8,0,0,0,.029.118v.526a.131.131,0,0,1-.01.059l-.029.059a2.371,2.371,0,0,1-.625,1.3,2.458,2.458,0,0,1-1.25.713c-.051.013-.1.026-.146.039s-.094.026-.147.04Zm-7.246,0a.088.088,0,0,1-.049-.02.127.127,0,0,0-.068-.02,2.343,2.343,0,0,1-1.436-.761,2.264,2.264,0,0,1-.635-1.465,2.577,2.577,0,0,1,.469-1.65A2.316,2.316,0,0,1,9.082.078c.052-.013.111-.026.175-.04S9.382.013,9.434,0H9.98a.171.171,0,0,1,.049.01A.6.6,0,0,1,10.1.039a2.468,2.468,0,0,1,1.436.772,2.229,2.229,0,0,1,.634,1.454A2.578,2.578,0,0,1,11.7,3.916a2.314,2.314,0,0,1-1.367.928c-.052.013-.111.026-.175.039s-.124.026-.176.04Zm-7.227,0a.14.14,0,0,1-.058-.01l-.059-.03A2.532,2.532,0,0,1,.83,4.306,2.553,2.553,0,0,1,.1,3.125C.085,3.06.068,3,.049,2.93S.013,2.8,0,2.734V2.188a.093.093,0,0,1,.02-.049A.093.093,0,0,0,.039,2.09,2.434,2.434,0,0,1,1.933.059.441.441,0,0,0,2.06.039C2.106.026,2.155.013,2.207,0h.527a.278.278,0,0,1,.059.01.123.123,0,0,1,.059.029A2.367,2.367,0,0,1,4.287.791a2.226,2.226,0,0,1,.635,1.455A2.517,2.517,0,0,1,4.5,3.857a2.362,2.362,0,0,1-1.337.967c-.066.014-.137.03-.215.049s-.149.036-.215.049Z" transform="translate(21.922 9) rotate(90)" fill="#73c2fb"/>
  </g>
</svg>
