<?xml version="1.0"?>
<svg xmlns="http://www.w3.org/2000/svg" xmlns:xlink="http://www.w3.org/1999/xlink" xmlns:svgjs="http://svgjs.com/svgjs" version="1.1" width="512" height="512" x="0" y="0" viewBox="0 0 512 512" style="enable-background:new 0 0 512 512" xml:space="preserve" class=""><g><path xmlns="http://www.w3.org/2000/svg" d="m0 0v270h512v-270zm91 120v30h-30v-30zm-30-30v-30h30v30zm90 30v30h-30v-30zm-30-30v-30h30v30zm30 90v30h-30v-30zm60-60v30h-30v-30zm-30-30v-30h30v30zm150 90v30h-150v-30zm-60-60v30h-30v-30zm-30-30v-30h30v30zm90 30v30h-30v-30zm-30-30v-30h30v30zm90 30v30h-30v-30zm-30-30v-30h30v30zm30 90v30h-30v-30zm60-60v30h-30v-30zm-30-30v-30h30v30zm0 0" fill="#73c2fb" data-original="#000000" style="" class=""/></g></svg>
