<?xml version="1.0" encoding="utf-8"?>
<!-- Generator: Adobe Illustrator 16.0.0, SVG Export Plug-In . SVG Version: 6.00 Build 0)  -->
<!DOCTYPE svg PUBLIC "-//W3C//DTD SVG 1.1//EN" "http://www.w3.org/Graphics/SVG/1.1/DTD/svg11.dtd">
<svg version="1.1" id="Layer_1" xmlns="http://www.w3.org/2000/svg" xmlns:xlink="http://www.w3.org/1999/xlink" x="0px" y="0px"
	 width="12px" height="16px" viewBox="0 0 12 16" enable-background="new 0 0 12 16" xml:space="preserve">
<desc>Created with Lunacy</desc>
<g id="Icon">
	<path id="Icon-Shape" fill="#8181A5" d="M8.925,5.844H9.45c1.159,0.001,2.099,0.952,2.1,2.125v5.844
		c-0.001,1.173-0.94,2.123-2.1,2.125H2.1c-1.159-0.002-2.099-0.952-2.1-2.125V7.969c0.001-1.173,0.941-2.124,2.1-2.125h0.525V3.188
		C2.625,1.427,4.035,0,5.775,0c1.739,0,3.149,1.427,3.149,3.188V5.844z M3.675,3.188v2.656h4.2V3.188c0-1.174-0.94-2.125-2.1-2.125
		C4.615,1.063,3.675,2.014,3.675,3.188z"/>
</g>
</svg>
