<svg width="37" height="38" viewBox="0 0 37 38" fill="none" xmlns="http://www.w3.org/2000/svg">
<path fill-rule="evenodd" clip-rule="evenodd" d="M18.5 14.2625C17.7051 14.2625 17.0788 13.9325 16.6211 13.2726C14.429 13.6148 12.6525 14.4886 11.2915 15.894C9.9305 17.2995 9.25 19.1021 9.25 21.3019H2.3125C1.6862 21.3019 1.14421 21.0759 0.686523 20.6237C0.228841 20.1715 0 19.6215 0 18.9738C0 18.3261 0.228841 17.77 0.686523 17.3056C1.14421 16.8412 1.6862 16.609 2.3125 16.609H9.93652L3.46875 12.7593C2.91471 12.4415 2.55339 11.971 2.38477 11.3477C2.21615 10.7244 2.29443 10.1317 2.61963 9.56953C2.94482 9.00735 3.40853 8.64071 4.01074 8.46961C4.61296 8.29852 5.19108 8.38407 5.74512 8.72626L12.1045 12.466L8.41895 6.01314C8.08171 5.45096 7.9974 4.86434 8.16602 4.25328C8.33464 3.64221 8.69596 3.17169 9.25 2.84172C9.80404 2.51175 10.3882 2.43231 11.0024 2.6034C11.6167 2.7745 12.0804 3.14114 12.3936 3.70332L16.1875 10.2661V2.53008C16.1875 1.89457 16.4103 1.34461 16.856 0.880206C17.3016 0.415798 17.8496 0.183594 18.5 0.183594C19.1504 0.183594 19.6984 0.415798 20.144 0.880206C20.5897 1.34461 20.8125 1.89457 20.8125 2.53008V11.916C20.8125 12.576 20.5837 13.132 20.126 13.5842C19.6683 14.0364 19.1263 14.2625 18.5 14.2625ZM24.4619 3.9233C25.9072 4.60769 27.1719 5.49985 28.2559 6.59976L28.5811 6.01314C28.9183 5.45096 29.0026 4.86434 28.834 4.25328C28.6654 3.64221 28.304 3.17169 27.75 2.84172C27.196 2.51175 26.6118 2.43231 25.9976 2.60341C25.3833 2.7745 24.9196 3.14114 24.6064 3.70332L24.4619 3.9233ZM33.5312 12.7593L32.0498 13.6392C31.7367 12.0993 31.1585 10.645 30.3154 9.27622L31.2549 8.72626C31.8089 8.38407 32.387 8.29852 32.9893 8.46961C33.5915 8.64071 34.0552 9.00735 34.3804 9.56953C34.7056 10.1317 34.7839 10.7244 34.6152 11.3477C34.4466 11.971 34.0853 12.4415 33.5312 12.7593ZM34.6875 21.3019H31.5801C32.11 19.7621 32.375 18.1977 32.375 16.609H34.6875C35.3138 16.609 35.8558 16.8412 36.3135 17.3056C36.7712 17.77 37 18.3261 37 18.9738C37 19.6215 36.7712 20.1715 36.3135 20.6237C35.8558 21.0759 35.3138 21.3019 34.6875 21.3019ZM28.5811 31.8978C28.9183 32.46 29.0026 33.0466 28.834 33.6576C28.6654 34.2687 28.304 34.7392 27.75 35.0692C27.196 35.3992 26.6118 35.4786 25.9976 35.3075C25.3833 35.1364 24.9196 34.7698 24.6064 34.2076L22.2578 30.1379C23.7754 29.7224 25.1725 29.0625 26.4492 28.1581L28.5811 31.8978ZM16.856 37.0491C17.3016 37.5012 17.8436 37.7273 18.4819 37.7273C19.1203 37.7273 19.6683 37.5012 20.126 37.0491C20.5837 36.5969 20.8125 36.0408 20.8125 35.3808V30.4679C19.9935 30.6146 19.2227 30.6879 18.5 30.6879C17.7292 30.6879 16.9583 30.5901 16.1875 30.3946V35.3808C16.1875 36.0408 16.4103 36.5969 16.856 37.0491ZM9.28613 21.7052L3.46875 25.1516C2.91471 25.4694 2.55339 25.9399 2.38477 26.5632C2.21615 27.1865 2.29443 27.7792 2.61963 28.3414C2.94482 28.9036 3.40853 29.2702 4.01074 29.4413C4.61296 29.6124 5.19108 29.5269 5.74512 29.1847L10.6592 26.2882C9.79199 24.895 9.33431 23.3673 9.28613 21.7052ZM11.2012 27.0215C12.1888 28.3414 13.4053 29.3069 14.8506 29.9179L12.3936 34.2076C12.0804 34.7698 11.6167 35.1364 11.0024 35.3075C10.3882 35.4786 9.80404 35.3992 9.25 35.0692C8.69596 34.7392 8.33464 34.2687 8.16602 33.6576C7.9974 33.0466 8.08171 32.46 8.41895 31.8978L11.2012 27.0215ZM33.5312 25.1516L30.6406 23.4284C29.8939 24.7972 28.9183 26.0194 27.7139 27.0948L31.2549 29.1847C31.8089 29.5269 32.387 29.6124 32.9893 29.4413C33.5915 29.2702 34.0552 28.9036 34.3804 28.3414C34.7056 27.7792 34.7839 27.1865 34.6152 26.5632C34.4466 25.9399 34.0853 25.4694 33.5312 25.1516Z" fill="#D8D8D8"/>
</svg>
