<?xml version="1.0" encoding="utf-8"?>
<!-- Generator: Adobe Illustrator 24.3.0, SVG Export Plug-In . SVG Version: 6.00 Build 0)  -->
<svg version="1.1" id="Layer_1" xmlns="http://www.w3.org/2000/svg" xmlns:xlink="http://www.w3.org/1999/xlink" x="0px" y="0px"
	 width="30px" height="30px" viewBox="0 0 30 30" style="enable-background:new 0 0 30 30;" xml:space="preserve">
<style type="text/css">
	.st0{display:none;fill:#231F20;}
	.st1{fill:#FFFFFF;}
	.st2{clip-path:url(#SVGID_2_);}
</style>
<rect y="0" class="st0" width="30" height="30"/>
<path class="st1" d="M21.8,30H8.2C3.7,30,0,26.3,0,21.8V8.2C0,3.7,3.7,0,8.2,0h13.6C26.3,0,30,3.7,30,8.2v13.6
	C30,26.3,26.3,30,21.8,30z"/>
<g>
	<defs>
		<path id="SVGID_1_" d="M21.8,30H8.2C3.7,30,0,26.3,0,21.8V8.2C0,3.7,3.7,0,8.2,0h13.6C26.3,0,30,3.7,30,8.2v13.6
			C30,26.3,26.3,30,21.8,30z"/>
	</defs>
	<clipPath id="SVGID_2_">
		<use xlink:href="#SVGID_1_"  style="overflow:visible;"/>
	</clipPath>
	<g class="st2">
		<g>
			<path d="M24.7,22.6l-4.8-1.2l-0.4-1.6c1.3-1.3,2.2-3,2.4-4.8c0.7-0.2,1.3-0.8,1.4-1.6l0.3-2.5c0.1-0.5-0.1-1.1-0.4-1.5
				c-0.2-0.2-0.5-0.4-0.7-0.5l0.1-2.4L23,6.1c0.7-0.7,1.3-2,0.1-3.9C22.1,0.7,20.5,0,18.3,0c-0.9,0-2.9,0-4.7,1.3
				c-5.3,0.1-6.1,2.6-6.1,5c0,0.6,0.1,1.8,0.2,2.6C7.4,8.9,7.1,9.1,6.9,9.4c-0.4,0.4-0.5,0.9-0.5,1.5l0.3,2.5
				c0.1,0.8,0.7,1.5,1.5,1.6c0.3,1.7,1.1,3.4,2.3,4.7l-0.4,1.7l-4.8,1.2C2.2,23.3,0,26.1,0,29.4C0,29.7,0.3,30,0.6,30h28.7
				c0.3,0,0.6-0.3,0.6-0.6C30,26.1,27.8,23.3,24.7,22.6z"/>
		</g>
	</g>
</g>
</svg>
