<svg width="12" height="17" viewBox="0 0 12 17" fill="none" xmlns="http://www.w3.org/2000/svg">
<path fill-rule="evenodd" clip-rule="evenodd" d="M11.8111 15.8951C11.6852 16.021 11.5322 16.084 11.3523 16.084C11.1724 16.084 11.0195 16.021 10.8936 15.8951C10.7676 15.7691 10.7046 15.6162 10.7046 15.4363C10.7046 14.1289 10.2459 13.0165 9.32834 12.099C8.41079 11.1814 7.30135 10.7226 6 10.7226C4.69865 10.7226 3.58921 11.1844 2.67166 12.1079C1.75412 13.0315 1.29535 14.1409 1.29535 15.4363C1.29535 15.6162 1.23238 15.7691 1.10645 15.8951C0.98051 16.021 0.827586 16.084 0.647676 16.084C0.467766 16.084 0.314843 16.021 0.188906 15.8951C0.0629685 15.7691 0 15.6162 0 15.4363C0 14.6207 0.155922 13.8411 0.467766 13.0975C0.767616 12.3778 1.1934 11.7421 1.74513 11.1904C2.29685 10.6387 2.93253 10.2129 3.65217 9.91304C3.88006 9.8051 4.13193 9.71514 4.4078 9.64318C3.67616 9.4033 3.03448 9.0075 2.48276 8.45577C1.52324 7.48426 1.04348 6.31484 1.04348 4.94753C1.04348 3.58021 1.52624 2.41379 2.49175 1.44828C3.45727 0.482759 4.62369 0 5.991 0C7.35832 0 8.52774 0.482759 9.49925 1.44828C10.4708 2.41379 10.9565 3.58021 10.9565 4.94753C10.9565 6.31484 10.4708 7.48426 9.49925 8.45577C8.94753 9.0075 8.30585 9.4033 7.57421 9.64318C7.83808 9.71514 8.08996 9.8051 8.32983 9.91304C9.04947 10.2129 9.68516 10.6387 10.2369 11.1904C10.7886 11.7421 11.2144 12.3778 11.5142 13.0975C11.8261 13.8411 11.988 14.6207 12 15.4363C12 15.6162 11.937 15.7691 11.8111 15.8951ZM3.4003 7.53823C4.11994 8.25787 4.98351 8.61769 5.991 8.61769C6.9985 8.61769 7.85907 8.25787 8.57271 7.53823C9.28636 6.81859 9.64318 5.95502 9.64318 4.94753C9.64318 3.94003 9.28636 3.07946 8.57271 2.36582C7.85907 1.65217 6.9985 1.29535 5.991 1.29535C4.98351 1.29535 4.12294 1.65217 3.4093 2.36582C2.69565 3.07946 2.33883 3.94003 2.33883 4.94753C2.33883 5.95502 2.69265 6.81859 3.4003 7.53823Z" fill="#1C1D21"/>
</svg>
